{"glyphs":{"0":{"ha":745,"x_min":49,"x_max":695,"o":"m 695 726 q 683 908 695 851 q 635 1010 670 965 q 528 1087 600 1056 q 367 1119 457 1119 q 179 1074 256 1119 q 75 953 101 1028 q 49 726 49 878 l 49 343 q 65 174 49 227 q 120 73 81 121 q 224 2 159 24 q 387 -21 289 -21 q 522 1 462 -21 q 625 72 583 22 q 682 178 668 121 q 695 360 695 235 l 695 726 m 421 819 l 421 275 q 412 171 421 194 q 372 148 402 148 q 332 168 341 148 q 323 283 323 187 l 323 819 q 333 927 323 903 q 373 950 342 950 q 413 928 404 950 q 421 819 421 906 "},"1":{"ha":529,"x_min":8,"x_max":471,"o":"m 471 1098 l 310 1098 q 8 922 207 965 l 8 794 l 35 794 q 158 781 130 794 q 191 742 185 768 q 197 589 197 716 l 197 0 l 471 0 l 471 1098 "},"2":{"ha":697,"x_min":37,"x_max":664,"o":"m 640 187 l 339 187 q 617 633 570 528 q 664 833 664 739 q 580 1038 664 957 q 333 1119 496 1119 q 190 1093 250 1119 q 93 1015 130 1066 q 46 910 56 963 q 37 764 37 857 l 37 724 l 282 724 l 282 829 q 297 926 282 901 q 344 950 313 950 q 390 928 375 950 q 406 861 406 906 q 355 699 406 803 q 37 157 304 595 l 37 0 l 640 0 l 640 187 "},"3":{"ha":736,"x_min":41,"x_max":687,"o":"m 564 622 q 652 697 627 656 q 677 830 677 738 q 607 1043 677 966 q 341 1120 537 1120 q 113 1064 184 1120 q 41 852 41 1009 l 41 758 l 315 758 l 315 848 q 325 931 315 911 q 364 950 336 950 q 401 932 389 950 q 413 856 413 913 l 413 795 q 403 716 413 741 q 370 684 393 691 q 249 676 347 676 l 249 517 q 357 506 329 515 q 399 468 385 497 q 413 376 413 439 l 413 300 q 403 172 413 197 q 361 148 393 148 q 323 167 332 148 q 315 258 315 186 l 315 436 l 41 436 l 41 349 q 64 129 41 193 q 162 22 87 66 q 366 -22 236 -22 q 554 16 481 -22 q 657 126 627 54 q 687 329 687 198 q 656 553 687 505 q 564 622 626 601 "},"4":{"ha":694,"x_min":8,"x_max":686,"o":"m 608 1098 l 245 1098 l 8 380 l 8 193 l 334 193 l 334 0 l 608 0 l 608 193 l 686 193 l 686 380 l 608 380 l 608 1098 m 334 380 l 213 380 l 334 848 l 334 380 "},"5":{"ha":745,"x_min":45,"x_max":701,"o":"m 647 1098 l 59 1098 l 47 545 l 319 545 q 322 606 319 593 q 339 631 326 619 q 371 642 352 642 q 414 620 401 642 q 427 536 427 597 l 427 318 q 424 189 425 203 q 411 161 423 174 q 378 148 398 148 q 326 193 334 148 q 319 344 319 237 l 319 412 l 45 412 l 45 353 q 79 126 45 199 q 193 16 113 53 q 380 -21 274 -21 q 539 4 474 -21 q 642 75 605 28 q 689 176 678 121 q 701 347 701 231 l 701 504 q 643 748 701 684 q 471 811 585 811 q 307 736 371 811 l 307 922 l 647 922 l 647 1098 "},"6":{"ha":752,"x_min":49,"x_max":707,"o":"m 707 806 q 675 977 707 909 q 569 1082 643 1045 q 380 1120 495 1120 q 215 1090 286 1120 q 102 1002 143 1061 q 55 877 60 943 q 49 614 49 810 l 49 463 q 55 218 49 281 q 100 97 62 155 q 209 9 138 40 q 390 -21 279 -21 q 546 5 479 -21 q 651 80 612 32 q 698 184 689 127 q 707 355 707 240 l 707 443 q 691 597 707 540 q 618 694 675 654 q 485 735 560 735 q 385 713 425 735 q 323 647 344 691 l 323 822 q 325 904 323 884 q 340 937 327 924 q 375 950 354 950 q 415 937 400 950 q 431 903 429 923 q 433 806 433 883 l 707 806 m 433 464 l 433 258 q 414 165 433 182 q 377 148 395 148 q 335 170 348 148 q 323 265 323 193 l 323 464 q 336 545 323 524 q 378 566 349 566 q 420 544 407 566 q 433 464 433 522 "},"7":{"ha":544,"x_min":8,"x_max":532,"o":"m 532 1098 l 8 1098 l 8 901 l 279 901 l 84 0 l 357 0 l 532 859 l 532 1098 "},"8":{"ha":743,"x_min":45,"x_max":697,"o":"m 572 623 q 665 701 642 661 q 688 829 688 740 q 618 1044 688 968 q 368 1119 549 1119 q 133 1048 212 1119 q 54 836 54 977 q 80 700 54 753 q 156 623 105 647 q 60 505 75 578 q 45 332 45 432 q 76 120 45 184 q 178 18 106 56 q 371 -21 249 -21 q 571 19 496 -21 q 671 123 646 60 q 697 319 697 186 q 665 550 697 501 q 572 623 632 598 m 418 859 l 418 783 q 408 706 418 725 q 372 688 399 688 q 335 707 346 688 q 324 775 324 726 l 324 859 q 334 931 324 911 q 370 950 343 950 q 408 932 398 950 q 418 859 418 914 m 423 402 l 423 262 q 413 169 423 189 q 374 148 403 148 q 332 168 345 148 q 319 260 319 189 l 319 402 q 331 487 319 467 q 370 507 342 507 q 410 486 397 507 q 423 402 423 465 "},"9":{"ha":752,"x_min":49,"x_max":707,"o":"m 49 292 q 81 121 49 189 q 187 16 113 53 q 376 -22 260 -22 q 541 8 470 -22 q 654 96 612 37 q 701 221 696 155 q 707 484 707 288 l 707 636 q 701 880 707 817 q 656 1001 694 943 q 547 1088 617 1058 q 366 1119 476 1119 q 210 1093 277 1119 q 105 1018 143 1066 q 58 914 67 970 q 49 743 49 858 l 49 655 q 64 501 49 558 q 138 404 80 444 q 271 363 195 363 q 372 385 331 363 q 433 451 412 407 l 433 276 q 431 194 433 214 q 416 161 429 174 q 381 148 402 148 q 341 161 356 148 q 325 195 327 175 q 323 292 323 215 l 49 292 m 323 634 l 323 840 q 342 933 323 916 q 378 950 361 950 q 420 928 408 950 q 433 833 433 905 l 433 634 q 419 553 433 574 q 378 532 406 532 q 341 549 359 532 q 323 634 323 565 "}," ":{"ha":245,"x_min":0,"x_max":0,"o":""},"!":{"ha":375,"x_min":49,"x_max":350,"o":"m 350 1098 l 49 1098 l 94 271 l 305 271 l 350 1098 m 328 220 l 71 220 l 71 0 l 328 0 l 328 220 "},"\"":{"ha":513,"x_min":24,"x_max":489,"o":"m 60 745 l 201 745 l 232 930 l 232 1098 l 24 1098 l 24 930 l 60 745 m 317 745 l 457 745 l 489 930 l 489 1098 l 281 1098 l 281 930 l 317 745 "},"#":{"ha":870,"x_min":24,"x_max":846,"o":"m 24 720 l 24 591 l 209 591 l 166 386 l 24 386 l 24 258 l 140 258 l 85 0 l 214 0 l 267 258 l 511 258 l 454 0 l 583 0 l 639 258 l 846 258 l 846 386 l 663 386 l 706 591 l 846 591 l 846 720 l 730 720 l 786 979 l 658 979 l 602 720 l 361 720 l 418 979 l 290 979 l 233 720 l 24 720 m 337 591 l 578 591 l 536 387 l 294 387 l 337 591 "},"$":{"ha":760,"x_min":37,"x_max":723,"o":"m 691 778 q 694 829 694 812 q 631 1020 694 951 q 441 1105 568 1088 l 441 1192 l 315 1192 l 315 1105 q 106 1019 176 1088 q 37 826 37 949 q 70 674 37 741 q 148 570 102 607 q 318 454 193 533 q 406 368 393 408 q 419 236 419 328 q 406 181 419 199 q 364 162 392 162 q 323 189 332 162 q 315 326 315 216 l 315 393 l 41 393 l 41 340 q 123 83 41 157 q 315 -1 205 9 l 315 -108 l 441 -108 l 441 -5 q 652 98 582 15 q 723 328 723 182 q 697 481 723 420 q 633 576 671 543 q 490 673 595 610 q 342 773 368 747 q 317 863 317 799 q 329 921 317 902 q 367 941 342 941 q 408 918 398 941 q 417 823 417 896 l 417 778 l 691 778 "},"%":{"ha":962,"x_min":24,"x_max":938,"o":"m 748 1119 l 645 1119 l 214 -21 l 319 -21 l 748 1119 m 429 911 q 412 1027 429 989 q 348 1092 396 1065 q 222 1119 300 1119 q 105 1095 153 1119 q 41 1031 58 1070 q 24 911 24 992 l 24 713 q 40 608 24 645 q 102 546 56 572 q 234 519 147 519 q 355 547 309 519 q 415 611 401 574 q 429 722 429 648 l 429 911 m 255 959 l 255 677 q 250 627 255 637 q 227 616 245 616 q 202 625 207 616 q 197 682 197 635 l 197 959 q 203 1012 197 1001 q 227 1023 208 1023 q 251 1013 246 1023 q 255 959 255 1002 m 938 380 q 922 496 938 458 q 858 562 906 534 q 732 589 810 589 q 614 564 662 589 q 550 500 567 539 q 534 380 534 461 l 534 182 q 550 78 534 115 q 611 15 566 41 q 743 -12 657 -12 q 864 16 819 -12 q 924 81 910 43 q 938 191 938 118 l 938 380 m 764 428 l 764 147 q 760 96 764 106 q 736 85 755 85 q 712 95 717 85 q 707 151 707 104 l 707 428 q 712 481 707 471 q 736 492 718 492 q 760 482 755 492 q 764 428 764 471 "},"&":{"ha":800,"x_min":24,"x_max":800,"o":"m 781 417 l 632 321 l 535 496 q 621 693 621 582 q 550 867 621 799 q 358 936 480 936 q 145 866 222 936 q 68 682 68 796 q 176 471 68 549 q 62 388 100 439 q 24 248 24 337 q 89 56 24 136 q 273 -23 153 -23 q 514 61 387 -23 l 547 0 l 800 0 l 704 183 l 781 232 l 781 417 m 359 610 q 308 728 308 664 q 319 773 308 758 q 353 788 331 788 q 391 768 378 788 q 405 725 405 749 q 359 610 405 670 m 420 185 q 344 156 377 156 q 297 175 313 156 q 281 233 281 195 q 332 333 281 287 l 420 185 "},"'":{"ha":257,"x_min":24,"x_max":232,"o":"m 60 745 l 201 745 l 232 930 l 232 1098 l 24 1098 l 24 930 l 60 745 "},"(":{"ha":435,"x_min":57,"x_max":410,"o":"m 410 1098 l 324 1098 q 150 1076 208 1098 q 75 1011 92 1055 q 57 829 57 968 l 57 269 q 75 87 57 130 q 149 22 93 44 q 324 0 205 0 l 410 0 l 410 143 q 334 149 351 143 q 311 174 317 155 q 305 268 305 193 l 305 830 q 313 928 305 911 q 337 950 321 945 q 410 955 354 955 l 410 1098 "},")":{"ha":435,"x_min":24,"x_max":378,"o":"m 24 1098 l 24 955 q 97 950 81 955 q 122 928 114 945 q 130 830 130 911 l 130 268 q 124 174 130 193 q 101 149 117 155 q 24 143 85 143 l 24 0 l 111 0 q 286 22 230 0 q 360 87 342 44 q 378 269 378 130 l 378 829 q 360 1011 378 968 q 285 1076 342 1055 q 111 1098 227 1098 l 24 1098 "},"*":{"ha":390,"x_min":20,"x_max":370,"o":"m 239 1098 l 153 1098 l 153 989 l 50 1023 l 20 943 l 121 905 l 58 812 l 129 762 l 196 852 l 264 762 l 332 812 l 269 901 l 370 943 l 339 1023 l 239 989 l 239 1098 "},"+":{"ha":741,"x_min":43,"x_max":697,"o":"m 43 631 l 43 465 l 287 465 l 287 222 l 452 222 l 452 465 l 697 465 l 697 631 l 452 631 l 452 875 l 287 875 l 287 631 l 43 631 "},",":{"ha":233,"x_min":24,"x_max":208,"o":"m 208 215 l 24 215 l 24 0 l 71 0 q 24 -62 65 -39 l 24 -140 q 126 -94 81 -129 q 190 -10 172 -60 q 208 117 208 39 l 208 215 "},"-":{"ha":409,"x_min":24,"x_max":385,"o":"m 385 545 l 24 545 l 24 355 l 385 355 l 385 545 "},".":{"ha":256,"x_min":24,"x_max":231,"o":"m 231 224 l 24 224 l 24 0 l 231 0 l 231 224 "},"/":{"ha":549,"x_min":8,"x_max":541,"o":"m 541 1119 l 336 1119 l 8 -21 l 216 -21 l 541 1119 "},":":{"ha":281,"x_min":49,"x_max":256,"o":"m 256 715 l 49 715 l 49 492 l 256 492 l 256 715 m 256 224 l 49 224 l 49 0 l 256 0 l 256 224 "},";":{"ha":281,"x_min":49,"x_max":256,"o":"m 256 715 l 49 715 l 49 492 l 256 492 l 256 715 m 244 215 l 60 215 l 60 0 l 106 0 q 60 -62 101 -39 l 60 -140 q 162 -94 117 -129 q 226 -10 208 -60 q 244 117 244 39 l 244 215 "},"<":{"ha":741,"x_min":44,"x_max":696,"o":"m 696 220 l 696 399 l 294 561 l 696 723 l 696 902 l 44 629 l 44 492 l 696 220 "},"=":{"ha":741,"x_min":44,"x_max":696,"o":"m 44 761 l 44 595 l 696 595 l 696 761 l 44 761 m 44 502 l 44 336 l 696 336 l 696 502 l 44 502 "},">":{"ha":741,"x_min":44,"x_max":696,"o":"m 44 902 l 44 722 l 447 561 l 44 399 l 44 220 l 696 492 l 696 631 l 44 902 "},"?":{"ha":729,"x_min":57,"x_max":704,"o":"m 331 744 l 331 810 q 340 934 331 907 q 380 962 349 962 q 413 941 405 962 q 422 860 422 920 l 422 677 q 413 543 422 570 q 370 515 404 515 q 325 578 326 515 l 75 578 l 75 276 l 331 276 l 331 394 q 479 316 380 316 q 613 358 556 316 q 687 456 670 400 q 704 603 704 511 l 704 737 q 686 913 704 857 q 631 1018 669 970 q 528 1094 593 1067 q 378 1121 464 1121 q 181 1071 258 1121 q 81 955 104 1021 q 57 744 58 888 l 331 744 m 331 220 l 75 220 l 75 0 l 331 0 l 331 220 "},"@":{"ha":1076,"x_min":24,"x_max":1053,"o":"m 809 887 l 675 887 l 664 810 q 595 883 635 859 q 507 907 556 907 q 300 775 385 907 q 215 474 215 644 q 276 264 215 342 q 438 185 337 185 q 518 202 485 185 q 598 264 552 220 q 705 186 617 186 q 937 306 821 186 q 1053 633 1053 425 q 988 896 1053 790 q 825 1062 922 1002 q 573 1121 727 1121 q 170 946 315 1121 q 24 517 24 771 q 180 105 24 262 q 567 -51 336 -51 q 832 7 702 -51 q 1051 177 963 64 l 909 177 q 747 82 832 114 q 566 50 661 50 q 249 178 374 50 q 125 524 125 306 q 252 885 125 749 q 576 1020 380 1020 q 849 913 745 1020 q 953 633 953 806 q 917 454 953 531 q 834 339 882 378 q 745 300 786 300 q 720 326 720 300 q 723 350 720 332 l 809 887 m 356 435 q 401 685 356 569 q 528 802 446 802 q 598 764 572 802 q 624 665 624 726 q 595 460 624 568 q 533 318 567 353 q 456 283 500 283 q 383 328 410 283 q 356 435 356 372 "},"A":{"ha":705,"x_min":-8,"x_max":713,"o":"m 550 1098 l 137 1098 l -8 0 l 288 0 l 304 197 l 407 197 l 421 0 l 713 0 l 550 1098 m 399 392 l 301 392 q 355 852 312 538 q 399 392 377 578 "},"B":{"ha":767,"x_min":57,"x_max":722,"o":"m 57 1098 l 57 0 l 387 0 q 615 20 559 0 q 696 93 671 39 q 722 258 722 146 l 722 359 q 686 518 722 467 q 552 593 651 570 q 671 651 641 613 q 701 785 701 689 q 659 992 701 928 q 546 1077 616 1056 q 342 1098 477 1098 l 57 1098 m 342 910 q 402 904 387 909 q 427 878 417 899 q 436 806 436 857 q 425 687 436 708 q 371 667 413 667 q 342 666 361 667 l 342 910 m 342 495 q 421 478 406 493 q 436 393 436 463 l 436 290 q 419 207 436 224 q 342 188 403 190 l 342 495 "},"C":{"ha":769,"x_min":49,"x_max":724,"o":"m 724 619 l 724 724 q 698 950 724 878 q 590 1072 672 1023 q 382 1121 508 1121 q 217 1089 289 1121 q 105 1003 146 1058 q 57 889 65 948 q 49 711 49 829 l 49 390 q 75 148 49 229 q 183 22 102 68 q 390 -23 264 -23 q 593 31 511 -23 q 700 155 675 84 q 724 397 724 227 l 724 439 l 438 439 l 438 302 q 428 187 438 212 q 387 163 418 163 q 344 187 353 163 q 334 292 334 212 l 334 802 q 344 910 334 885 q 389 935 353 935 q 429 915 420 935 q 438 810 438 894 l 438 619 l 724 619 "},"D":{"ha":768,"x_min":57,"x_max":718,"o":"m 57 1098 l 57 0 l 417 0 q 570 11 519 0 q 656 51 621 22 q 704 129 690 79 q 718 326 718 178 l 718 711 q 709 920 718 867 q 661 1017 699 973 q 550 1079 623 1060 q 271 1098 477 1098 l 57 1098 m 342 910 q 406 900 389 910 q 428 869 423 890 q 433 774 433 848 l 433 347 q 418 213 433 237 q 342 188 404 188 l 342 910 "},"E":{"ha":577,"x_min":57,"x_max":552,"o":"m 57 1098 l 57 0 l 552 0 l 552 220 l 342 220 l 342 461 l 521 461 l 521 670 l 342 670 l 342 878 l 533 878 l 533 1098 l 57 1098 "},"F":{"ha":553,"x_min":57,"x_max":541,"o":"m 57 1098 l 57 0 l 342 0 l 342 461 l 519 461 l 519 670 l 342 670 l 342 878 l 541 878 l 541 1098 l 57 1098 "},"G":{"ha":766,"x_min":49,"x_max":712,"o":"m 712 694 l 712 741 q 687 947 712 876 q 579 1069 662 1018 q 371 1121 496 1121 q 163 1062 243 1121 q 66 931 83 1002 q 49 703 49 860 l 49 376 q 57 207 49 263 q 98 98 65 150 q 193 12 130 47 q 328 -23 256 -23 q 432 2 388 -23 q 506 79 477 28 l 532 0 l 712 0 l 712 589 l 378 589 l 378 422 l 435 422 l 435 292 q 424 189 435 216 q 382 163 413 163 q 344 186 353 163 q 334 283 334 210 l 334 810 q 344 915 334 895 q 380 935 353 935 q 418 911 410 935 q 427 793 427 888 l 427 694 l 712 694 "},"H":{"ha":771,"x_min":57,"x_max":713,"o":"m 713 1098 l 428 1098 l 428 705 l 342 705 l 342 1098 l 57 1098 l 57 0 l 342 0 l 342 461 l 428 461 l 428 0 l 713 0 l 713 1098 "},"I":{"ha":400,"x_min":57,"x_max":342,"o":"m 342 1098 l 57 1098 l 57 0 l 342 0 l 342 1098 "},"J":{"ha":460,"x_min":12,"x_max":406,"o":"m 406 1098 l 121 1098 l 121 326 q 118 241 121 263 q 98 205 115 220 q 50 190 80 190 q 12 192 38 190 l 12 0 l 155 0 q 297 15 250 0 q 372 67 345 29 q 403 152 399 105 q 406 364 406 199 l 406 1098 "},"K":{"ha":745,"x_min":57,"x_max":753,"o":"m 737 1098 l 469 1098 l 342 671 l 342 1098 l 57 1098 l 57 0 l 342 0 l 342 471 l 458 0 l 753 0 l 574 602 l 737 1098 "},"L":{"ha":528,"x_min":57,"x_max":516,"o":"m 342 1098 l 57 1098 l 57 0 l 516 0 l 516 220 l 342 220 l 342 1098 "},"M":{"ha":996,"x_min":57,"x_max":938,"o":"m 938 1098 l 566 1098 l 500 585 l 461 865 q 427 1098 443 999 l 57 1098 l 57 0 l 307 0 l 307 724 l 412 0 l 589 0 l 688 741 l 688 0 l 938 0 l 938 1098 "},"N":{"ha":752,"x_min":57,"x_max":694,"o":"m 694 1098 l 456 1098 l 456 604 l 296 1098 l 57 1098 l 57 0 l 296 0 l 296 499 l 444 0 l 694 0 l 694 1098 "},"O":{"ha":759,"x_min":49,"x_max":709,"o":"m 709 455 l 709 643 q 701 880 709 812 q 650 1006 693 948 q 537 1092 608 1063 q 379 1121 467 1121 q 216 1090 286 1121 q 105 1003 146 1060 q 57 877 64 946 q 49 643 49 808 l 49 455 q 57 218 49 286 q 108 92 65 150 q 221 6 151 35 q 379 -23 291 -23 q 542 7 472 -23 q 653 95 612 38 q 702 221 694 152 q 709 455 709 290 m 424 816 l 424 311 q 416 189 424 214 q 378 163 408 163 q 342 185 350 163 q 334 303 334 208 l 334 816 q 346 918 334 901 q 380 935 358 935 q 415 914 407 935 q 424 816 424 892 "},"P":{"ha":697,"x_min":57,"x_max":672,"o":"m 57 1098 l 57 0 l 342 0 l 342 442 l 419 442 q 571 468 513 442 q 650 542 629 494 q 672 695 672 590 l 672 791 q 661 943 672 894 q 618 1027 650 992 q 524 1080 587 1061 q 345 1098 461 1098 l 57 1098 m 342 910 q 416 893 398 910 q 433 820 433 876 l 433 730 q 418 649 433 669 q 363 630 403 630 q 342 631 355 630 l 342 910 "},"Q":{"ha":759,"x_min":49,"x_max":710,"o":"m 710 0 l 611 0 q 548 9 562 0 q 533 56 535 19 q 641 103 600 72 q 695 186 681 134 q 709 385 709 238 l 709 741 q 698 902 709 848 q 650 1006 687 956 q 538 1088 613 1056 q 368 1121 463 1121 q 223 1095 288 1121 q 117 1016 158 1068 q 62 906 75 964 q 49 735 49 847 l 49 395 q 71 173 49 248 q 163 51 94 99 q 330 0 233 3 q 341 -85 330 -62 q 385 -121 353 -109 q 494 -133 416 -133 l 710 -133 l 710 0 m 424 816 l 424 311 q 416 189 424 214 q 378 163 408 163 q 342 185 350 163 q 334 303 334 208 l 334 816 q 346 918 334 901 q 380 935 358 935 q 415 914 407 935 q 424 816 424 892 "},"R":{"ha":748,"x_min":57,"x_max":694,"o":"m 57 1098 l 57 0 l 342 0 l 342 495 q 415 474 401 495 q 429 365 429 453 l 429 0 l 694 0 l 694 290 q 687 452 694 422 q 651 517 680 481 q 537 573 622 552 q 663 626 631 582 q 694 798 694 670 q 649 1003 694 939 q 533 1082 604 1067 q 259 1098 461 1098 l 57 1098 m 342 910 q 411 894 392 910 q 429 825 429 878 l 429 765 q 410 679 429 692 q 342 666 391 666 l 342 910 "},"S":{"ha":718,"x_min":33,"x_max":686,"o":"m 662 766 l 662 809 q 636 995 662 940 q 533 1085 611 1049 q 343 1121 454 1121 q 170 1088 241 1121 q 65 997 98 1055 q 33 812 33 939 q 56 669 33 725 q 113 581 79 612 q 254 478 148 549 q 388 378 361 408 q 414 252 414 349 q 400 185 414 208 q 358 163 387 163 q 318 180 330 163 q 307 260 307 198 l 307 393 l 42 393 l 42 321 q 67 131 42 198 q 173 20 92 64 q 369 -23 254 -23 q 552 15 473 -23 q 658 108 631 52 q 686 281 686 163 q 636 515 686 442 q 396 701 587 587 q 315 768 330 740 q 300 850 300 795 q 314 914 300 893 q 353 935 327 935 q 387 920 376 935 q 397 847 397 904 l 397 766 l 662 766 "},"T":{"ha":640,"x_min":8,"x_max":632,"o":"m 632 1098 l 8 1098 l 8 878 l 177 878 l 177 0 l 463 0 l 463 878 l 632 878 l 632 1098 "},"U":{"ha":760,"x_min":53,"x_max":706,"o":"m 706 1098 l 420 1098 l 420 289 q 413 185 420 207 q 378 163 405 163 q 346 183 354 163 q 338 275 338 203 l 338 1098 l 53 1098 l 53 448 q 60 204 53 262 q 104 94 66 146 q 216 9 141 42 q 390 -23 292 -23 q 544 4 479 -23 q 650 85 610 32 q 698 189 690 138 q 706 364 706 239 l 706 1098 "},"V":{"ha":727,"x_min":-8,"x_max":735,"o":"m 735 1098 l 434 1098 l 414 894 q 368 331 390 648 q 293 1098 345 644 l -8 1098 l 157 0 l 590 0 l 735 1098 "},"W":{"ha":1131,"x_min":0,"x_max":1131,"o":"m 1131 1098 l 854 1098 q 774 319 798 717 l 743 736 q 712 1098 718 1050 l 415 1098 q 336 345 352 632 l 307 715 l 277 1098 l 0 1098 l 127 0 l 482 0 q 562 575 545 437 q 648 0 599 253 l 1004 0 l 1131 1098 "},"X":{"ha":670,"x_min":0,"x_max":686,"o":"m 635 1098 l 396 1098 l 335 799 q 306 947 323 866 q 276 1098 283 1053 l 0 1098 l 103 612 l 0 0 l 278 0 l 305 179 q 335 399 324 296 q 422 0 374 164 l 686 0 l 536 612 l 635 1098 "},"Y":{"ha":657,"x_min":-8,"x_max":665,"o":"m 665 1098 l 403 1098 q 323 666 347 842 q 254 1098 316 777 l -8 1098 l 193 397 l 193 0 l 457 0 l 457 397 l 665 1098 "},"Z":{"ha":551,"x_min":8,"x_max":534,"o":"m 534 1098 l 34 1098 l 34 878 l 228 878 l 8 159 l 8 0 l 534 0 l 534 220 l 321 220 l 534 878 l 534 1098 "},"[":{"ha":392,"x_min":57,"x_max":367,"o":"m 367 1098 l 57 1098 l 57 0 l 367 0 l 367 169 l 305 169 l 305 929 l 367 929 l 367 1098 "},"\\":{"ha":549,"x_min":8,"x_max":541,"o":"m 8 1119 l 334 -21 l 541 -21 l 214 1119 l 8 1119 "},"]":{"ha":392,"x_min":24,"x_max":334,"o":"m 24 0 l 334 0 l 334 1098 l 24 1098 l 24 929 l 86 929 l 86 169 l 24 169 l 24 0 "},"^":{"ha":671,"x_min":8,"x_max":663,"o":"m 8 556 l 202 556 l 336 888 l 470 556 l 663 556 l 414 1098 l 263 1098 l 8 556 "},"_":{"ha":767,"x_min":-8,"x_max":775,"o":"m -8 -104 l -8 -174 l 775 -174 l 775 -104 l -8 -104 "},"`":{"ha":463,"x_min":0,"x_max":361,"o":"m 0 1202 l 223 1018 l 361 1018 l 241 1202 l 0 1202 "},"a":{"ha":700,"x_min":37,"x_max":654,"o":"m 294 551 l 294 646 q 300 739 294 721 q 335 757 307 757 q 370 735 359 757 q 380 644 380 714 q 371 569 380 587 q 227 498 361 551 q 68 412 100 449 q 37 275 37 376 l 37 201 q 97 24 37 64 q 229 -16 157 -16 q 323 8 283 -16 q 388 80 363 32 l 388 0 l 654 0 l 654 452 q 640 746 654 675 q 555 867 626 818 q 346 916 485 916 q 157 873 230 916 q 61 773 85 829 q 37 612 37 716 l 37 551 l 294 551 m 380 428 l 380 243 q 373 159 380 175 q 339 143 365 143 q 303 163 312 143 q 294 254 294 184 q 304 347 294 315 q 380 428 315 380 "},"b":{"ha":722,"x_min":49,"x_max":680,"o":"m 323 1098 l 49 1098 l 49 0 l 305 0 l 323 68 q 399 5 357 26 q 489 -16 441 -16 q 605 19 556 -16 q 667 103 654 55 q 680 251 680 152 l 680 656 q 676 787 680 756 q 650 849 671 817 q 587 899 628 881 q 489 916 545 916 q 398 897 440 916 q 323 838 357 878 l 323 1098 m 406 644 l 406 265 q 398 164 406 185 q 365 143 391 143 q 331 163 340 143 q 323 256 323 184 l 323 644 q 330 738 323 720 q 363 757 338 757 q 397 735 389 757 q 406 644 406 714 "},"c":{"ha":687,"x_min":41,"x_max":654,"o":"m 654 560 q 629 756 654 687 q 528 871 604 825 q 345 916 452 916 q 162 870 237 916 q 64 766 87 825 q 41 593 41 708 l 41 338 q 69 135 41 206 q 165 23 97 63 q 349 -16 233 -16 q 501 13 439 -16 q 601 98 563 41 q 647 209 640 155 q 654 370 654 262 l 410 370 l 410 263 q 400 168 410 193 q 363 143 391 143 q 327 167 339 143 q 315 239 315 191 l 315 664 q 323 740 315 723 q 355 757 331 757 q 387 738 378 757 q 396 664 396 718 l 396 560 l 654 560 "},"d":{"ha":722,"x_min":41,"x_max":672,"o":"m 672 1098 l 398 1098 l 398 843 q 321 898 363 880 q 228 916 279 916 q 115 883 162 916 q 54 807 67 850 q 41 660 41 764 l 41 239 q 54 95 41 139 q 114 17 67 51 q 224 -16 161 -16 q 315 4 272 -16 q 398 65 359 24 l 398 0 l 672 0 l 672 1098 m 398 673 l 398 257 q 389 162 398 182 q 354 143 380 143 q 323 160 331 143 q 315 233 315 178 l 315 673 q 323 742 315 726 q 356 757 332 757 q 390 740 381 757 q 398 673 398 723 "},"e":{"ha":710,"x_min":41,"x_max":669,"o":"m 669 434 l 669 553 q 639 756 669 684 q 534 872 609 829 q 344 916 459 916 q 177 880 250 916 q 73 775 104 844 q 41 589 41 707 l 41 327 q 55 174 41 227 q 106 78 69 121 q 210 9 143 34 q 363 -16 276 -16 q 512 9 452 -16 q 610 85 571 35 q 659 181 648 136 q 669 309 669 226 l 669 376 l 410 376 l 410 257 q 399 166 410 190 q 357 143 389 143 q 323 161 332 143 q 315 239 315 178 l 315 434 l 669 434 m 395 581 l 315 581 l 315 646 q 321 740 315 722 q 357 757 328 757 q 387 736 380 757 q 395 646 395 716 l 395 581 "},"f":{"ha":401,"x_min":3,"x_max":398,"o":"m 398 1098 l 298 1098 q 163 1086 206 1098 q 95 1050 119 1074 q 65 997 71 1027 q 59 878 59 967 l 3 878 l 3 736 l 59 736 l 59 0 l 333 0 l 333 736 l 398 736 l 398 878 l 283 878 l 283 907 q 298 951 283 943 q 398 959 313 959 l 398 1098 "},"g":{"ha":720,"x_min":41,"x_max":671,"o":"m 671 900 l 416 900 l 397 832 q 321 895 363 874 q 227 916 279 916 q 87 860 133 916 q 41 675 41 804 l 41 349 q 58 211 41 259 q 124 132 76 162 q 245 102 172 102 q 327 119 288 102 q 401 167 366 135 l 401 99 q 391 22 401 41 q 350 4 381 4 q 307 64 307 4 l 41 64 q 123 -111 43 -66 q 333 -155 202 -155 q 510 -131 439 -155 q 619 -61 580 -107 q 665 25 659 -16 q 671 207 671 66 l 671 900 m 397 661 l 397 382 q 389 284 397 306 q 353 262 380 262 q 322 280 330 262 q 315 359 315 298 l 315 661 q 325 738 315 718 q 358 757 334 757 q 390 740 382 757 q 397 661 397 723 "},"h":{"ha":728,"x_min":49,"x_max":682,"o":"m 323 1098 l 49 1098 l 49 0 l 323 0 l 323 642 q 332 734 323 711 q 366 757 340 757 q 400 734 393 757 q 408 633 408 712 l 408 0 l 682 0 l 682 621 q 671 795 682 747 q 609 880 660 843 q 487 916 559 916 q 399 900 440 916 q 323 851 358 884 l 323 1098 "},"i":{"ha":380,"x_min":49,"x_max":331,"o":"m 331 1098 l 49 1098 l 49 955 l 331 955 l 331 1098 m 331 900 l 49 900 l 49 0 l 331 0 l 331 900 "},"j":{"ha":389,"x_min":-4,"x_max":339,"o":"m 339 1098 l 57 1098 l 57 955 l 339 955 l 339 1098 m 339 900 l 57 900 l 57 164 q 51 28 57 39 q -4 18 45 18 l -4 -126 l 102 -126 q 233 -110 189 -126 q 303 -60 277 -94 q 334 18 329 -26 q 339 188 339 62 l 339 900 "},"k":{"ha":664,"x_min":49,"x_max":672,"o":"m 639 900 l 408 900 l 323 637 l 323 1098 l 49 1098 l 49 0 l 323 0 l 323 392 l 408 0 l 672 0 l 528 541 l 639 900 "},"l":{"ha":380,"x_min":49,"x_max":331,"o":"m 331 1098 l 49 1098 l 49 0 l 331 0 l 331 1098 "},"m":{"ha":1071,"x_min":49,"x_max":1025,"o":"m 319 900 l 49 900 l 49 0 l 315 0 l 315 624 q 316 709 315 689 q 330 743 317 729 q 361 757 343 757 q 397 730 391 757 q 404 572 404 704 l 404 0 l 669 0 l 669 587 q 678 730 669 703 q 715 757 686 757 q 752 729 744 757 q 760 587 760 702 l 760 0 l 1025 0 l 1025 640 q 1013 799 1025 750 q 954 882 1000 848 q 838 916 908 916 q 742 891 785 916 q 664 814 699 865 q 491 916 601 916 q 391 891 435 916 q 315 814 347 865 l 319 900 "},"n":{"ha":726,"x_min":49,"x_max":681,"o":"m 328 900 l 49 900 l 49 0 l 323 0 l 323 608 q 330 733 323 710 q 367 757 338 757 q 401 736 395 757 q 407 623 407 716 l 407 0 l 681 0 l 681 631 q 668 799 681 749 q 610 883 655 850 q 495 916 566 916 q 396 891 439 916 q 323 817 353 867 l 328 900 "},"o":{"ha":710,"x_min":41,"x_max":669,"o":"m 669 584 q 655 726 669 680 q 606 817 642 773 q 504 889 570 861 q 346 916 438 916 q 165 873 236 916 q 68 760 95 831 q 41 564 41 690 l 41 334 q 56 162 41 219 q 105 64 71 104 q 203 4 140 24 q 357 -16 267 -16 q 502 7 439 -16 q 604 80 564 31 q 656 185 644 129 q 669 363 669 242 l 669 584 m 395 652 l 395 237 q 387 161 395 178 q 355 143 379 143 q 323 162 331 143 q 315 245 315 182 l 315 652 q 323 739 315 721 q 355 757 331 757 q 387 739 380 757 q 395 652 395 721 "},"p":{"ha":721,"x_min":49,"x_max":680,"o":"m 328 900 l 49 900 l 49 -128 l 323 -128 l 323 78 q 402 7 359 31 q 496 -16 446 -16 q 605 15 560 -16 q 665 97 650 45 q 680 272 680 149 l 680 651 q 668 803 680 758 q 610 882 656 848 q 500 916 564 916 q 404 892 448 916 q 323 821 359 869 l 328 900 m 406 638 l 406 252 q 399 162 406 180 q 366 143 393 143 q 331 163 339 143 q 323 265 323 184 l 323 638 q 331 736 323 716 q 366 757 338 757 q 399 739 393 757 q 406 638 406 722 "},"q":{"ha":720,"x_min":41,"x_max":670,"o":"m 670 900 l 401 900 l 396 823 q 317 893 360 870 q 222 916 273 916 q 112 883 158 916 q 53 804 65 849 q 41 667 41 759 l 41 271 q 57 105 41 159 q 120 18 73 52 q 239 -16 168 -16 q 322 -1 289 -16 q 396 73 356 14 l 396 -128 l 670 -128 l 670 900 m 396 655 l 396 250 q 388 163 396 183 q 356 143 380 143 q 323 162 331 143 q 315 254 315 182 l 315 655 q 323 739 315 720 q 354 757 331 757 q 387 736 378 757 q 396 655 396 715 "},"r":{"ha":497,"x_min":49,"x_max":485,"o":"m 323 900 l 49 900 l 49 0 l 323 0 l 323 355 q 331 523 323 486 q 374 579 339 559 q 485 600 410 600 l 485 916 q 312 782 372 909 l 323 900 "},"s":{"ha":654,"x_min":28,"x_max":629,"o":"m 608 612 l 608 665 q 601 764 608 732 q 561 833 594 796 q 464 893 527 871 q 312 916 401 916 q 154 888 222 916 q 57 809 85 861 q 28 650 28 758 q 55 519 28 574 q 202 396 81 464 q 361 300 346 316 q 376 219 376 283 q 365 158 376 172 q 324 143 353 143 q 288 165 297 143 q 279 259 279 186 l 279 316 l 36 316 l 36 273 q 64 104 36 160 q 166 16 92 49 q 345 -16 240 -16 q 506 14 439 -16 q 601 100 572 44 q 629 266 629 156 q 592 416 629 364 q 435 526 555 467 q 317 593 346 570 q 282 635 288 616 q 277 696 277 654 q 288 742 277 726 q 323 757 300 757 q 358 740 351 757 q 366 661 366 724 l 366 612 l 608 612 "},"t":{"ha":423,"x_min":4,"x_max":423,"o":"m 338 1020 l 63 1020 l 63 878 l 4 878 l 4 736 l 63 736 l 63 279 q 71 108 63 144 q 109 44 78 72 q 179 8 139 16 q 313 0 219 0 l 423 0 l 423 145 q 347 155 356 145 q 338 254 338 165 l 338 736 l 412 736 l 412 878 l 338 878 l 338 1020 "},"u":{"ha":726,"x_min":45,"x_max":676,"o":"m 676 900 l 402 900 l 402 294 q 396 163 402 184 q 360 143 391 143 q 325 163 332 143 q 319 288 319 182 l 319 900 l 45 900 l 45 293 q 50 138 45 177 q 74 63 54 99 q 134 5 93 27 q 236 -16 174 -16 q 332 6 290 -16 q 402 75 374 29 l 397 0 l 676 0 l 676 900 "},"v":{"ha":607,"x_min":-8,"x_max":615,"o":"m 615 900 l 370 900 q 343 596 355 753 q 313 243 322 315 l 237 900 l -8 900 l 130 0 l 487 0 l 615 900 "},"w":{"ha":930,"x_min":-4,"x_max":934,"o":"m 934 900 l 698 900 q 635 385 648 610 l 580 900 l 353 900 q 292 385 296 434 q 232 900 235 865 l -4 900 l 112 0 l 410 0 l 440 195 q 471 434 460 316 q 527 0 503 165 l 825 0 l 934 900 "},"x":{"ha":602,"x_min":0,"x_max":614,"o":"m 591 900 l 348 900 q 288 587 328 817 q 229 900 284 625 l 0 900 l 118 470 l 0 0 l 229 0 q 288 306 261 146 q 348 0 309 178 l 614 0 l 482 470 l 591 900 "},"y":{"ha":623,"x_min":-8,"x_max":623,"o":"m 623 900 l 374 900 l 330 293 l 241 900 l -8 900 l 142 147 q 159 53 159 64 q 140 24 159 31 q 58 18 122 18 l 58 -126 l 224 -126 q 390 -109 338 -126 q 471 -55 442 -92 q 513 38 500 -18 q 544 249 526 94 l 623 900 "},"z":{"ha":488,"x_min":8,"x_max":475,"o":"m 475 900 l 29 900 l 29 720 l 215 720 l 8 189 l 8 0 l 475 0 l 475 180 l 273 180 l 475 701 l 475 900 "},"{":{"ha":513,"x_min":24,"x_max":488,"o":"m 24 365 q 127 330 100 362 q 163 259 154 298 q 173 82 173 220 q 199 -100 173 -43 q 285 -181 226 -156 q 452 -205 344 -205 l 488 -205 l 488 -43 q 382 -28 405 -43 q 353 15 359 -14 l 342 212 q 310 359 338 308 q 222 446 283 410 q 310 531 286 487 q 339 625 333 576 q 350 836 346 673 q 371 916 351 895 q 488 936 390 936 l 488 1098 l 452 1098 q 307 1081 358 1098 q 222 1027 255 1065 q 181 935 190 990 q 173 765 173 880 q 136 571 173 614 q 24 528 98 528 l 24 365 "},"|":{"ha":376,"x_min":115,"x_max":262,"o":"m 115 1098 l 115 -180 l 262 -180 l 262 1098 l 115 1098 "},"}":{"ha":513,"x_min":24,"x_max":488,"o":"m 488 365 l 488 528 q 388 561 414 530 q 350 629 361 592 q 340 810 340 667 q 313 992 340 936 q 228 1073 287 1048 q 60 1098 169 1098 l 24 1098 l 24 936 q 130 924 109 936 q 156 895 151 911 q 165 761 161 878 q 178 601 170 644 q 209 521 186 557 q 290 446 232 484 q 210 372 235 414 q 176 280 184 329 q 163 57 168 231 q 141 -23 162 -3 q 25 -43 119 -43 l 25 -205 l 61 -205 q 207 -189 155 -205 q 291 -135 258 -172 q 332 -42 323 -98 q 340 128 340 13 q 377 321 340 277 q 488 365 414 364 "},"~":{"ha":729,"x_min":39,"x_max":690,"o":"m 690 534 l 690 720 q 573 629 608 647 q 507 611 538 611 q 392 650 473 611 q 235 697 292 697 q 39 610 138 697 l 39 422 q 228 532 154 532 q 324 500 258 532 q 498 445 439 445 q 690 534 583 445 "},"Ä":{"ha":705,"x_min":-8,"x_max":713,"o":"m 550 1098 l 137 1098 l -8 0 l 288 0 l 304 197 l 407 197 l 421 0 l 713 0 l 550 1098 m 399 392 l 301 392 q 355 852 312 538 q 399 392 377 578 m 284 1309 l 107 1309 l 107 1133 l 284 1133 l 284 1309 m 581 1309 l 404 1309 l 404 1133 l 581 1133 l 581 1309 "},"Å":{"ha":705,"x_min":-8,"x_max":713,"o":"m 550 1098 l 137 1098 l -8 0 l 288 0 l 304 197 l 407 197 l 421 0 l 713 0 l 550 1098 m 399 392 l 301 392 q 355 852 312 538 q 399 392 377 578 m 344 1401 q 243 1359 285 1401 q 201 1258 201 1317 q 242 1157 201 1199 q 344 1116 284 1116 q 444 1157 402 1116 q 486 1258 486 1199 q 444 1360 486 1319 q 344 1401 401 1401 m 342 1312 q 382 1295 366 1312 q 399 1255 399 1279 q 382 1216 399 1232 q 342 1200 366 1200 q 303 1216 320 1200 q 287 1255 287 1232 q 303 1295 287 1279 q 342 1312 320 1312 "},"Ç":{"ha":769,"x_min":49,"x_max":724,"o":"m 411 -22 q 611 43 536 -15 q 705 170 686 101 q 724 397 724 239 l 724 439 l 438 439 l 438 302 q 428 187 438 212 q 387 163 418 163 q 344 187 353 163 q 334 292 334 212 l 334 802 q 344 910 334 885 q 389 935 353 935 q 429 915 420 935 q 438 810 438 894 l 438 619 l 724 619 l 724 724 q 698 950 724 878 q 590 1072 672 1023 q 382 1121 508 1121 q 217 1089 289 1121 q 105 1003 146 1058 q 57 889 65 948 q 49 711 49 829 l 49 390 q 67 172 49 248 q 151 44 86 96 q 332 -20 216 -9 l 332 -87 l 349 -87 q 392 -99 378 -87 q 406 -132 406 -110 q 396 -163 406 -153 q 366 -173 386 -173 q 332 -144 341 -173 l 231 -144 q 366 -252 260 -252 q 467 -214 425 -252 q 509 -125 509 -176 q 478 -59 509 -83 q 411 -35 448 -35 l 411 -22 "},"É":{"ha":577,"x_min":57,"x_max":552,"o":"m 57 1098 l 57 0 l 552 0 l 552 220 l 342 220 l 342 461 l 521 461 l 521 670 l 342 670 l 342 878 l 533 878 l 533 1098 l 57 1098 m 519 1316 l 278 1316 l 159 1133 l 296 1133 l 519 1316 "},"Ñ":{"ha":752,"x_min":57,"x_max":694,"o":"m 694 1098 l 456 1098 l 456 604 l 296 1098 l 57 1098 l 57 0 l 296 0 l 296 499 l 444 0 l 694 0 l 694 1098 m 662 1261 l 553 1339 q 478 1278 534 1278 q 406 1298 459 1278 l 364 1314 q 258 1335 307 1335 q 90 1204 164 1335 l 197 1133 q 279 1200 229 1200 q 351 1181 303 1200 l 401 1161 q 505 1139 457 1139 q 585 1166 540 1139 q 662 1261 631 1193 "},"Ö":{"ha":759,"x_min":49,"x_max":709,"o":"m 709 455 l 709 643 q 701 880 709 812 q 650 1006 693 948 q 537 1092 608 1063 q 379 1121 467 1121 q 216 1090 286 1121 q 105 1003 146 1060 q 57 877 64 946 q 49 643 49 808 l 49 455 q 57 218 49 286 q 108 92 65 150 q 221 6 151 35 q 379 -23 291 -23 q 542 7 472 -23 q 653 95 612 38 q 702 221 694 152 q 709 455 709 290 m 424 816 l 424 311 q 416 189 424 214 q 378 163 408 163 q 342 185 350 163 q 334 303 334 208 l 334 816 q 346 918 334 901 q 380 935 358 935 q 415 914 407 935 q 424 816 424 892 m 319 1309 l 142 1309 l 142 1133 l 319 1133 l 319 1309 m 616 1309 l 439 1309 l 439 1133 l 616 1133 l 616 1309 "},"Ü":{"ha":760,"x_min":53,"x_max":706,"o":"m 706 1098 l 420 1098 l 420 289 q 413 185 420 207 q 378 163 405 163 q 346 183 354 163 q 338 275 338 203 l 338 1098 l 53 1098 l 53 448 q 60 204 53 262 q 104 94 66 146 q 216 9 141 42 q 390 -23 292 -23 q 544 4 479 -23 q 650 85 610 32 q 698 189 690 138 q 706 364 706 239 l 706 1098 m 320 1309 l 143 1309 l 143 1133 l 320 1133 l 320 1309 m 616 1309 l 439 1309 l 439 1133 l 616 1133 l 616 1309 "},"á":{"ha":700,"x_min":37,"x_max":654,"o":"m 294 551 l 294 646 q 300 739 294 721 q 335 757 307 757 q 370 735 359 757 q 380 644 380 714 q 371 569 380 587 q 227 498 361 551 q 68 412 100 449 q 37 275 37 376 l 37 201 q 97 24 37 64 q 229 -16 157 -16 q 323 8 283 -16 q 388 80 363 32 l 388 0 l 654 0 l 654 452 q 640 746 654 675 q 555 867 626 818 q 346 916 485 916 q 157 873 230 916 q 61 773 85 829 q 37 612 37 716 l 37 551 l 294 551 m 380 428 l 380 243 q 373 159 380 175 q 339 143 365 143 q 303 163 312 143 q 294 254 294 184 q 304 347 294 315 q 380 428 315 380 m 581 1144 l 340 1144 l 220 960 l 358 960 l 581 1144 "},"à":{"ha":700,"x_min":37,"x_max":654,"o":"m 294 551 l 294 646 q 300 739 294 721 q 335 757 307 757 q 370 735 359 757 q 380 644 380 714 q 371 569 380 587 q 227 498 361 551 q 68 412 100 449 q 37 275 37 376 l 37 201 q 97 24 37 64 q 229 -16 157 -16 q 323 8 283 -16 q 388 80 363 32 l 388 0 l 654 0 l 654 452 q 640 746 654 675 q 555 867 626 818 q 346 916 485 916 q 157 873 230 916 q 61 773 85 829 q 37 612 37 716 l 37 551 l 294 551 m 380 428 l 380 243 q 373 159 380 175 q 339 143 365 143 q 303 163 312 143 q 294 254 294 184 q 304 347 294 315 q 380 428 315 380 m 118 1144 l 341 960 l 479 960 l 359 1144 l 118 1144 "},"â":{"ha":700,"x_min":37,"x_max":654,"o":"m 294 551 l 294 646 q 300 739 294 721 q 335 757 307 757 q 370 735 359 757 q 380 644 380 714 q 371 569 380 587 q 227 498 361 551 q 68 412 100 449 q 37 275 37 376 l 37 201 q 97 24 37 64 q 229 -16 157 -16 q 323 8 283 -16 q 388 80 363 32 l 388 0 l 654 0 l 654 452 q 640 746 654 675 q 555 867 626 818 q 346 916 485 916 q 157 873 230 916 q 61 773 85 829 q 37 612 37 716 l 37 551 l 294 551 m 380 428 l 380 243 q 373 159 380 175 q 339 143 365 143 q 303 163 312 143 q 294 254 294 184 q 304 347 294 315 q 380 428 315 380 m 355 1049 l 431 960 l 614 960 l 451 1152 l 260 1152 l 85 960 l 275 960 l 355 1049 "},"ä":{"ha":700,"x_min":37,"x_max":654,"o":"m 294 551 l 294 646 q 300 739 294 721 q 335 757 307 757 q 370 735 359 757 q 380 644 380 714 q 371 569 380 587 q 227 498 361 551 q 68 412 100 449 q 37 275 37 376 l 37 201 q 97 24 37 64 q 229 -16 157 -16 q 323 8 283 -16 q 388 80 363 32 l 388 0 l 654 0 l 654 452 q 640 746 654 675 q 555 867 626 818 q 346 916 485 916 q 157 873 230 916 q 61 773 85 829 q 37 612 37 716 l 37 551 l 294 551 m 380 428 l 380 243 q 373 159 380 175 q 339 143 365 143 q 303 163 312 143 q 294 254 294 184 q 304 347 294 315 q 380 428 315 380 m 290 1137 l 113 1137 l 113 960 l 290 960 l 290 1137 m 587 1137 l 410 1137 l 410 960 l 587 960 l 587 1137 "},"ã":{"ha":700,"x_min":37,"x_max":654,"o":"m 294 551 l 294 646 q 300 739 294 721 q 335 757 307 757 q 370 735 359 757 q 380 644 380 714 q 371 569 380 587 q 227 498 361 551 q 68 412 100 449 q 37 275 37 376 l 37 201 q 97 24 37 64 q 229 -16 157 -16 q 323 8 283 -16 q 388 80 363 32 l 388 0 l 654 0 l 654 452 q 640 746 654 675 q 555 867 626 818 q 346 916 485 916 q 157 873 230 916 q 61 773 85 829 q 37 612 37 716 l 37 551 l 294 551 m 380 428 l 380 243 q 373 159 380 175 q 339 143 365 143 q 303 163 312 143 q 294 254 294 184 q 304 347 294 315 q 380 428 315 380 m 636 1089 l 527 1167 q 452 1106 509 1106 q 380 1126 433 1106 l 338 1141 q 232 1163 281 1163 q 64 1031 138 1163 l 171 960 q 254 1028 203 1028 q 326 1008 277 1028 l 376 989 q 479 966 431 966 q 559 994 514 966 q 636 1089 605 1021 "},"å":{"ha":700,"x_min":37,"x_max":654,"o":"m 294 551 l 294 646 q 300 739 294 721 q 335 757 307 757 q 370 735 359 757 q 380 644 380 714 q 371 569 380 587 q 227 498 361 551 q 68 412 100 449 q 37 275 37 376 l 37 201 q 97 24 37 64 q 229 -16 157 -16 q 323 8 283 -16 q 388 80 363 32 l 388 0 l 654 0 l 654 452 q 640 746 654 675 q 555 867 626 818 q 346 916 485 916 q 157 873 230 916 q 61 773 85 829 q 37 612 37 716 l 37 551 l 294 551 m 380 428 l 380 243 q 373 159 380 175 q 339 143 365 143 q 303 163 312 143 q 294 254 294 184 q 304 347 294 315 q 380 428 315 380 m 350 1246 q 249 1204 291 1246 q 207 1103 207 1162 q 249 1002 207 1044 q 350 960 290 960 q 450 1002 408 960 q 492 1103 492 1044 q 450 1205 492 1164 q 350 1246 407 1246 m 349 1156 q 388 1140 372 1156 q 405 1100 405 1124 q 388 1061 405 1077 q 349 1044 372 1044 q 310 1061 326 1044 q 293 1100 293 1077 q 310 1140 293 1124 q 349 1156 326 1156 "},"ç":{"ha":687,"x_min":41,"x_max":654,"o":"m 370 -16 q 517 21 461 -10 q 608 108 573 52 q 648 217 642 163 q 654 370 654 270 l 410 370 l 410 263 q 400 168 410 193 q 363 143 391 143 q 327 167 339 143 q 315 239 315 191 l 315 664 q 323 740 315 723 q 355 757 331 757 q 387 738 378 757 q 396 664 396 718 l 396 560 l 654 560 q 629 756 654 687 q 528 871 604 825 q 345 916 452 916 q 162 870 237 916 q 64 766 87 825 q 41 593 41 708 l 41 338 q 64 146 41 210 q 138 41 87 83 q 291 -13 189 -1 l 291 -87 l 309 -87 q 351 -99 337 -87 q 365 -132 365 -110 q 355 -163 365 -153 q 325 -173 345 -173 q 291 -144 300 -173 l 191 -144 q 326 -252 220 -252 q 426 -214 384 -252 q 468 -125 468 -176 q 437 -59 468 -83 q 370 -35 406 -35 l 370 -16 "},"é":{"ha":710,"x_min":41,"x_max":669,"o":"m 669 434 l 669 553 q 639 756 669 684 q 534 872 609 829 q 344 916 459 916 q 177 880 250 916 q 73 775 104 844 q 41 589 41 707 l 41 327 q 55 174 41 227 q 106 78 69 121 q 210 9 143 34 q 363 -16 276 -16 q 512 9 452 -16 q 610 85 571 35 q 659 181 648 136 q 669 309 669 226 l 669 376 l 410 376 l 410 257 q 399 166 410 190 q 357 143 389 143 q 323 161 332 143 q 315 239 315 178 l 315 434 l 669 434 m 395 581 l 315 581 l 315 646 q 321 740 315 722 q 357 757 328 757 q 387 736 380 757 q 395 646 395 716 l 395 581 m 587 1144 l 345 1144 l 226 960 l 363 960 l 587 1144 "},"è":{"ha":710,"x_min":41,"x_max":669,"o":"m 669 434 l 669 553 q 639 756 669 684 q 534 872 609 829 q 344 916 459 916 q 177 880 250 916 q 73 775 104 844 q 41 589 41 707 l 41 327 q 55 174 41 227 q 106 78 69 121 q 210 9 143 34 q 363 -16 276 -16 q 512 9 452 -16 q 610 85 571 35 q 659 181 648 136 q 669 309 669 226 l 669 376 l 410 376 l 410 257 q 399 166 410 190 q 357 143 389 143 q 323 161 332 143 q 315 239 315 178 l 315 434 l 669 434 m 395 581 l 315 581 l 315 646 q 321 740 315 722 q 357 757 328 757 q 387 736 380 757 q 395 646 395 716 l 395 581 m 123 1144 l 347 960 l 484 960 l 365 1144 l 123 1144 "},"ê":{"ha":710,"x_min":41,"x_max":669,"o":"m 669 434 l 669 553 q 639 756 669 684 q 534 872 609 829 q 344 916 459 916 q 177 880 250 916 q 73 775 104 844 q 41 589 41 707 l 41 327 q 55 174 41 227 q 106 78 69 121 q 210 9 143 34 q 363 -16 276 -16 q 512 9 452 -16 q 610 85 571 35 q 659 181 648 136 q 669 309 669 226 l 669 376 l 410 376 l 410 257 q 399 166 410 190 q 357 143 389 143 q 323 161 332 143 q 315 239 315 178 l 315 434 l 669 434 m 395 581 l 315 581 l 315 646 q 321 740 315 722 q 357 757 328 757 q 387 736 380 757 q 395 646 395 716 l 395 581 m 360 1049 l 435 960 l 619 960 l 456 1152 l 264 1152 l 90 960 l 280 960 l 360 1049 "},"ë":{"ha":710,"x_min":41,"x_max":669,"o":"m 669 434 l 669 553 q 639 756 669 684 q 534 872 609 829 q 344 916 459 916 q 177 880 250 916 q 73 775 104 844 q 41 589 41 707 l 41 327 q 55 174 41 227 q 106 78 69 121 q 210 9 143 34 q 363 -16 276 -16 q 512 9 452 -16 q 610 85 571 35 q 659 181 648 136 q 669 309 669 226 l 669 376 l 410 376 l 410 257 q 399 166 410 190 q 357 143 389 143 q 323 161 332 143 q 315 239 315 178 l 315 434 l 669 434 m 395 581 l 315 581 l 315 646 q 321 740 315 722 q 357 757 328 757 q 387 736 380 757 q 395 646 395 716 l 395 581 m 295 1137 l 118 1137 l 118 960 l 295 960 l 295 1137 m 591 1137 l 414 1137 l 414 960 l 591 960 l 591 1137 "},"í":{"ha":380,"x_min":49,"x_max":424,"o":"m 331 900 l 49 900 l 49 0 l 331 0 l 331 900 m 424 1144 l 182 1144 l 63 960 l 201 960 l 424 1144 "},"ì":{"ha":380,"x_min":-39,"x_max":331,"o":"m 331 900 l 49 900 l 49 0 l 331 0 l 331 900 m -39 1144 l 184 960 l 321 960 l 202 1144 l -39 1144 "},"î":{"ha":380,"x_min":-72,"x_max":457,"o":"m 331 900 l 49 900 l 49 0 l 331 0 l 331 900 m 198 1049 l 273 960 l 457 960 l 294 1152 l 102 1152 l -72 960 l 118 960 l 198 1049 "},"ï":{"ha":380,"x_min":-44,"x_max":429,"o":"m 331 900 l 49 900 l 49 0 l 331 0 l 331 900 m 133 1137 l -44 1137 l -44 960 l 133 960 l 133 1137 m 429 1137 l 252 1137 l 252 960 l 429 960 l 429 1137 "},"ñ":{"ha":726,"x_min":49,"x_max":681,"o":"m 328 900 l 49 900 l 49 0 l 323 0 l 323 608 q 330 733 323 710 q 367 757 338 757 q 401 736 395 757 q 407 623 407 716 l 407 0 l 681 0 l 681 631 q 668 799 681 749 q 610 883 655 850 q 495 916 566 916 q 396 891 439 916 q 323 817 353 867 l 328 900 m 649 1089 l 540 1167 q 465 1106 522 1106 q 393 1126 446 1106 l 351 1141 q 245 1163 294 1163 q 77 1031 151 1163 l 184 960 q 267 1028 216 1028 q 338 1008 290 1028 l 389 989 q 492 966 444 966 q 572 994 527 966 q 649 1089 618 1021 "},"ó":{"ha":710,"x_min":41,"x_max":669,"o":"m 669 584 q 655 726 669 680 q 606 817 642 773 q 504 889 570 861 q 346 916 438 916 q 165 873 236 916 q 68 760 95 831 q 41 564 41 690 l 41 334 q 56 162 41 219 q 105 64 71 104 q 203 4 140 24 q 357 -16 267 -16 q 502 7 439 -16 q 604 80 564 31 q 656 185 644 129 q 669 363 669 242 l 669 584 m 395 652 l 395 237 q 387 161 395 178 q 355 143 379 143 q 323 162 331 143 q 315 245 315 182 l 315 652 q 323 739 315 721 q 355 757 331 757 q 387 739 380 757 q 395 652 395 721 m 587 1144 l 345 1144 l 226 960 l 363 960 l 587 1144 "},"ò":{"ha":710,"x_min":41,"x_max":669,"o":"m 669 584 q 655 726 669 680 q 606 817 642 773 q 504 889 570 861 q 346 916 438 916 q 165 873 236 916 q 68 760 95 831 q 41 564 41 690 l 41 334 q 56 162 41 219 q 105 64 71 104 q 203 4 140 24 q 357 -16 267 -16 q 502 7 439 -16 q 604 80 564 31 q 656 185 644 129 q 669 363 669 242 l 669 584 m 395 652 l 395 237 q 387 161 395 178 q 355 143 379 143 q 323 162 331 143 q 315 245 315 182 l 315 652 q 323 739 315 721 q 355 757 331 757 q 387 739 380 757 q 395 652 395 721 m 123 1144 l 347 960 l 484 960 l 365 1144 l 123 1144 "},"ô":{"ha":710,"x_min":41,"x_max":669,"o":"m 669 584 q 655 726 669 680 q 606 817 642 773 q 504 889 570 861 q 346 916 438 916 q 165 873 236 916 q 68 760 95 831 q 41 564 41 690 l 41 334 q 56 162 41 219 q 105 64 71 104 q 203 4 140 24 q 357 -16 267 -16 q 502 7 439 -16 q 604 80 564 31 q 656 185 644 129 q 669 363 669 242 l 669 584 m 395 652 l 395 237 q 387 161 395 178 q 355 143 379 143 q 323 162 331 143 q 315 245 315 182 l 315 652 q 323 739 315 721 q 355 757 331 757 q 387 739 380 757 q 395 652 395 721 m 360 1049 l 435 960 l 619 960 l 456 1152 l 264 1152 l 90 960 l 280 960 l 360 1049 "},"ö":{"ha":710,"x_min":41,"x_max":669,"o":"m 669 584 q 655 726 669 680 q 606 817 642 773 q 504 889 570 861 q 346 916 438 916 q 165 873 236 916 q 68 760 95 831 q 41 564 41 690 l 41 334 q 56 162 41 219 q 105 64 71 104 q 203 4 140 24 q 357 -16 267 -16 q 502 7 439 -16 q 604 80 564 31 q 656 185 644 129 q 669 363 669 242 l 669 584 m 395 652 l 395 237 q 387 161 395 178 q 355 143 379 143 q 323 162 331 143 q 315 245 315 182 l 315 652 q 323 739 315 721 q 355 757 331 757 q 387 739 380 757 q 395 652 395 721 m 295 1137 l 118 1137 l 118 960 l 295 960 l 295 1137 m 591 1137 l 414 1137 l 414 960 l 591 960 l 591 1137 "},"õ":{"ha":710,"x_min":41,"x_max":669,"o":"m 669 584 q 655 726 669 680 q 606 817 642 773 q 504 889 570 861 q 346 916 438 916 q 165 873 236 916 q 68 760 95 831 q 41 564 41 690 l 41 334 q 56 162 41 219 q 105 64 71 104 q 203 4 140 24 q 357 -16 267 -16 q 502 7 439 -16 q 604 80 564 31 q 656 185 644 129 q 669 363 669 242 l 669 584 m 395 652 l 395 237 q 387 161 395 178 q 355 143 379 143 q 323 162 331 143 q 315 245 315 182 l 315 652 q 323 739 315 721 q 355 757 331 757 q 387 739 380 757 q 395 652 395 721 m 641 1089 l 532 1167 q 457 1106 513 1106 q 385 1126 438 1106 l 343 1141 q 237 1163 286 1163 q 68 1031 143 1163 l 176 960 q 258 1028 208 1028 q 330 1008 282 1028 l 380 989 q 484 966 436 966 q 564 994 519 966 q 641 1089 610 1021 "},"ú":{"ha":726,"x_min":45,"x_max":676,"o":"m 676 900 l 402 900 l 402 294 q 396 163 402 184 q 360 143 391 143 q 325 163 332 143 q 319 288 319 182 l 319 900 l 45 900 l 45 293 q 50 138 45 177 q 74 63 54 99 q 134 5 93 27 q 236 -16 174 -16 q 332 6 290 -16 q 402 75 374 29 l 397 0 l 676 0 l 676 900 m 594 1144 l 353 1144 l 233 960 l 371 960 l 594 1144 "},"ù":{"ha":726,"x_min":45,"x_max":676,"o":"m 676 900 l 402 900 l 402 294 q 396 163 402 184 q 360 143 391 143 q 325 163 332 143 q 319 288 319 182 l 319 900 l 45 900 l 45 293 q 50 138 45 177 q 74 63 54 99 q 134 5 93 27 q 236 -16 174 -16 q 332 6 290 -16 q 402 75 374 29 l 397 0 l 676 0 l 676 900 m 131 1144 l 354 960 l 492 960 l 372 1144 l 131 1144 "},"û":{"ha":726,"x_min":45,"x_max":676,"o":"m 676 900 l 402 900 l 402 294 q 396 163 402 184 q 360 143 391 143 q 325 163 332 143 q 319 288 319 182 l 319 900 l 45 900 l 45 293 q 50 138 45 177 q 74 63 54 99 q 134 5 93 27 q 236 -16 174 -16 q 332 6 290 -16 q 402 75 374 29 l 397 0 l 676 0 l 676 900 m 368 1049 l 444 960 l 627 960 l 464 1152 l 273 1152 l 98 960 l 288 960 l 368 1049 "},"ü":{"ha":726,"x_min":45,"x_max":676,"o":"m 676 900 l 402 900 l 402 294 q 396 163 402 184 q 360 143 391 143 q 325 163 332 143 q 319 288 319 182 l 319 900 l 45 900 l 45 293 q 50 138 45 177 q 74 63 54 99 q 134 5 93 27 q 236 -16 174 -16 q 332 6 290 -16 q 402 75 374 29 l 397 0 l 676 0 l 676 900 m 303 1137 l 126 1137 l 126 960 l 303 960 l 303 1137 m 600 1137 l 422 1137 l 422 960 l 600 960 l 600 1137 "},"†":{"ha":754,"x_min":24,"x_max":730,"o":"m 227 1098 l 227 780 l 24 780 l 24 522 l 227 522 l 227 -128 l 528 -128 l 528 522 l 730 522 l 730 781 l 528 781 l 528 1098 l 227 1098 "},"°":{"ha":482,"x_min":24,"x_max":457,"o":"m 24 891 q 85 746 24 812 q 241 680 146 680 q 394 744 330 680 q 457 897 457 807 q 394 1049 457 986 q 241 1113 331 1113 q 89 1050 153 1113 q 24 891 24 987 m 137 899 q 166 968 137 937 q 241 1000 196 1000 q 314 970 283 1000 q 345 897 345 939 q 314 823 345 854 q 241 793 283 793 q 168 823 199 793 q 137 899 137 853 "},"¢":{"ha":718,"x_min":41,"x_max":682,"o":"m 681 625 q 673 782 681 736 q 633 875 665 829 q 548 955 602 921 q 427 1000 493 988 l 427 1093 l 300 1093 l 300 1000 q 139 926 203 981 q 58 805 75 871 q 41 602 41 739 l 41 399 q 57 207 41 266 q 142 93 74 147 q 300 26 211 38 l 300 -86 l 427 -86 l 427 26 q 621 141 560 55 q 682 389 682 227 q 681 434 682 404 l 418 434 l 418 335 q 406 218 418 245 q 359 190 393 190 q 323 211 332 190 q 315 305 315 231 l 315 726 q 324 819 315 802 q 361 837 333 837 q 398 816 390 837 q 407 717 407 795 l 407 625 l 681 625 "},"£":{"ha":743,"x_min":49,"x_max":711,"o":"m 677 745 q 684 834 684 798 q 599 1043 684 966 q 369 1119 513 1119 q 146 1046 234 1119 q 59 832 59 974 q 116 625 59 733 l 49 625 l 49 437 l 146 437 q 146 408 146 418 q 131 288 146 357 q 97 189 115 219 q 49 139 78 159 l 49 -21 q 215 25 113 25 q 368 2 279 25 q 507 -21 460 -21 q 632 7 583 -21 q 696 79 682 36 q 710 220 710 122 l 711 308 l 480 308 q 481 264 481 275 q 465 175 481 192 q 420 158 448 158 q 393 161 408 158 q 330 168 353 168 q 294 164 314 168 q 263 160 275 161 q 395 437 393 253 l 551 437 l 551 625 l 378 625 q 346 759 378 646 q 316 899 316 862 q 334 951 316 928 q 378 975 351 975 q 413 961 399 975 q 430 929 427 947 q 432 844 432 911 l 432 745 l 677 745 "},"§":{"ha":672,"x_min":24,"x_max":648,"o":"m 595 863 q 519 1064 595 1008 q 334 1121 444 1121 q 126 1047 195 1121 q 56 884 56 972 q 85 772 56 827 q 171 667 114 718 q 24 471 24 583 q 83 337 24 399 q 296 165 141 276 q 369 104 348 127 q 390 56 390 81 q 379 23 390 34 q 347 12 369 12 q 294 99 294 12 l 77 99 q 150 -94 79 -33 q 334 -155 221 -155 q 542 -82 467 -155 q 617 82 617 -9 q 588 186 617 132 q 500 301 559 241 q 648 494 648 370 q 609 606 648 554 q 412 774 571 659 q 302 863 323 838 q 281 908 281 887 q 292 938 281 928 q 322 948 302 948 q 365 931 351 948 q 378 880 378 914 l 378 863 l 595 863 m 259 589 q 318 547 288 568 q 413 473 390 496 q 437 429 437 450 q 413 378 437 400 q 340 433 388 397 q 252 501 269 483 q 235 538 235 519 q 259 589 235 565 "},"•":{"ha":483,"x_min":41,"x_max":441,"o":"m 441 554 q 385 688 441 627 q 241 749 329 749 q 100 690 159 749 q 41 549 41 631 q 99 407 41 466 q 241 349 158 349 q 382 407 322 349 q 441 554 441 465 "},"¶":{"ha":800,"x_min":24,"x_max":791,"o":"m 456 -150 l 456 921 l 554 921 l 554 -150 l 715 -150 l 715 921 l 791 921 l 791 1098 l 387 1098 q 237 1090 285 1098 q 137 1048 189 1082 q 55 954 85 1015 q 24 814 24 893 q 292 541 24 570 l 292 -150 l 456 -150 "},"ß":{"ha":764,"x_min":49,"x_max":719,"o":"m 612 694 q 705 872 705 766 q 615 1055 705 989 q 363 1121 525 1121 q 158 1074 232 1121 q 67 959 85 1026 q 49 733 49 892 l 49 0 l 323 0 l 323 847 q 334 939 323 916 q 378 962 346 962 q 419 936 406 962 q 433 857 433 909 q 420 802 433 810 q 391 793 406 793 l 391 627 q 435 606 425 622 q 445 543 444 589 l 445 274 q 437 178 445 191 q 391 166 429 166 l 360 166 l 360 0 l 412 0 q 549 18 494 0 q 648 80 605 35 q 705 176 690 124 q 719 328 719 227 l 719 429 q 690 623 719 574 q 612 694 661 671 "},"®":{"ha":1088,"x_min":24,"x_max":1063,"o":"m 530 1039 q 306 981 427 1039 q 105 797 185 924 q 24 519 24 671 q 176 152 24 304 q 544 0 328 0 q 911 153 758 0 q 1063 519 1063 305 q 913 884 1063 730 q 530 1039 763 1039 m 556 938 q 742 888 645 938 q 901 738 839 838 q 962 519 962 638 q 840 224 962 347 q 545 102 717 102 q 250 224 373 102 q 127 519 127 347 q 246 812 127 686 q 556 938 365 938 m 315 242 l 427 242 l 427 468 l 456 468 q 538 439 507 468 q 611 331 570 410 l 657 242 l 795 242 l 730 353 q 667 448 687 426 q 613 483 647 470 q 725 535 688 496 q 762 637 762 574 q 718 748 762 703 q 576 793 673 793 l 315 793 l 315 242 m 427 555 l 427 705 l 529 705 q 615 687 587 705 q 644 632 644 669 q 615 573 644 591 q 517 555 586 555 l 427 555 "},"©":{"ha":1088,"x_min":24,"x_max":1063,"o":"m 530 1039 q 299 977 420 1039 q 101 791 178 916 q 24 519 24 667 q 176 152 24 304 q 544 0 328 0 q 911 153 758 0 q 1063 519 1063 305 q 915 883 1063 727 q 530 1039 766 1039 m 555 937 q 834 818 708 937 q 961 519 961 699 q 839 225 961 348 q 544 102 716 102 q 249 225 372 102 q 127 519 127 348 q 247 812 127 688 q 555 937 368 937 m 670 443 q 542 326 633 326 q 443 378 478 326 q 408 524 408 430 q 445 660 408 608 q 549 711 481 711 q 669 616 634 711 l 779 642 q 547 807 720 807 q 361 729 433 807 q 289 517 289 652 q 360 308 289 386 q 549 229 431 229 q 779 406 724 229 l 670 443 "},"™":{"ha":1087,"x_min":8,"x_max":1055,"o":"m 180 543 l 292 543 l 292 1002 l 459 1002 l 459 1098 l 8 1098 l 8 1002 l 180 1002 l 180 543 m 500 543 l 606 543 l 606 985 l 726 543 l 827 543 l 947 985 l 947 543 l 1055 543 l 1055 1098 l 878 1098 l 777 715 l 676 1098 l 500 1098 l 500 543 "},"´":{"ha":463,"x_min":102,"x_max":463,"o":"m 463 1202 l 222 1202 l 102 1018 l 240 1018 l 463 1202 "},"¨":{"ha":463,"x_min":-5,"x_max":469,"o":"m 172 1194 l -5 1194 l -5 1018 l 172 1018 l 172 1194 m 469 1194 l 292 1194 l 292 1018 l 469 1018 l 469 1194 "},"≠":{"ha":741,"x_min":44,"x_max":696,"o":"m 44 761 l 44 595 l 313 595 l 275 502 l 44 502 l 44 336 l 211 336 l 98 52 l 252 52 l 364 336 l 696 336 l 696 502 l 429 502 l 465 595 l 696 595 l 696 761 l 530 761 l 640 1045 l 488 1045 l 376 761 l 44 761 "},"Æ":{"ha":991,"x_min":-8,"x_max":966,"o":"m 952 1098 l 281 1098 l -8 0 l 264 0 l 311 197 l 475 197 l 475 0 l 966 0 l 966 220 l 760 220 l 760 461 l 941 461 l 941 670 l 760 670 l 760 878 l 952 878 l 952 1098 m 475 892 l 475 392 l 353 392 l 475 892 "},"Ø":{"ha":759,"x_min":-37,"x_max":795,"o":"m 696 909 l 795 1040 l 733 1086 l 661 991 q 548 1089 618 1057 q 379 1121 477 1121 q 216 1090 286 1121 q 105 1003 146 1060 q 57 877 64 946 q 49 643 49 808 l 49 455 q 62 189 49 238 l -37 59 l 25 12 l 98 106 q 210 9 140 42 q 379 -23 280 -23 q 542 7 472 -23 q 653 95 612 38 q 702 221 694 152 q 709 455 709 290 l 709 643 q 696 909 709 857 m 424 669 l 334 551 l 334 816 q 343 912 334 890 q 380 935 353 935 q 415 914 407 935 q 424 816 424 892 l 424 669 m 334 423 l 424 542 l 424 311 q 416 189 424 214 q 378 163 408 163 q 342 185 350 163 q 334 303 334 208 l 334 423 "},"∞":{"ha":990,"x_min":36,"x_max":954,"o":"m 443 549 q 344 675 391 647 q 244 704 296 704 q 96 633 156 704 q 36 455 36 562 q 104 274 36 343 q 269 205 172 205 q 395 244 340 205 q 488 363 450 284 q 612 202 560 236 q 717 169 663 169 q 830 207 774 169 q 920 307 887 244 q 954 454 954 370 q 913 612 954 547 q 816 707 872 677 q 694 736 760 736 q 550 700 610 736 q 443 549 490 663 m 508 411 q 622 644 578 605 q 724 684 666 684 q 856 618 798 684 q 915 454 915 552 q 861 296 915 359 q 720 233 807 233 q 605 272 654 233 q 508 411 555 311 m 423 496 l 416 473 q 319 292 367 327 q 229 258 272 258 q 122 310 172 258 q 73 456 73 363 q 123 592 73 543 q 242 642 174 642 q 348 605 302 642 q 423 496 393 569 "},"±":{"ha":741,"x_min":43,"x_max":697,"o":"m 452 368 l 452 609 l 697 609 l 697 774 l 452 774 l 452 1019 l 287 1019 l 287 774 l 43 774 l 43 609 l 287 609 l 287 368 l 452 368 m 43 287 l 43 121 l 697 121 l 697 287 l 43 287 "},"≤":{"ha":741,"x_min":43,"x_max":697,"o":"m 696 330 l 696 509 l 294 671 l 696 833 l 696 1012 l 44 739 l 44 602 l 696 330 m 43 275 l 43 110 l 697 110 l 697 275 l 43 275 "},"≥":{"ha":741,"x_min":43,"x_max":697,"o":"m 44 1012 l 44 832 l 447 671 l 44 509 l 44 330 l 696 602 l 696 741 l 44 1012 m 43 275 l 43 110 l 697 110 l 697 275 l 43 275 "},"¥":{"ha":657,"x_min":-8,"x_max":665,"o":"m 537 666 l 665 1098 l 403 1098 q 323 666 347 842 q 254 1098 316 777 l -8 1098 l 115 666 l 1 666 l 1 549 l 149 549 l 193 397 l 1 397 l 1 281 l 193 281 l 193 0 l 457 0 l 457 281 l 655 281 l 655 397 l 457 397 l 503 549 l 655 549 l 655 666 l 537 666 "},"µ":{"ha":654,"x_min":49,"x_max":605,"o":"m 49 900 l 49 -276 l 269 -276 l 269 -14 q 397 83 356 -13 l 397 0 l 605 0 l 605 900 l 387 900 l 387 313 q 321 155 387 155 q 269 251 269 155 l 269 900 l 49 900 "},"∂":{"ha":680,"x_min":42,"x_max":647,"o":"m 240 780 q 306 823 267 808 q 393 837 344 837 q 509 811 469 837 q 577 739 549 785 q 606 618 606 692 q 600 532 606 584 q 440 633 554 633 q 170 494 298 633 q 42 199 42 355 q 97 47 42 109 q 256 -16 151 -16 q 441 62 363 -16 q 583 304 518 140 q 647 701 647 468 q 626 858 647 806 q 560 941 604 909 q 448 972 515 972 q 306 924 365 972 q 212 780 247 876 l 240 780 m 589 469 q 473 165 557 300 q 297 30 388 30 q 235 55 255 30 q 216 144 216 80 q 248 358 216 240 q 333 538 281 477 q 444 599 386 599 q 589 469 547 599 "},"∑":{"ha":984,"x_min":26,"x_max":960,"o":"m 916 -56 l 960 224 l 932 230 q 845 90 907 116 q 722 63 783 63 l 168 63 l 594 590 l 213 1056 l 715 1056 q 884 882 865 1056 l 911 882 l 892 1111 l 26 1111 l 26 1085 l 479 532 l 26 -32 l 26 -56 l 916 -56 "},"∏":{"ha":1143,"x_min":31,"x_max":1112,"o":"m 840 1057 l 840 75 q 817 -5 840 20 q 730 -31 793 -31 l 707 -31 l 707 -56 l 1112 -56 l 1112 -31 l 1088 -31 q 1004 -7 1031 -31 q 978 75 978 16 l 978 979 q 1004 1060 978 1036 q 1088 1084 1029 1084 l 1112 1084 l 1112 1109 l 31 1109 l 31 1084 l 54 1084 q 139 1061 113 1084 q 165 979 165 1037 l 165 75 q 141 -5 165 20 q 54 -31 117 -31 l 31 -31 l 31 -56 l 435 -56 l 435 -31 l 411 -31 q 328 -7 354 -31 q 301 75 301 16 l 301 1057 l 840 1057 "},"∫":{"ha":380,"x_min":0,"x_max":380,"o":"m 136 607 q 161 79 136 294 q 168 -2 168 26 q 161 -33 168 -22 q 141 -43 155 -43 q 109 -22 127 -43 q 61 0 88 0 q 18 -18 35 0 q 0 -67 0 -37 q 23 -127 0 -105 q 80 -149 47 -149 q 182 -88 138 -149 q 235 247 227 -26 q 243 566 243 519 q 218 1017 243 738 q 212 1116 212 1087 q 239 1158 212 1158 q 266 1145 250 1158 q 317 1120 294 1120 q 362 1141 345 1120 q 380 1191 380 1161 q 355 1240 380 1217 q 295 1263 331 1263 q 195 1203 239 1263 q 144 909 150 1142 l 136 607 "},"ª":{"ha":451,"x_min":24,"x_max":426,"o":"m 191 924 l 191 949 q 195 1003 191 994 q 218 1012 199 1012 q 242 1000 235 1012 q 248 945 248 989 q 245 915 248 927 q 171 878 242 903 q 47 819 70 842 q 24 731 24 796 l 24 687 q 56 586 24 620 q 150 553 87 553 q 210 568 184 553 q 253 612 236 583 l 253 566 l 426 566 l 426 833 q 415 1016 426 972 q 359 1088 404 1059 q 224 1116 313 1116 q 101 1088 148 1116 q 39 1026 54 1061 q 24 924 24 991 l 191 924 m 248 820 l 248 718 q 243 671 248 680 q 221 663 239 663 q 197 673 203 663 q 192 720 192 684 q 201 778 192 764 q 248 820 210 792 "},"º":{"ha":458,"x_min":24,"x_max":433,"o":"m 433 912 q 414 1022 433 981 q 348 1089 396 1062 q 222 1116 300 1116 q 79 1071 134 1116 q 24 901 24 1025 l 24 767 q 41 644 24 686 q 101 577 58 601 q 228 553 143 553 q 355 582 308 553 q 418 655 403 610 q 433 785 433 700 l 433 912 m 254 953 l 254 708 q 250 666 254 675 q 227 656 245 656 q 208 666 212 656 q 203 713 203 676 l 203 953 q 207 1002 203 993 q 229 1012 212 1012 q 250 1003 246 1012 q 254 953 254 994 "},"Ω":{"ha":1067,"x_min":22,"x_max":1044,"o":"m 418 243 q 294 551 294 286 q 321 735 294 667 q 403 845 347 802 q 533 888 459 888 q 699 812 627 888 q 772 543 772 737 q 648 243 772 286 l 625 0 l 1044 0 l 1044 256 l 1020 256 q 1005 198 1018 217 q 974 172 992 179 q 912 165 956 165 l 690 165 l 694 212 q 938 346 865 248 q 1010 559 1010 444 q 885 828 1010 716 q 533 941 760 941 q 181 828 307 941 q 56 559 56 716 q 129 346 56 444 q 372 212 201 248 l 376 165 l 154 165 q 69 187 89 165 q 46 256 49 209 l 22 256 l 22 0 l 441 0 l 418 243 "},"æ":{"ha":1046,"x_min":37,"x_max":1005,"o":"m 1005 434 l 1005 550 q 975 757 1005 687 q 870 871 944 827 q 692 916 795 916 q 600 904 641 916 q 527 867 558 892 q 437 904 484 892 q 340 916 391 916 q 192 890 250 916 q 97 822 134 865 q 48 736 59 779 q 38 618 38 693 l 38 551 l 295 551 l 295 637 q 301 737 295 718 q 330 757 308 757 q 360 733 352 757 q 368 649 368 709 q 361 566 368 585 q 334 534 353 547 q 258 502 314 521 q 108 437 151 465 q 51 375 64 410 q 37 245 37 340 q 52 92 37 138 q 116 14 67 45 q 239 -16 164 -16 q 353 9 302 -16 q 441 87 404 35 q 547 9 480 35 q 708 -16 613 -16 q 881 29 810 -16 q 978 135 951 74 q 1005 285 1005 196 l 1005 376 l 746 376 l 746 248 q 735 163 746 184 q 694 143 724 143 q 656 163 665 143 q 648 252 648 183 l 648 434 l 1005 434 m 731 581 l 648 581 l 648 662 q 657 739 648 720 q 690 757 667 757 q 720 741 708 757 q 731 662 731 725 l 731 581 m 374 422 l 374 277 l 373 197 q 363 157 373 170 q 334 143 354 143 q 296 165 307 143 q 286 239 286 186 q 303 354 286 323 q 374 422 321 385 "},"ø":{"ha":710,"x_min":41,"x_max":669,"o":"m 618 801 l 654 856 l 601 890 l 573 848 q 474 899 531 882 q 346 916 417 916 q 165 873 236 916 q 68 760 95 831 q 41 564 41 690 l 41 334 q 52 176 41 224 q 86 91 63 129 l 56 44 l 109 9 l 130 41 q 223 -2 166 13 q 357 -16 280 -16 q 502 7 439 -16 q 604 80 564 31 q 656 185 644 129 q 669 363 669 242 l 669 584 q 657 723 669 680 q 618 801 645 765 m 395 566 l 315 444 l 315 652 q 323 739 315 721 q 355 757 331 757 q 387 739 380 757 q 395 652 395 721 l 395 566 m 315 326 l 395 449 l 395 237 q 387 161 395 178 q 355 143 379 143 q 323 162 331 143 q 315 245 315 182 l 315 326 "},"¿":{"ha":729,"x_min":24,"x_max":671,"o":"m 397 746 l 653 746 l 653 966 l 397 966 l 397 746 m 397 222 l 397 155 q 389 31 397 58 q 349 4 380 4 q 315 25 323 4 q 307 105 307 45 l 307 288 q 316 423 307 395 q 359 450 325 450 q 404 387 403 450 l 653 387 l 653 689 l 397 689 l 397 572 q 249 649 353 649 q 115 607 172 649 q 41 510 58 565 q 24 362 24 454 l 24 228 q 42 52 24 109 q 98 -53 60 -4 q 200 -128 136 -101 q 351 -155 264 -155 q 547 -106 470 -155 q 647 11 624 -56 q 671 222 670 77 l 397 222 "},"¡":{"ha":375,"x_min":24,"x_max":326,"o":"m 47 746 l 303 746 l 303 966 l 47 966 l 47 746 m 24 -132 l 326 -132 l 281 694 l 69 694 l 24 -132 "},"¬":{"ha":741,"x_min":43,"x_max":697,"o":"m 43 764 l 43 597 l 532 597 l 532 334 l 697 334 l 697 764 l 43 764 "},"√":{"ha":762,"x_min":57,"x_max":762,"o":"m 712 1267 l 536 165 l 261 724 l 57 621 l 80 578 l 214 640 l 551 -53 l 762 1267 l 712 1267 "},"ƒ":{"ha":616,"x_min":-33,"x_max":616,"o":"m 616 1119 l 471 1119 q 343 1102 379 1119 q 280 1051 307 1086 q 229 892 252 1017 l 188 681 l 90 681 l 60 516 l 154 516 l 60 45 q 44 -5 51 1 q -3 -11 38 -11 l -33 -155 l 90 -155 q 278 -113 229 -155 q 352 60 326 -70 l 442 516 l 542 516 l 574 681 l 474 681 l 520 913 q 526 942 525 937 q 540 972 531 969 q 587 975 549 975 l 616 1119 "},"≈":{"ha":729,"x_min":39,"x_max":690,"o":"m 690 666 l 690 853 q 507 743 573 743 q 392 782 472 743 q 235 830 293 830 q 39 742 136 830 l 39 553 q 150 643 111 621 q 227 665 189 665 q 324 633 259 665 q 433 587 400 596 q 502 577 466 577 q 690 666 585 577 m 690 404 l 690 591 q 507 481 573 481 q 392 520 472 481 q 235 568 293 568 q 39 480 136 568 l 39 292 q 154 383 113 363 q 227 403 195 403 q 324 371 259 403 q 433 325 400 334 q 502 315 466 315 q 681 397 581 315 l 690 404 "},"∆":{"ha":854,"x_min":20,"x_max":833,"o":"m 833 0 l 446 941 l 20 0 l 833 0 m 673 56 l 104 56 l 403 711 l 673 56 "},"«":{"ha":515,"x_min":24,"x_max":491,"o":"m 81 840 l 24 471 l 81 84 l 242 84 l 185 471 l 242 840 l 81 840 m 330 840 l 273 471 l 330 84 l 491 84 l 433 471 l 491 840 l 330 840 "},"»":{"ha":515,"x_min":24,"x_max":491,"o":"m 433 840 l 273 840 l 330 471 l 273 84 l 433 84 l 491 471 l 433 840 m 185 840 l 24 840 l 81 471 l 24 84 l 185 84 l 242 471 l 185 840 "},"…":{"ha":768,"x_min":24,"x_max":744,"o":"m 231 224 l 24 224 l 24 0 l 231 0 l 231 224 m 744 224 l 537 224 l 537 0 l 744 0 l 744 224 m 488 224 l 281 224 l 281 0 l 488 0 l 488 224 "}," ":{"ha":245,"x_min":0,"x_max":0,"o":""},"À":{"ha":705,"x_min":-8,"x_max":713,"o":"m 550 1098 l 137 1098 l -8 0 l 288 0 l 304 197 l 407 197 l 421 0 l 713 0 l 550 1098 m 399 392 l 301 392 q 355 852 312 538 q 399 392 377 578 m 103 1316 l 326 1133 l 464 1133 l 345 1316 l 103 1316 "},"Ã":{"ha":705,"x_min":-8,"x_max":713,"o":"m 550 1098 l 137 1098 l -8 0 l 288 0 l 304 197 l 407 197 l 421 0 l 713 0 l 550 1098 m 399 392 l 301 392 q 355 852 312 538 q 399 392 377 578 m 630 1261 l 521 1339 q 446 1278 503 1278 q 374 1298 427 1278 l 332 1314 q 226 1335 275 1335 q 58 1204 132 1335 l 165 1133 q 248 1200 197 1200 q 319 1181 271 1200 l 370 1161 q 473 1139 425 1139 q 553 1166 508 1139 q 630 1261 599 1193 "},"Õ":{"ha":759,"x_min":49,"x_max":709,"o":"m 709 455 l 709 643 q 701 880 709 812 q 650 1006 693 948 q 537 1092 608 1063 q 379 1121 467 1121 q 216 1090 286 1121 q 105 1003 146 1060 q 57 877 64 946 q 49 643 49 808 l 49 455 q 57 218 49 286 q 108 92 65 150 q 221 6 151 35 q 379 -23 291 -23 q 542 7 472 -23 q 653 95 612 38 q 702 221 694 152 q 709 455 709 290 m 424 816 l 424 311 q 416 189 424 214 q 378 163 408 163 q 342 185 350 163 q 334 303 334 208 l 334 816 q 346 918 334 901 q 380 935 358 935 q 415 914 407 935 q 424 816 424 892 m 665 1261 l 556 1339 q 481 1278 538 1278 q 410 1298 463 1278 l 368 1314 q 261 1335 310 1335 q 93 1204 168 1335 l 200 1133 q 283 1200 233 1200 q 355 1181 307 1200 l 405 1161 q 509 1139 460 1139 q 589 1166 543 1139 q 665 1261 634 1193 "},"Œ":{"ha":956,"x_min":49,"x_max":931,"o":"m 908 1098 l 504 1098 q 378 1109 435 1109 q 214 1080 281 1109 q 107 1002 146 1051 q 58 896 68 953 q 49 717 49 839 l 49 358 q 60 195 49 246 q 106 97 71 144 q 214 19 142 50 q 374 -12 287 -12 q 502 0 409 -12 l 931 0 l 931 220 l 715 220 l 715 461 l 899 461 l 899 670 l 715 670 l 715 878 l 908 878 l 908 1098 m 430 753 l 430 340 q 420 203 430 233 q 380 174 411 174 q 341 200 349 174 q 334 353 334 226 l 334 793 l 335 843 q 344 906 335 888 q 380 924 353 924 q 428 844 428 924 q 429 803 428 833 q 430 753 430 787 "},"œ":{"ha":1063,"x_min":41,"x_max":1021,"o":"m 1021 434 l 1021 564 q 996 751 1021 678 q 886 870 970 825 q 707 916 803 916 q 610 903 654 916 q 530 862 566 889 q 443 903 490 889 q 345 916 397 916 q 154 862 229 916 q 59 742 78 807 q 41 532 41 677 l 41 336 q 50 178 41 224 q 95 86 60 131 q 197 13 131 42 q 356 -16 264 -16 q 450 -6 406 -16 q 530 26 493 5 q 616 -6 570 5 q 715 -16 662 -16 q 890 28 817 -16 q 993 134 964 73 q 1021 287 1021 195 l 1021 376 l 762 376 l 762 264 q 751 172 762 200 q 710 143 739 143 q 677 160 686 143 q 669 233 669 177 l 669 434 l 1021 434 m 395 627 l 395 253 q 387 162 395 182 q 353 143 378 143 q 321 160 327 143 q 315 262 315 178 l 315 654 q 322 737 315 718 q 353 757 330 757 q 387 736 380 757 q 395 627 395 715 m 747 580 l 669 580 l 669 676 q 677 742 669 726 q 707 757 685 757 q 735 745 722 757 q 747 676 747 734 l 747 580 "},"–":{"ha":694,"x_min":-8,"x_max":703,"o":"m -8 534 l -8 366 l 703 366 l 703 534 l -8 534 "},"—":{"ha":1389,"x_min":-8,"x_max":1397,"o":"m -8 534 l -8 366 l 1397 366 l 1397 534 l -8 534 "},"“":{"ha":479,"x_min":24,"x_max":454,"o":"m 270 743 l 454 743 l 454 958 l 408 958 q 454 1019 414 996 l 454 1098 q 352 1052 397 1086 q 289 968 307 1017 q 270 841 270 918 l 270 743 m 24 743 l 208 743 l 208 958 l 163 958 q 208 1019 168 996 l 208 1098 q 107 1052 152 1086 q 43 968 62 1017 q 24 841 24 918 l 24 743 "},"”":{"ha":479,"x_min":24,"x_max":454,"o":"m 454 1098 l 270 1098 l 270 883 l 315 883 q 270 822 310 844 l 270 743 q 372 789 327 755 q 435 873 417 823 q 454 1000 454 923 l 454 1098 m 208 1098 l 24 1098 l 24 883 l 71 883 q 24 822 65 844 l 24 743 q 126 789 81 755 q 190 873 172 823 q 208 1000 208 923 l 208 1098 "},"‘":{"ha":233,"x_min":24,"x_max":208,"o":"m 24 743 l 208 743 l 208 958 l 163 958 q 208 1019 168 996 l 208 1098 q 107 1052 152 1086 q 43 968 62 1017 q 24 841 24 918 l 24 743 "},"’":{"ha":233,"x_min":24,"x_max":208,"o":"m 208 1098 l 24 1098 l 24 883 l 71 883 q 24 822 65 844 l 24 743 q 126 789 81 755 q 190 873 172 823 q 208 1000 208 923 l 208 1098 "},"÷":{"ha":741,"x_min":43,"x_max":697,"o":"m 274 776 q 301 711 274 739 q 368 682 328 682 q 435 710 407 682 q 463 777 463 738 q 435 842 463 814 q 368 870 407 870 q 302 843 330 870 q 274 776 274 816 m 43 629 l 43 469 l 697 469 l 697 629 l 43 629 m 274 323 q 301 259 274 288 q 369 231 329 231 q 436 258 408 231 q 464 325 464 286 q 436 392 464 365 q 369 420 408 420 q 302 393 331 420 q 274 323 274 366 "},"◊":{"ha":686,"x_min":31,"x_max":655,"o":"m 372 964 l 296 964 l 31 481 l 296 0 l 372 0 l 655 481 l 372 964 m 335 899 l 578 481 l 335 64 l 104 481 l 335 899 "},"ÿ":{"ha":623,"x_min":-8,"x_max":623,"o":"m 623 900 l 374 900 l 330 293 l 241 900 l -8 900 l 142 147 q 159 53 159 64 q 140 24 159 31 q 58 18 122 18 l 58 -126 l 224 -126 q 390 -109 338 -126 q 471 -55 442 -92 q 513 38 500 -18 q 544 249 526 94 l 623 900 m 261 1137 l 84 1137 l 84 960 l 261 960 l 261 1137 m 557 1137 l 380 1137 l 380 960 l 557 960 l 557 1137 "},"Ÿ":{"ha":657,"x_min":-8,"x_max":665,"o":"m 665 1098 l 403 1098 q 323 666 347 842 q 254 1098 316 777 l -8 1098 l 193 397 l 193 0 l 457 0 l 457 397 l 665 1098 m 269 1309 l 92 1309 l 92 1133 l 269 1133 l 269 1309 m 566 1309 l 389 1309 l 389 1133 l 566 1133 l 566 1309 "},"∕":{"ha":174,"x_min":-180,"x_max":353,"o":"m 353 1119 l 251 1119 l -180 -21 l -75 -21 l 353 1119 "},"€":{"ha":737,"x_min":-17,"x_max":692,"o":"m 310 703 l 310 802 q 313 884 310 861 q 334 921 317 907 q 382 935 352 935 q 419 925 408 935 q 434 898 431 916 q 439 810 437 880 l 439 721 l 692 721 l 692 757 q 652 986 692 916 q 540 1089 612 1057 q 380 1121 469 1121 q 221 1090 292 1121 q 109 1006 150 1060 q 58 890 67 953 q 49 722 49 828 l 49 703 l -17 703 l -17 586 l 49 586 l 49 532 l -17 532 l -17 415 l 49 415 l 49 386 q 60 202 49 263 q 108 90 71 141 q 215 7 145 38 q 372 -24 285 -24 q 558 20 481 -24 q 663 137 635 64 q 692 363 692 210 l 692 406 l 439 406 l 439 301 q 434 209 439 232 q 413 175 430 186 q 375 163 395 163 q 334 177 351 163 q 314 213 318 192 q 310 292 310 234 l 310 415 l 387 415 l 387 532 l 310 532 l 310 586 l 387 586 l 387 703 l 310 703 "},"‹":{"ha":275,"x_min":24,"x_max":250,"o":"m 83 852 l 24 472 l 83 71 l 250 71 l 191 472 l 250 852 l 83 852 "},"›":{"ha":275,"x_min":24,"x_max":250,"o":"m 191 852 l 24 852 l 83 472 l 24 71 l 191 71 l 250 472 l 191 852 "},"ﬁ":{"ha":779,"x_min":3,"x_max":729,"o":"m 729 1098 l 447 1098 l 447 955 l 729 955 l 729 1098 m 398 1098 l 298 1098 q 163 1086 206 1098 q 95 1050 119 1074 q 65 997 71 1027 q 59 878 59 967 l 3 878 l 3 736 l 59 736 l 59 0 l 333 0 l 333 736 l 398 736 l 398 878 l 283 878 l 283 907 q 298 951 283 943 q 398 959 313 959 l 398 1098 m 729 900 l 447 900 l 447 0 l 729 0 l 729 900 "},"ﬂ":{"ha":777,"x_min":3,"x_max":727,"o":"m 398 1098 l 298 1098 q 163 1086 206 1098 q 95 1050 119 1074 q 65 997 71 1027 q 59 878 59 967 l 3 878 l 3 736 l 59 736 l 59 0 l 333 0 l 333 736 l 398 736 l 398 878 l 283 878 l 283 907 q 298 951 283 943 q 398 959 313 959 l 398 1098 m 727 1098 l 445 1098 l 445 0 l 727 0 l 727 1098 "},"‡":{"ha":755,"x_min":24,"x_max":730,"o":"m 227 1098 l 227 844 l 24 844 l 24 586 l 227 586 l 227 384 l 24 384 l 24 125 l 227 125 l 227 -128 l 528 -128 l 528 125 l 730 125 l 730 384 l 528 384 l 528 586 l 730 586 l 730 844 l 528 844 l 528 1098 l 227 1098 "},"∙":{"ha":305,"x_min":49,"x_max":256,"o":"m 256 659 l 49 659 l 49 435 l 256 435 l 256 659 "},"‚":{"ha":233,"x_min":24,"x_max":208,"o":"m 208 215 l 24 215 l 24 0 l 71 0 q 24 -62 65 -39 l 24 -140 q 126 -94 81 -129 q 190 -10 172 -60 q 208 117 208 39 l 208 215 "},"„":{"ha":479,"x_min":24,"x_max":454,"o":"m 454 215 l 270 215 l 270 0 l 315 0 q 270 -62 310 -39 l 270 -140 q 372 -94 327 -129 q 435 -10 417 -60 q 454 117 454 39 l 454 215 m 208 215 l 24 215 l 24 0 l 71 0 q 24 -62 65 -39 l 24 -140 q 126 -94 81 -129 q 190 -10 172 -60 q 208 117 208 39 l 208 215 "},"‰":{"ha":1423,"x_min":24,"x_max":1399,"o":"m 748 1119 l 645 1119 l 214 -21 l 319 -21 l 748 1119 m 429 911 q 412 1027 429 989 q 348 1092 396 1065 q 222 1119 300 1119 q 105 1095 153 1119 q 41 1031 58 1070 q 24 911 24 992 l 24 713 q 40 608 24 645 q 102 546 56 572 q 234 519 147 519 q 355 547 309 519 q 415 611 401 574 q 429 722 429 648 l 429 911 m 255 959 l 255 677 q 250 627 255 637 q 227 616 245 616 q 202 625 207 616 q 197 682 197 635 l 197 959 q 203 1012 197 1001 q 227 1023 208 1023 q 251 1013 246 1023 q 255 959 255 1002 m 938 380 q 922 496 938 458 q 858 562 906 534 q 732 589 810 589 q 614 564 662 589 q 550 500 567 539 q 534 380 534 461 l 534 182 q 550 78 534 115 q 611 15 566 41 q 743 -12 657 -12 q 864 16 819 -12 q 924 81 910 43 q 938 191 938 118 l 938 380 m 764 428 l 764 147 q 760 96 764 106 q 736 85 755 85 q 712 95 717 85 q 707 151 707 104 l 707 428 q 712 481 707 471 q 736 492 718 492 q 760 482 755 492 q 764 428 764 471 m 1399 380 q 1383 496 1399 458 q 1319 562 1367 534 q 1193 589 1271 589 q 1076 564 1123 589 q 1011 500 1028 539 q 995 380 995 461 l 995 182 q 1011 78 995 115 q 1073 15 1027 41 q 1204 -12 1118 -12 q 1325 16 1280 -12 q 1385 81 1371 43 q 1399 191 1399 118 l 1399 380 m 1225 428 l 1225 147 q 1220 96 1225 106 q 1198 85 1215 85 q 1173 95 1178 85 q 1168 151 1168 104 l 1168 428 q 1174 481 1168 471 q 1197 492 1179 492 q 1221 482 1217 492 q 1225 428 1225 471 "},"Â":{"ha":705,"x_min":-8,"x_max":713,"o":"m 550 1098 l 137 1098 l -8 0 l 288 0 l 304 197 l 407 197 l 421 0 l 713 0 l 550 1098 m 399 392 l 301 392 q 355 852 312 538 q 399 392 377 578 m 346 1221 l 421 1133 l 605 1133 l 441 1324 l 250 1324 l 76 1133 l 266 1133 l 346 1221 "},"Ê":{"ha":577,"x_min":24,"x_max":553,"o":"m 57 1098 l 57 0 l 552 0 l 552 220 l 342 220 l 342 461 l 521 461 l 521 670 l 342 670 l 342 878 l 533 878 l 533 1098 l 57 1098 m 294 1221 l 369 1133 l 553 1133 l 389 1324 l 198 1324 l 24 1133 l 214 1133 l 294 1221 "},"Á":{"ha":705,"x_min":-8,"x_max":713,"o":"m 550 1098 l 137 1098 l -8 0 l 288 0 l 304 197 l 407 197 l 421 0 l 713 0 l 550 1098 m 399 392 l 301 392 q 355 852 312 538 q 399 392 377 578 m 585 1316 l 343 1316 l 224 1133 l 361 1133 l 585 1316 "},"Ë":{"ha":577,"x_min":52,"x_max":552,"o":"m 57 1098 l 57 0 l 552 0 l 552 220 l 342 220 l 342 461 l 521 461 l 521 670 l 342 670 l 342 878 l 533 878 l 533 1098 l 57 1098 m 229 1309 l 52 1309 l 52 1133 l 229 1133 l 229 1309 m 525 1309 l 348 1309 l 348 1133 l 525 1133 l 525 1309 "},"È":{"ha":577,"x_min":57,"x_max":552,"o":"m 57 1098 l 57 0 l 552 0 l 552 220 l 342 220 l 342 461 l 521 461 l 521 670 l 342 670 l 342 878 l 533 878 l 533 1098 l 57 1098 m 57 1316 l 280 1133 l 418 1133 l 298 1316 l 57 1316 "},"Í":{"ha":400,"x_min":57,"x_max":431,"o":"m 342 1098 l 57 1098 l 57 0 l 342 0 l 342 1098 m 431 1316 l 190 1316 l 71 1133 l 208 1133 l 431 1316 "},"Î":{"ha":400,"x_min":-64,"x_max":465,"o":"m 342 1098 l 57 1098 l 57 0 l 342 0 l 342 1098 m 205 1221 l 281 1133 l 465 1133 l 301 1324 l 110 1324 l -64 1133 l 125 1133 l 205 1221 "},"Ï":{"ha":400,"x_min":-37,"x_max":437,"o":"m 342 1098 l 57 1098 l 57 0 l 342 0 l 342 1098 m 140 1309 l -37 1309 l -37 1133 l 140 1133 l 140 1309 m 437 1309 l 260 1309 l 260 1133 l 437 1133 l 437 1309 "},"Ì":{"ha":400,"x_min":-32,"x_max":342,"o":"m 342 1098 l 57 1098 l 57 0 l 342 0 l 342 1098 m -32 1316 l 191 1133 l 329 1133 l 210 1316 l -32 1316 "},"Ó":{"ha":759,"x_min":49,"x_max":709,"o":"m 709 455 l 709 643 q 701 880 709 812 q 650 1006 693 948 q 537 1092 608 1063 q 379 1121 467 1121 q 216 1090 286 1121 q 105 1003 146 1060 q 57 877 64 946 q 49 643 49 808 l 49 455 q 57 218 49 286 q 108 92 65 150 q 221 6 151 35 q 379 -23 291 -23 q 542 7 472 -23 q 653 95 612 38 q 702 221 694 152 q 709 455 709 290 m 424 816 l 424 311 q 416 189 424 214 q 378 163 408 163 q 342 185 350 163 q 334 303 334 208 l 334 816 q 346 918 334 901 q 380 935 358 935 q 415 914 407 935 q 424 816 424 892 m 610 1316 l 369 1316 l 250 1133 l 387 1133 l 610 1316 "},"Ô":{"ha":759,"x_min":49,"x_max":709,"o":"m 709 455 l 709 643 q 701 880 709 812 q 650 1006 693 948 q 537 1092 608 1063 q 379 1121 467 1121 q 216 1090 286 1121 q 105 1003 146 1060 q 57 877 64 946 q 49 643 49 808 l 49 455 q 57 218 49 286 q 108 92 65 150 q 221 6 151 35 q 379 -23 291 -23 q 542 7 472 -23 q 653 95 612 38 q 702 221 694 152 q 709 455 709 290 m 424 816 l 424 311 q 416 189 424 214 q 378 163 408 163 q 342 185 350 163 q 334 303 334 208 l 334 816 q 346 918 334 901 q 380 935 358 935 q 415 914 407 935 q 424 816 424 892 m 385 1221 l 460 1133 l 644 1133 l 480 1324 l 289 1324 l 115 1133 l 304 1133 l 385 1221 "},"Ò":{"ha":759,"x_min":49,"x_max":709,"o":"m 709 455 l 709 643 q 701 880 709 812 q 650 1006 693 948 q 537 1092 608 1063 q 379 1121 467 1121 q 216 1090 286 1121 q 105 1003 146 1060 q 57 877 64 946 q 49 643 49 808 l 49 455 q 57 218 49 286 q 108 92 65 150 q 221 6 151 35 q 379 -23 291 -23 q 542 7 472 -23 q 653 95 612 38 q 702 221 694 152 q 709 455 709 290 m 424 816 l 424 311 q 416 189 424 214 q 378 163 408 163 q 342 185 350 163 q 334 303 334 208 l 334 816 q 346 918 334 901 q 380 935 358 935 q 415 914 407 935 q 424 816 424 892 m 148 1316 l 371 1133 l 509 1133 l 389 1316 l 148 1316 "},"Ú":{"ha":760,"x_min":53,"x_max":706,"o":"m 706 1098 l 420 1098 l 420 289 q 413 185 420 207 q 378 163 405 163 q 346 183 354 163 q 338 275 338 203 l 338 1098 l 53 1098 l 53 448 q 60 204 53 262 q 104 94 66 146 q 216 9 141 42 q 390 -23 292 -23 q 544 4 479 -23 q 650 85 610 32 q 698 189 690 138 q 706 364 706 239 l 706 1098 m 611 1316 l 370 1316 l 250 1133 l 388 1133 l 611 1316 "},"Û":{"ha":760,"x_min":53,"x_max":706,"o":"m 706 1098 l 420 1098 l 420 289 q 413 185 420 207 q 378 163 405 163 q 346 183 354 163 q 338 275 338 203 l 338 1098 l 53 1098 l 53 448 q 60 204 53 262 q 104 94 66 146 q 216 9 141 42 q 390 -23 292 -23 q 544 4 479 -23 q 650 85 610 32 q 698 189 690 138 q 706 364 706 239 l 706 1098 m 385 1221 l 460 1133 l 644 1133 l 481 1324 l 290 1324 l 115 1133 l 305 1133 l 385 1221 "},"Ù":{"ha":760,"x_min":53,"x_max":706,"o":"m 706 1098 l 420 1098 l 420 289 q 413 185 420 207 q 378 163 405 163 q 346 183 354 163 q 338 275 338 203 l 338 1098 l 53 1098 l 53 448 q 60 204 53 262 q 104 94 66 146 q 216 9 141 42 q 390 -23 292 -23 q 544 4 479 -23 q 650 85 610 32 q 698 189 690 138 q 706 364 706 239 l 706 1098 m 148 1316 l 371 1133 l 509 1133 l 389 1316 l 148 1316 "},"ı":{"ha":380,"x_min":49,"x_max":331,"o":"m 331 900 l 49 900 l 49 0 l 331 0 l 331 900 "},"ˆ":{"ha":463,"x_min":-33,"x_max":496,"o":"m 237 1107 l 313 1018 l 496 1018 l 333 1209 l 142 1209 l -33 1018 l 157 1018 l 237 1107 "},"˜":{"ha":463,"x_min":-55,"x_max":517,"o":"m 517 1147 l 408 1225 q 334 1164 390 1164 q 262 1183 315 1164 l 220 1199 q 113 1221 162 1221 q -55 1089 20 1221 l 52 1018 q 135 1086 85 1086 q 207 1066 159 1086 l 257 1046 q 361 1024 313 1024 q 441 1051 395 1024 q 517 1147 486 1078 "},"ˉ":{"ha":463,"x_min":-39,"x_max":501,"o":"m 501 1135 l -39 1135 l -39 1018 l 501 1018 l 501 1135 "},"˘":{"ha":463,"x_min":39,"x_max":424,"o":"m 309 1223 q 231 1130 300 1130 q 155 1223 163 1130 l 39 1223 q 93 1075 43 1131 q 231 1018 142 1018 q 370 1074 320 1018 q 424 1223 420 1131 l 309 1223 "},"˙":{"ha":463,"x_min":143,"x_max":320,"o":"m 320 1194 l 143 1194 l 143 1018 l 320 1018 l 320 1194 "},"˚":{"ha":463,"x_min":89,"x_max":374,"o":"m 232 1303 q 131 1261 173 1303 q 89 1160 89 1219 q 131 1060 89 1101 q 232 1018 172 1018 q 332 1060 290 1018 q 374 1160 374 1101 q 332 1262 374 1221 q 232 1303 289 1303 m 231 1214 q 270 1198 254 1214 q 287 1158 287 1181 q 270 1118 287 1135 q 231 1102 254 1102 q 192 1118 208 1102 q 175 1158 175 1135 q 192 1198 175 1181 q 231 1214 208 1214 "},"¸":{"ha":463,"x_min":77,"x_max":354,"o":"m 256 8 l 177 8 l 177 -129 q 195 -128 189 -128 q 237 -139 223 -128 q 251 -173 251 -151 q 241 -203 251 -193 q 211 -214 231 -214 q 177 -186 186 -214 l 77 -186 q 212 -293 106 -293 q 312 -255 270 -293 q 354 -165 354 -217 q 323 -100 354 -123 q 256 -76 292 -76 l 256 8 "},"˝":{"ha":463,"x_min":16,"x_max":545,"o":"m 281 1228 l 96 1228 l 16 1018 l 117 1018 l 281 1228 m 545 1228 l 361 1228 l 281 1018 l 382 1018 l 545 1228 "},"˛":{"ha":463,"x_min":106,"x_max":359,"o":"m 178 14 q 106 -109 106 -49 q 144 -186 106 -159 q 241 -214 182 -214 q 359 -185 302 -214 l 331 -117 q 254 -135 288 -135 q 217 -124 229 -135 q 205 -91 205 -113 q 277 14 205 -55 l 178 14 "},"ˇ":{"ha":463,"x_min":-33,"x_max":496,"o":"m 237 1120 l 157 1209 l -33 1209 l 142 1018 l 333 1018 l 496 1209 l 313 1209 l 237 1120 "},"Ł":{"ha":532,"x_min":9,"x_max":524,"o":"m 351 686 l 351 1098 l 65 1098 l 65 621 l 9 608 l 9 492 l 65 505 l 65 0 l 524 0 l 524 220 l 351 220 l 351 569 l 516 606 l 516 723 l 351 686 "},"ł":{"ha":397,"x_min":9,"x_max":387,"o":"m 339 709 l 339 1098 l 57 1098 l 57 623 l 9 608 l 9 492 l 57 507 l 57 0 l 339 0 l 339 592 l 387 606 l 387 723 l 339 709 "},"Š":{"ha":718,"x_min":33,"x_max":686,"o":"m 662 766 l 662 809 q 636 995 662 940 q 533 1085 611 1049 q 343 1121 454 1121 q 170 1088 241 1121 q 65 997 98 1055 q 33 812 33 939 q 56 669 33 725 q 113 581 79 612 q 254 478 148 549 q 388 378 361 408 q 414 252 414 349 q 400 185 414 208 q 358 163 387 163 q 318 180 330 163 q 307 260 307 198 l 307 393 l 42 393 l 42 321 q 67 131 42 198 q 173 20 92 64 q 369 -23 254 -23 q 552 15 473 -23 q 658 108 631 52 q 686 281 686 163 q 636 515 686 442 q 396 701 587 587 q 315 768 330 740 q 300 850 300 795 q 314 914 300 893 q 353 935 327 935 q 387 920 376 935 q 397 847 397 904 l 397 766 l 662 766 m 364 1235 l 284 1324 l 94 1324 l 269 1133 l 460 1133 l 623 1324 l 439 1324 l 364 1235 "},"š":{"ha":654,"x_min":28,"x_max":629,"o":"m 608 612 l 608 665 q 601 764 608 732 q 561 833 594 796 q 464 893 527 871 q 312 916 401 916 q 154 888 222 916 q 57 809 85 861 q 28 650 28 758 q 55 519 28 574 q 202 396 81 464 q 361 300 346 316 q 376 219 376 283 q 365 158 376 172 q 324 143 353 143 q 288 165 297 143 q 279 259 279 186 l 279 316 l 36 316 l 36 273 q 64 104 36 160 q 166 16 92 49 q 345 -16 240 -16 q 506 14 439 -16 q 601 100 572 44 q 629 266 629 156 q 592 416 629 364 q 435 526 555 467 q 317 593 346 570 q 282 635 288 616 q 277 696 277 654 q 288 742 277 726 q 323 757 300 757 q 358 740 351 757 q 366 661 366 724 l 366 612 l 608 612 m 332 1063 l 252 1152 l 62 1152 l 237 960 l 428 960 l 591 1152 l 408 1152 l 332 1063 "},"Ž":{"ha":551,"x_min":8,"x_max":540,"o":"m 534 1098 l 34 1098 l 34 878 l 228 878 l 8 159 l 8 0 l 534 0 l 534 220 l 321 220 l 534 878 l 534 1098 m 281 1235 l 201 1324 l 11 1324 l 185 1133 l 376 1133 l 540 1324 l 356 1324 l 281 1235 "},"ž":{"ha":488,"x_min":-33,"x_max":496,"o":"m 475 900 l 29 900 l 29 720 l 215 720 l 8 189 l 8 0 l 475 0 l 475 180 l 273 180 l 475 701 l 475 900 m 237 1063 l 157 1152 l -33 1152 l 141 960 l 332 960 l 496 1152 l 312 1152 l 237 1063 "},"¦":{"ha":376,"x_min":115,"x_max":262,"o":"m 115 1098 l 115 545 l 262 545 l 262 1098 l 115 1098 m 115 373 l 115 -180 l 262 -180 l 262 373 l 115 373 "},"Ð":{"ha":776,"x_min":9,"x_max":726,"o":"m 65 549 l 65 0 l 425 0 q 578 11 528 0 q 664 51 629 22 q 712 129 699 79 q 726 326 726 178 l 726 711 q 717 920 726 867 q 669 1017 707 973 q 558 1079 631 1060 q 279 1098 486 1098 l 65 1098 l 65 666 l 9 666 l 9 549 l 65 549 m 351 549 l 395 549 l 395 666 l 351 666 l 351 910 q 415 900 398 910 q 436 869 431 890 q 441 774 441 848 l 441 347 q 427 213 441 237 q 351 188 412 188 l 351 549 "},"ð":{"ha":710,"x_min":41,"x_max":669,"o":"m 251 1098 q 308 1032 274 1078 l 195 1001 l 215 939 l 345 975 q 395 838 382 910 q 281 876 348 876 q 147 828 206 876 q 64 716 87 781 q 41 533 41 652 l 41 335 q 66 126 41 191 q 164 22 92 60 q 350 -16 237 -16 q 536 24 463 -16 q 640 136 610 65 q 669 321 669 208 l 669 526 q 651 735 669 658 q 591 887 633 812 q 504 1016 550 962 l 581 1038 l 561 1098 l 452 1071 q 417 1098 435 1085 l 251 1098 m 395 615 l 395 245 q 386 162 395 180 q 356 143 377 143 q 325 162 334 143 q 315 238 315 182 l 315 624 q 323 696 315 675 q 355 716 332 716 q 388 699 380 716 q 395 615 395 682 "},"Ý":{"ha":657,"x_min":-8,"x_max":665,"o":"m 665 1098 l 403 1098 q 323 666 347 842 q 254 1098 316 777 l -8 1098 l 193 397 l 193 0 l 457 0 l 457 397 l 665 1098 m 560 1316 l 319 1316 l 199 1133 l 337 1133 l 560 1316 "},"ý":{"ha":623,"x_min":-8,"x_max":623,"o":"m 623 900 l 374 900 l 330 293 l 241 900 l -8 900 l 142 147 q 159 53 159 64 q 140 24 159 31 q 58 18 122 18 l 58 -126 l 224 -126 q 390 -109 338 -126 q 471 -55 442 -92 q 513 38 500 -18 q 544 249 526 94 l 623 900 m 552 1144 l 311 1144 l 191 960 l 329 960 l 552 1144 "},"Þ":{"ha":697,"x_min":57,"x_max":672,"o":"m 342 893 l 342 1098 l 57 1098 l 57 0 l 342 0 l 342 237 l 419 237 q 577 266 521 237 q 653 344 634 294 q 672 491 672 393 l 672 586 q 662 739 672 692 q 616 822 652 785 q 521 876 581 859 q 342 893 462 893 m 342 705 q 416 688 398 705 q 433 615 433 670 l 433 526 q 418 445 433 465 q 363 426 403 426 l 342 426 l 342 705 "},"þ":{"ha":721,"x_min":49,"x_max":680,"o":"m 323 1098 l 49 1098 l 49 -128 l 323 -128 l 323 78 q 496 -16 395 -16 q 605 15 560 -16 q 665 97 650 45 q 680 272 680 149 l 680 651 q 668 803 680 758 q 610 882 656 848 q 500 916 564 916 q 323 821 395 916 l 323 1098 m 406 638 l 406 252 q 399 162 406 180 q 366 143 393 143 q 331 163 339 143 q 323 265 323 184 l 323 638 q 331 736 323 716 q 366 757 338 757 q 399 739 393 757 q 406 638 406 722 "},"−":{"ha":741,"x_min":43,"x_max":697,"o":"m 43 631 l 43 466 l 697 466 l 697 631 l 43 631 "},"×":{"ha":741,"x_min":50,"x_max":690,"o":"m 50 761 l 254 557 l 52 357 l 169 240 l 371 441 l 572 239 l 689 357 l 488 557 l 690 761 l 573 878 l 370 675 l 167 878 l 50 761 "},"¹":{"ha":340,"x_min":8,"x_max":298,"o":"m 298 1109 l 197 1109 q 8 1018 132 1040 l 8 943 l 27 943 q 102 937 85 943 q 122 919 119 930 q 125 841 125 907 l 125 531 l 298 531 l 298 1109 "},"²":{"ha":441,"x_min":24,"x_max":416,"o":"m 401 636 l 220 636 l 267 696 q 388 862 359 809 q 416 966 416 916 q 364 1076 416 1034 q 210 1119 311 1119 q 94 1092 137 1119 q 37 1028 50 1065 q 24 931 24 991 l 24 906 l 180 906 l 180 964 q 189 1011 180 1000 q 217 1023 197 1023 q 253 982 253 1023 q 223 902 253 953 q 24 618 194 851 l 24 531 l 401 531 l 401 636 "},"³":{"ha":453,"x_min":24,"x_max":429,"o":"m 361 857 q 411 903 400 874 q 422 964 422 932 q 377 1079 422 1039 q 212 1119 332 1119 q 69 1090 113 1119 q 24 976 24 1061 l 24 934 l 197 934 l 197 974 q 203 1015 197 1006 q 227 1023 210 1023 q 248 1015 241 1023 q 256 978 256 1008 l 256 945 q 241 897 256 905 q 153 888 227 888 l 153 797 q 237 785 219 796 q 256 728 256 773 l 256 691 q 250 627 256 639 q 224 616 244 616 q 202 624 207 616 q 197 669 197 633 l 197 755 l 24 755 l 24 717 q 39 602 24 636 q 99 543 53 567 q 228 519 146 519 q 373 555 317 519 q 429 706 429 591 q 410 821 429 794 q 361 857 391 847 "},"½":{"ha":896,"x_min":8,"x_max":871,"o":"m 679 1119 l 576 1119 l 145 -21 l 250 -21 l 679 1119 m 298 1109 l 197 1109 q 8 1018 132 1040 l 8 943 l 27 943 q 102 937 85 943 q 122 919 119 930 q 125 841 125 907 l 125 531 l 298 531 l 298 1109 m 856 105 l 675 105 l 722 165 q 841 331 812 277 q 871 435 871 386 q 818 546 871 503 q 664 589 766 589 q 548 562 591 589 q 492 497 505 534 q 479 400 479 460 l 479 376 l 634 376 l 634 433 q 643 481 634 470 q 671 492 652 492 q 707 452 707 492 q 678 371 707 422 q 479 87 648 320 l 479 0 l 856 0 l 856 105 "},"¼":{"ha":866,"x_min":8,"x_max":850,"o":"m 679 1119 l 576 1119 l 145 -21 l 250 -21 l 679 1119 m 298 1109 l 197 1109 q 8 1018 132 1040 l 8 943 l 27 943 q 102 937 85 943 q 122 919 119 930 q 125 841 125 907 l 125 531 l 298 531 l 298 1109 m 802 579 l 574 579 l 427 203 l 427 100 l 628 100 l 628 0 l 802 0 l 802 100 l 850 100 l 850 206 l 802 206 l 802 579 m 628 206 l 543 206 l 628 433 l 628 206 "},"¾":{"ha":960,"x_min":24,"x_max":943,"o":"m 361 857 q 411 903 400 874 q 422 964 422 932 q 377 1079 422 1039 q 212 1119 332 1119 q 69 1090 113 1119 q 24 976 24 1061 l 24 934 l 197 934 l 197 974 q 203 1015 197 1006 q 227 1023 210 1023 q 248 1015 241 1023 q 256 978 256 1008 l 256 945 q 241 897 256 905 q 153 888 227 888 l 153 797 q 237 785 219 796 q 256 728 256 773 l 256 691 q 250 627 256 639 q 224 616 244 616 q 202 624 207 616 q 197 669 197 633 l 197 755 l 24 755 l 24 717 q 39 602 24 636 q 99 543 53 567 q 228 519 146 519 q 373 555 317 519 q 429 706 429 591 q 410 821 429 794 q 361 857 391 847 m 772 1119 l 669 1119 l 239 -21 l 344 -21 l 772 1119 m 895 579 l 668 579 l 520 203 l 520 100 l 722 100 l 722 0 l 895 0 l 895 100 l 943 100 l 943 206 l 895 206 l 895 579 m 722 206 l 636 206 l 722 433 l 722 206 "},"Ğ":{"ha":766,"x_min":49,"x_max":712,"o":"m 712 694 l 712 741 q 687 947 712 876 q 579 1069 662 1018 q 371 1121 496 1121 q 163 1062 243 1121 q 66 931 83 1002 q 49 703 49 860 l 49 376 q 57 207 49 263 q 98 98 65 150 q 193 12 130 47 q 328 -23 256 -23 q 432 2 388 -23 q 506 79 477 28 l 532 0 l 712 0 l 712 589 l 378 589 l 378 422 l 435 422 l 435 292 q 424 189 435 216 q 382 163 413 163 q 344 186 353 163 q 334 283 334 210 l 334 810 q 344 915 334 895 q 380 935 353 935 q 418 911 410 935 q 427 793 427 888 l 427 694 l 712 694 m 460 1337 q 382 1244 452 1244 q 306 1337 314 1244 l 191 1337 q 244 1189 195 1246 q 382 1133 293 1133 q 521 1189 471 1133 q 575 1337 571 1245 l 460 1337 "},"ğ":{"ha":720,"x_min":41,"x_max":671,"o":"m 671 900 l 416 900 l 397 832 q 321 895 363 874 q 227 916 279 916 q 87 860 133 916 q 41 675 41 804 l 41 349 q 58 211 41 259 q 124 132 76 162 q 245 102 172 102 q 327 119 288 102 q 401 167 366 135 l 401 99 q 391 22 401 41 q 350 4 381 4 q 307 64 307 4 l 41 64 q 123 -111 43 -66 q 333 -155 202 -155 q 510 -131 439 -155 q 619 -61 580 -107 q 665 25 659 -16 q 671 207 671 66 l 671 900 m 397 661 l 397 382 q 389 284 397 306 q 353 262 380 262 q 322 280 330 262 q 315 359 315 298 l 315 661 q 325 738 315 718 q 358 757 334 757 q 390 740 382 757 q 397 661 397 723 m 437 1165 q 359 1072 429 1072 q 283 1165 291 1072 l 168 1165 q 221 1017 172 1074 q 359 960 270 960 q 498 1017 448 960 q 552 1165 548 1073 l 437 1165 "},"İ":{"ha":400,"x_min":57,"x_max":342,"o":"m 342 1098 l 57 1098 l 57 0 l 342 0 l 342 1098 m 288 1309 l 111 1309 l 111 1133 l 288 1133 l 288 1309 "},"Ş":{"ha":718,"x_min":33,"x_max":686,"o":"m 383 -22 q 563 21 487 -21 q 663 116 640 62 q 686 281 686 170 q 636 515 686 442 q 396 701 587 587 q 315 768 330 740 q 300 850 300 795 q 353 935 300 935 q 387 920 376 935 q 397 847 397 904 l 397 766 l 662 766 l 662 809 q 636 995 662 940 q 533 1085 611 1049 q 343 1121 454 1121 q 170 1088 241 1121 q 65 997 98 1055 q 33 812 33 939 q 56 669 33 725 q 113 581 79 612 q 254 478 148 549 q 388 378 361 408 q 414 252 414 349 q 358 163 414 163 q 318 180 330 163 q 307 260 307 198 l 307 393 l 42 393 l 42 321 q 58 159 42 223 q 134 45 73 94 q 304 -18 195 -3 l 304 -87 l 322 -87 q 378 -132 378 -87 q 338 -173 378 -173 q 304 -144 313 -173 l 204 -144 q 339 -252 233 -252 q 439 -214 397 -252 q 481 -125 481 -176 q 450 -59 481 -83 q 383 -35 419 -35 l 383 -22 "},"ş":{"ha":654,"x_min":28,"x_max":629,"o":"m 351 -16 q 516 19 454 -14 q 604 107 579 52 q 629 266 629 161 q 592 416 629 364 q 435 526 555 467 q 317 593 346 570 q 282 635 288 616 q 277 696 277 654 q 323 757 277 757 q 358 740 351 757 q 366 661 366 724 l 366 612 l 608 612 l 608 665 q 601 764 608 732 q 561 833 594 796 q 464 893 527 871 q 312 916 401 916 q 154 888 222 916 q 57 809 85 861 q 28 650 28 758 q 55 519 28 574 q 202 396 81 464 q 361 300 346 316 q 376 219 376 283 q 365 158 376 172 q 324 143 353 143 q 288 165 297 143 q 279 259 279 186 l 279 316 l 36 316 l 36 273 q 62 109 36 158 q 141 29 87 59 q 272 -12 194 -1 l 272 -87 l 290 -87 q 347 -132 347 -87 q 307 -173 347 -173 q 272 -144 281 -173 l 172 -144 q 307 -252 201 -252 q 407 -214 366 -252 q 449 -125 449 -176 q 418 -59 449 -83 q 351 -35 387 -35 l 351 -16 "},"Ć":{"ha":769,"x_min":49,"x_max":724,"o":"m 724 619 l 724 724 q 698 950 724 878 q 590 1072 672 1023 q 382 1121 508 1121 q 217 1089 289 1121 q 105 1003 146 1058 q 57 889 65 948 q 49 711 49 829 l 49 390 q 75 148 49 229 q 183 22 102 68 q 390 -23 264 -23 q 593 31 511 -23 q 700 155 675 84 q 724 397 724 227 l 724 439 l 438 439 l 438 302 q 428 187 438 212 q 387 163 418 163 q 344 187 353 163 q 334 292 334 212 l 334 802 q 344 910 334 885 q 389 935 353 935 q 429 915 420 935 q 438 810 438 894 l 438 619 l 724 619 m 618 1316 l 376 1316 l 257 1133 l 395 1133 l 618 1316 "},"ć":{"ha":687,"x_min":41,"x_max":654,"o":"m 654 560 q 629 756 654 687 q 528 871 604 825 q 345 916 452 916 q 162 870 237 916 q 64 766 87 825 q 41 593 41 708 l 41 338 q 69 135 41 206 q 165 23 97 63 q 349 -16 233 -16 q 501 13 439 -16 q 601 98 563 41 q 647 209 640 155 q 654 370 654 262 l 410 370 l 410 263 q 400 168 410 193 q 363 143 391 143 q 327 167 339 143 q 315 239 315 191 l 315 664 q 323 740 315 723 q 355 757 331 757 q 387 738 378 757 q 396 664 396 718 l 396 560 l 654 560 m 577 1144 l 336 1144 l 216 960 l 354 960 l 577 1144 "},"Č":{"ha":769,"x_min":49,"x_max":724,"o":"m 724 619 l 724 724 q 698 950 724 878 q 590 1072 672 1023 q 382 1121 508 1121 q 217 1089 289 1121 q 105 1003 146 1058 q 57 889 65 948 q 49 711 49 829 l 49 390 q 75 148 49 229 q 183 22 102 68 q 390 -23 264 -23 q 593 31 511 -23 q 700 155 675 84 q 724 397 724 227 l 724 439 l 438 439 l 438 302 q 428 187 438 212 q 387 163 418 163 q 344 187 353 163 q 334 292 334 212 l 334 802 q 344 910 334 885 q 389 935 353 935 q 429 915 420 935 q 438 810 438 894 l 438 619 l 724 619 m 392 1235 l 312 1324 l 122 1324 l 296 1133 l 488 1133 l 651 1324 l 467 1324 l 392 1235 "},"č":{"ha":687,"x_min":41,"x_max":654,"o":"m 654 560 q 629 756 654 687 q 528 871 604 825 q 345 916 452 916 q 162 870 237 916 q 64 766 87 825 q 41 593 41 708 l 41 338 q 69 135 41 206 q 165 23 97 63 q 349 -16 233 -16 q 501 13 439 -16 q 601 98 563 41 q 647 209 640 155 q 654 370 654 262 l 410 370 l 410 263 q 400 168 410 193 q 363 143 391 143 q 327 167 339 143 q 315 239 315 191 l 315 664 q 323 740 315 723 q 355 757 331 757 q 387 738 378 757 q 396 664 396 718 l 396 560 l 654 560 m 351 1063 l 271 1152 l 81 1152 l 256 960 l 447 960 l 610 1152 l 427 1152 l 351 1063 "},"đ":{"ha":722,"x_min":41,"x_max":720,"o":"m 672 1065 l 672 1098 l 398 1098 l 398 1065 l 228 1065 l 228 949 l 398 949 l 398 843 q 228 916 329 916 q 115 883 162 916 q 54 807 67 850 q 41 660 41 764 l 41 239 q 54 95 41 139 q 114 17 67 51 q 224 -16 161 -16 q 398 65 319 -16 l 398 0 l 672 0 l 672 949 l 720 949 l 720 1065 l 672 1065 m 398 673 l 398 257 q 389 162 398 182 q 354 143 380 143 q 323 160 331 143 q 315 233 315 178 l 315 673 q 323 742 315 726 q 356 757 332 757 q 390 740 381 757 q 398 673 398 723 "},"¯":{"ha":767,"x_min":-8,"x_max":775,"o":"m -8 1215 l -8 1146 l 775 1146 l 775 1215 l -8 1215 "},"·":{"ha":463,"x_min":132,"x_max":331,"o":"m 231 572 q 161 544 191 572 q 132 473 132 515 q 161 403 132 432 q 231 374 191 374 q 302 403 273 374 q 331 473 331 432 q 301 544 331 515 q 231 572 271 572 "},"⁴":{"ha":448,"x_min":8,"x_max":431,"o":"m 383 1109 l 156 1109 l 8 734 l 8 631 l 210 631 l 210 531 l 383 531 l 383 631 l 431 631 l 431 736 l 383 736 l 383 1109 m 210 736 l 124 736 l 210 964 l 210 736 "},"Ā":{"ha":705,"x_min":-8,"x_max":713,"o":"m 550 1098 l 137 1098 l -8 0 l 288 0 l 304 197 l 407 197 l 421 0 l 713 0 l 550 1098 m 399 392 l 301 392 q 355 852 312 538 q 399 392 377 578 m 614 1250 l 74 1250 l 74 1133 l 614 1133 l 614 1250 "},"ā":{"ha":700,"x_min":37,"x_max":654,"o":"m 294 551 l 294 646 q 300 739 294 721 q 335 757 307 757 q 370 735 359 757 q 380 644 380 714 q 371 569 380 587 q 227 498 361 551 q 68 412 100 449 q 37 275 37 376 l 37 201 q 97 24 37 64 q 229 -16 157 -16 q 323 8 283 -16 q 388 80 363 32 l 388 0 l 654 0 l 654 452 q 640 746 654 675 q 555 867 626 818 q 346 916 485 916 q 157 873 230 916 q 61 773 85 829 q 37 612 37 716 l 37 551 l 294 551 m 380 428 l 380 243 q 373 159 380 175 q 339 143 365 143 q 303 163 312 143 q 294 254 294 184 q 304 347 294 315 q 380 428 315 380 m 629 1078 l 89 1078 l 89 960 l 629 960 l 629 1078 "},"Ă":{"ha":705,"x_min":-8,"x_max":713,"o":"m 550 1098 l 137 1098 l -8 0 l 288 0 l 304 197 l 407 197 l 421 0 l 713 0 l 550 1098 m 399 392 l 301 392 q 355 852 312 538 q 399 392 377 578 m 420 1337 q 343 1244 412 1244 q 267 1337 275 1244 l 151 1337 q 204 1189 155 1246 q 343 1133 254 1133 q 482 1189 432 1133 q 536 1337 532 1245 l 420 1337 "},"ă":{"ha":700,"x_min":37,"x_max":654,"o":"m 294 551 l 294 646 q 300 739 294 721 q 335 757 307 757 q 370 735 359 757 q 380 644 380 714 q 371 569 380 587 q 227 498 361 551 q 68 412 100 449 q 37 275 37 376 l 37 201 q 97 24 37 64 q 229 -16 157 -16 q 323 8 283 -16 q 388 80 363 32 l 388 0 l 654 0 l 654 452 q 640 746 654 675 q 555 867 626 818 q 346 916 485 916 q 157 873 230 916 q 61 773 85 829 q 37 612 37 716 l 37 551 l 294 551 m 380 428 l 380 243 q 373 159 380 175 q 339 143 365 143 q 303 163 312 143 q 294 254 294 184 q 304 347 294 315 q 380 428 315 380 m 419 1165 q 342 1072 411 1072 q 265 1165 273 1072 l 150 1165 q 203 1017 154 1074 q 342 960 252 960 q 480 1017 431 960 q 534 1165 530 1073 l 419 1165 "},"Ą":{"ha":705,"x_min":-8,"x_max":714,"o":"m 596 0 l 714 0 l 550 1099 l 138 1099 l -8 0 l 288 0 l 304 197 l 407 197 l 421 0 l 496 0 q 439 -110 439 -54 q 475 -186 439 -157 q 574 -215 512 -215 q 692 -184 627 -215 l 664 -117 q 586 -135 620 -135 q 538 -92 538 -135 q 596 0 538 -58 m 301 393 q 355 852 319 587 q 399 393 371 639 l 301 393 "},"ą":{"ha":700,"x_min":37,"x_max":664,"o":"m 568 0 l 656 0 l 656 452 q 653 653 656 595 q 635 763 650 711 q 585 843 619 814 q 493 882 551 871 q 347 893 435 893 q 204 885 250 893 q 113 840 159 878 q 53 750 68 802 q 37 611 37 698 l 37 551 l 294 551 l 294 686 q 306 745 294 733 q 339 757 317 757 q 373 729 363 757 q 382 643 382 702 q 352 552 382 569 q 191 484 321 535 q 64 408 92 444 q 37 275 37 372 l 37 201 q 82 41 37 83 q 229 -1 127 -1 q 330 18 295 -1 q 389 81 365 37 l 389 0 l 468 0 q 411 -110 411 -54 q 448 -186 411 -157 q 546 -215 484 -215 q 664 -184 599 -215 l 636 -117 q 558 -135 592 -135 q 510 -92 510 -135 q 568 0 510 -58 m 382 199 q 340 143 382 143 q 306 160 318 143 q 294 237 294 178 q 310 356 294 327 q 382 428 326 385 l 382 199 "},"Ĉ":{"ha":769,"x_min":49,"x_max":724,"o":"m 724 619 l 724 724 q 698 950 724 878 q 590 1072 672 1023 q 382 1121 508 1121 q 217 1089 289 1121 q 105 1003 146 1058 q 57 889 65 948 q 49 711 49 829 l 49 390 q 75 148 49 229 q 183 22 102 68 q 390 -23 264 -23 q 593 31 511 -23 q 700 155 675 84 q 724 397 724 227 l 724 439 l 438 439 l 438 302 q 428 187 438 212 q 387 163 418 163 q 344 187 353 163 q 334 292 334 212 l 334 802 q 344 910 334 885 q 389 935 353 935 q 429 915 420 935 q 438 810 438 894 l 438 619 l 724 619 m 382 1221 l 458 1133 l 642 1133 l 478 1324 l 287 1324 l 113 1133 l 302 1133 l 382 1221 "},"ĉ":{"ha":687,"x_min":41,"x_max":654,"o":"m 654 560 q 629 756 654 687 q 528 871 604 825 q 345 916 452 916 q 162 870 237 916 q 64 766 87 825 q 41 593 41 708 l 41 338 q 69 135 41 206 q 165 23 97 63 q 349 -16 233 -16 q 501 13 439 -16 q 601 98 563 41 q 647 209 640 155 q 654 370 654 262 l 410 370 l 410 263 q 400 168 410 193 q 363 143 391 143 q 327 167 339 143 q 315 239 315 191 l 315 664 q 323 740 315 723 q 355 757 331 757 q 387 738 378 757 q 396 664 396 718 l 396 560 l 654 560 m 342 1049 l 417 960 l 601 960 l 437 1152 l 246 1152 l 72 960 l 262 960 l 342 1049 "},"Ċ":{"ha":769,"x_min":49,"x_max":724,"o":"m 724 619 l 724 724 q 698 950 724 878 q 590 1072 672 1023 q 382 1121 508 1121 q 217 1089 289 1121 q 105 1003 146 1058 q 57 889 65 948 q 49 711 49 829 l 49 390 q 75 148 49 229 q 183 22 102 68 q 390 -23 264 -23 q 593 31 511 -23 q 700 155 675 84 q 724 397 724 227 l 724 439 l 438 439 l 438 302 q 428 187 438 212 q 387 163 418 163 q 344 187 353 163 q 334 292 334 212 l 334 802 q 344 910 334 885 q 389 935 353 935 q 429 915 420 935 q 438 810 438 894 l 438 619 l 724 619 m 462 1309 l 285 1309 l 285 1133 l 462 1133 l 462 1309 "},"ċ":{"ha":687,"x_min":41,"x_max":654,"o":"m 654 560 q 629 756 654 687 q 528 871 604 825 q 345 916 452 916 q 162 870 237 916 q 64 766 87 825 q 41 593 41 708 l 41 338 q 69 135 41 206 q 165 23 97 63 q 349 -16 233 -16 q 501 13 439 -16 q 601 98 563 41 q 647 209 640 155 q 654 370 654 262 l 410 370 l 410 263 q 400 168 410 193 q 363 143 391 143 q 327 167 339 143 q 315 239 315 191 l 315 664 q 323 740 315 723 q 355 757 331 757 q 387 738 378 757 q 396 664 396 718 l 396 560 l 654 560 m 429 1137 l 252 1137 l 252 960 l 429 960 l 429 1137 "},"Ď":{"ha":768,"x_min":57,"x_max":718,"o":"m 57 1098 l 57 0 l 417 0 q 570 11 519 0 q 656 51 621 22 q 704 129 690 79 q 718 326 718 178 l 718 711 q 709 920 718 867 q 661 1017 699 973 q 550 1079 623 1060 q 271 1098 477 1098 l 57 1098 m 342 910 q 406 900 389 910 q 428 869 423 890 q 433 774 433 848 l 433 347 q 418 213 433 237 q 342 188 404 188 l 342 910 m 375 1235 l 295 1324 l 105 1324 l 279 1133 l 471 1133 l 634 1324 l 450 1324 l 375 1235 "},"ď":{"ha":917,"x_min":41,"x_max":917,"o":"m 672 1098 l 398 1098 l 398 843 q 321 898 363 880 q 228 916 279 916 q 115 883 162 916 q 54 807 67 850 q 41 660 41 764 l 41 239 q 54 95 41 139 q 114 17 67 51 q 224 -16 161 -16 q 315 4 272 -16 q 398 65 359 24 l 398 0 l 672 0 l 672 1098 m 398 673 l 398 257 q 389 162 398 182 q 354 143 380 143 q 323 160 331 143 q 315 233 315 178 l 315 673 q 323 742 315 726 q 356 757 332 757 q 390 740 381 757 q 398 673 398 723 m 732 1098 l 732 924 l 778 924 q 732 863 772 887 l 732 784 q 917 1041 917 823 l 917 1098 l 732 1098 "},"Ē":{"ha":577,"x_min":29,"x_max":569,"o":"m 57 1098 l 57 0 l 552 0 l 552 220 l 342 220 l 342 461 l 521 461 l 521 670 l 342 670 l 342 878 l 533 878 l 533 1098 l 57 1098 m 569 1250 l 29 1250 l 29 1133 l 569 1133 l 569 1250 "},"ē":{"ha":710,"x_min":41,"x_max":669,"o":"m 669 434 l 669 553 q 639 756 669 684 q 534 872 609 829 q 344 916 459 916 q 177 880 250 916 q 73 775 104 844 q 41 589 41 707 l 41 327 q 55 174 41 227 q 106 78 69 121 q 210 9 143 34 q 363 -16 276 -16 q 512 9 452 -16 q 610 85 571 35 q 659 181 648 136 q 669 309 669 226 l 669 376 l 410 376 l 410 257 q 399 166 410 190 q 357 143 389 143 q 323 161 332 143 q 315 239 315 178 l 315 434 l 669 434 m 395 581 l 315 581 l 315 646 q 321 740 315 722 q 357 757 328 757 q 387 736 380 757 q 395 646 395 716 l 395 581 m 626 1078 l 86 1078 l 86 960 l 626 960 l 626 1078 "},"Ĕ":{"ha":577,"x_min":57,"x_max":552,"o":"m 57 1098 l 57 0 l 552 0 l 552 220 l 342 220 l 342 461 l 521 461 l 521 670 l 342 670 l 342 878 l 533 878 l 533 1098 l 57 1098 m 380 1337 q 303 1244 372 1244 q 227 1337 235 1244 l 111 1337 q 164 1189 115 1246 q 303 1133 214 1133 q 442 1189 392 1133 q 496 1337 492 1245 l 380 1337 "},"ĕ":{"ha":710,"x_min":41,"x_max":669,"o":"m 669 434 l 669 553 q 639 756 669 684 q 534 872 609 829 q 344 916 459 916 q 177 880 250 916 q 73 775 104 844 q 41 589 41 707 l 41 327 q 55 174 41 227 q 106 78 69 121 q 210 9 143 34 q 363 -16 276 -16 q 512 9 452 -16 q 610 85 571 35 q 659 181 648 136 q 669 309 669 226 l 669 376 l 410 376 l 410 257 q 399 166 410 190 q 357 143 389 143 q 323 161 332 143 q 315 239 315 178 l 315 434 l 669 434 m 395 581 l 315 581 l 315 646 q 321 740 315 722 q 357 757 328 757 q 387 736 380 757 q 395 646 395 716 l 395 581 m 422 1165 q 345 1072 414 1072 q 268 1165 276 1072 l 153 1165 q 206 1017 157 1074 q 345 960 255 960 q 483 1017 433 960 q 537 1165 533 1073 l 422 1165 "},"Ė":{"ha":577,"x_min":57,"x_max":552,"o":"m 57 1098 l 57 0 l 552 0 l 552 220 l 342 220 l 342 461 l 521 461 l 521 670 l 342 670 l 342 878 l 533 878 l 533 1098 l 57 1098 m 395 1309 l 218 1309 l 218 1133 l 395 1133 l 395 1309 "},"ė":{"ha":710,"x_min":41,"x_max":669,"o":"m 669 434 l 669 553 q 639 756 669 684 q 534 872 609 829 q 344 916 459 916 q 177 880 250 916 q 73 775 104 844 q 41 589 41 707 l 41 327 q 55 174 41 227 q 106 78 69 121 q 210 9 143 34 q 363 -16 276 -16 q 512 9 452 -16 q 610 85 571 35 q 659 181 648 136 q 669 309 669 226 l 669 376 l 410 376 l 410 257 q 399 166 410 190 q 357 143 389 143 q 323 161 332 143 q 315 239 315 178 l 315 434 l 669 434 m 395 581 l 315 581 l 315 646 q 321 740 315 722 q 357 757 328 757 q 387 736 380 757 q 395 646 395 716 l 395 581 m 429 1137 l 252 1137 l 252 960 l 429 960 l 429 1137 "},"Ę":{"ha":576,"x_min":57,"x_max":583,"o":"m 387 0 q 330 -110 330 -54 q 367 -186 330 -157 q 465 -215 404 -215 q 583 -184 518 -215 l 555 -117 q 478 -135 511 -135 q 429 -92 429 -135 q 488 0 429 -58 l 551 0 l 551 220 l 343 220 l 343 461 l 521 461 l 521 669 l 343 669 l 343 879 l 533 879 l 533 1099 l 57 1099 l 57 0 l 387 0 "},"ę":{"ha":710,"x_min":40,"x_max":668,"o":"m 416 0 q 534 26 486 4 q 617 96 583 48 q 660 190 651 144 q 668 310 668 235 l 668 376 l 410 376 l 410 237 q 397 164 410 184 q 357 143 385 143 q 325 159 336 143 q 314 239 314 174 l 314 433 l 668 433 l 668 553 q 644 745 668 671 q 546 860 621 819 q 343 900 471 900 q 197 880 259 900 q 99 816 136 859 q 52 718 63 773 q 40 589 40 662 l 40 326 q 48 198 40 248 q 89 102 56 149 q 179 31 121 56 q 317 0 237 5 q 260 -110 260 -54 q 296 -186 260 -157 q 395 -215 333 -215 q 513 -184 448 -215 l 485 -117 q 407 -135 441 -135 q 358 -92 358 -135 q 416 0 358 -56 m 314 690 q 324 743 314 730 q 355 755 334 755 q 388 732 382 755 q 395 646 395 709 l 395 581 l 314 581 l 314 690 "},"Ě":{"ha":577,"x_min":33,"x_max":562,"o":"m 57 1098 l 57 0 l 552 0 l 552 220 l 342 220 l 342 461 l 521 461 l 521 670 l 342 670 l 342 878 l 533 878 l 533 1098 l 57 1098 m 303 1235 l 223 1324 l 33 1324 l 208 1133 l 399 1133 l 562 1324 l 378 1324 l 303 1235 "},"ě":{"ha":710,"x_min":41,"x_max":669,"o":"m 669 434 l 669 553 q 639 756 669 684 q 534 872 609 829 q 344 916 459 916 q 177 880 250 916 q 73 775 104 844 q 41 589 41 707 l 41 327 q 55 174 41 227 q 106 78 69 121 q 210 9 143 34 q 363 -16 276 -16 q 512 9 452 -16 q 610 85 571 35 q 659 181 648 136 q 669 309 669 226 l 669 376 l 410 376 l 410 257 q 399 166 410 190 q 357 143 389 143 q 323 161 332 143 q 315 239 315 178 l 315 434 l 669 434 m 395 581 l 315 581 l 315 646 q 321 740 315 722 q 357 757 328 757 q 387 736 380 757 q 395 646 395 716 l 395 581 m 345 1063 l 265 1152 l 75 1152 l 250 960 l 441 960 l 604 1152 l 420 1152 l 345 1063 "},"Ĝ":{"ha":766,"x_min":49,"x_max":712,"o":"m 712 692 l 712 740 q 687 946 712 875 q 579 1068 662 1017 q 371 1120 496 1120 q 163 1060 243 1120 q 66 930 83 1001 q 49 701 49 859 l 49 375 q 57 205 49 262 q 98 97 65 149 q 193 11 130 45 q 328 -24 256 -24 q 432 1 388 -24 q 506 77 477 26 l 532 -1 l 712 -1 l 712 588 l 378 588 l 378 421 l 435 421 l 435 291 q 424 188 435 214 q 382 161 413 161 q 344 185 353 161 q 334 282 334 208 l 334 809 q 344 913 334 893 q 380 934 353 934 q 418 910 410 934 q 427 792 427 886 l 427 692 l 712 692 m 385 1221 l 460 1133 l 644 1133 l 481 1324 l 290 1324 l 115 1133 l 305 1133 l 385 1221 "},"ĝ":{"ha":720,"x_min":41,"x_max":671,"o":"m 671 900 l 416 900 l 397 832 q 321 895 363 874 q 227 916 279 916 q 87 860 133 916 q 41 675 41 804 l 41 349 q 58 211 41 259 q 124 132 76 162 q 245 102 172 102 q 327 119 288 102 q 401 167 366 135 l 401 99 q 391 22 401 41 q 350 4 381 4 q 307 64 307 4 l 41 64 q 123 -111 43 -66 q 333 -155 202 -155 q 510 -131 439 -155 q 619 -61 580 -107 q 665 25 659 -16 q 671 207 671 66 l 671 900 m 397 661 l 397 382 q 389 284 397 306 q 353 262 380 262 q 322 280 330 262 q 315 359 315 298 l 315 661 q 325 738 315 718 q 358 757 334 757 q 390 740 382 757 q 397 661 397 723 m 376 1049 l 451 960 l 635 960 l 471 1152 l 280 1152 l 106 960 l 296 960 l 376 1049 "},"Ġ":{"ha":766,"x_min":49,"x_max":712,"o":"m 712 692 l 712 740 q 687 946 712 875 q 579 1068 662 1017 q 371 1120 496 1120 q 163 1060 243 1120 q 66 930 83 1001 q 49 701 49 859 l 49 375 q 57 205 49 262 q 98 97 65 149 q 193 11 130 45 q 328 -24 256 -24 q 432 1 388 -24 q 506 77 477 26 l 532 -1 l 712 -1 l 712 588 l 378 588 l 378 421 l 435 421 l 435 291 q 424 188 435 214 q 382 161 413 161 q 344 185 353 161 q 334 282 334 208 l 334 809 q 344 913 334 893 q 380 934 353 934 q 418 910 410 934 q 427 792 427 886 l 427 692 l 712 692 m 471 1309 l 294 1309 l 294 1133 l 471 1133 l 471 1309 "},"ġ":{"ha":720,"x_min":41,"x_max":671,"o":"m 671 900 l 416 900 l 397 832 q 321 895 363 874 q 227 916 279 916 q 87 860 133 916 q 41 675 41 804 l 41 349 q 58 211 41 259 q 124 132 76 162 q 245 102 172 102 q 327 119 288 102 q 401 167 366 135 l 401 99 q 391 22 401 41 q 350 4 381 4 q 307 64 307 4 l 41 64 q 123 -111 43 -66 q 333 -155 202 -155 q 510 -131 439 -155 q 619 -61 580 -107 q 665 25 659 -16 q 671 207 671 66 l 671 900 m 397 661 l 397 382 q 389 284 397 306 q 353 262 380 262 q 322 280 330 262 q 315 359 315 298 l 315 661 q 325 738 315 718 q 358 757 334 757 q 390 740 382 757 q 397 661 397 723 m 463 1137 l 286 1137 l 286 960 l 463 960 l 463 1137 "},"Ģ":{"ha":766,"x_min":49,"x_max":712,"o":"m 712 694 l 712 741 q 687 947 712 876 q 579 1069 662 1018 q 371 1121 496 1121 q 163 1062 243 1121 q 66 931 83 1002 q 49 703 49 860 l 49 376 q 57 207 49 263 q 98 98 65 150 q 193 12 130 47 q 328 -23 256 -23 q 432 2 388 -23 q 506 79 477 28 l 532 0 l 712 0 l 712 589 l 378 589 l 378 422 l 435 422 l 435 292 q 424 189 435 216 q 382 163 413 163 q 344 186 353 163 q 334 283 334 210 l 334 810 q 344 915 334 895 q 380 935 353 935 q 418 911 410 935 q 427 793 427 888 l 427 694 l 712 694 m 290 -54 l 290 -228 l 336 -228 q 290 -289 330 -265 l 290 -368 q 475 -111 475 -330 l 475 -54 l 290 -54 "},"ģ":{"ha":720,"x_min":41,"x_max":671,"o":"m 671 900 l 416 900 l 397 832 q 321 895 363 874 q 227 916 279 916 q 87 860 133 916 q 41 675 41 804 l 41 349 q 58 211 41 259 q 124 132 76 162 q 245 102 172 102 q 327 119 288 102 q 401 167 366 135 l 401 99 q 391 22 401 41 q 350 4 381 4 q 307 64 307 4 l 41 64 q 123 -111 43 -66 q 333 -155 202 -155 q 510 -131 439 -155 q 619 -61 580 -107 q 665 25 659 -16 q 671 207 671 66 l 671 900 m 397 661 l 397 382 q 389 284 397 306 q 353 262 380 262 q 322 280 330 262 q 315 359 315 298 l 315 661 q 325 738 315 718 q 358 757 334 757 q 390 740 382 757 q 397 661 397 723 m 273 960 l 456 960 l 456 1175 l 411 1175 q 456 1237 416 1214 l 456 1316 q 355 1270 400 1304 q 291 1185 310 1235 q 273 1059 273 1136 l 273 960 "},"Ĥ":{"ha":771,"x_min":57,"x_max":713,"o":"m 713 1098 l 428 1098 l 428 705 l 342 705 l 342 1098 l 57 1098 l 57 0 l 342 0 l 342 461 l 428 461 l 428 0 l 713 0 l 713 1098 m 387 1221 l 462 1133 l 646 1133 l 482 1324 l 291 1324 l 117 1133 l 307 1133 l 387 1221 "},"ĥ":{"ha":728,"x_min":49,"x_max":682,"o":"m 323 1098 l 49 1098 l 49 0 l 323 0 l 323 642 q 332 734 323 711 q 366 757 340 757 q 400 734 393 757 q 408 633 408 712 l 408 0 l 682 0 l 682 621 q 671 795 682 747 q 609 880 660 843 q 487 916 559 916 q 399 900 440 916 q 323 851 358 884 l 323 1098 m 373 1221 l 448 1133 l 632 1133 l 469 1324 l 277 1324 l 103 1133 l 293 1133 l 373 1221 "},"Ħ":{"ha":771,"x_min":9,"x_max":760,"o":"m 57 951 l 9 951 l 9 835 l 57 835 l 57 0 l 343 0 l 343 461 l 428 461 l 428 0 l 714 0 l 714 835 l 760 835 l 760 951 l 714 951 l 714 1099 l 428 1099 l 428 951 l 343 951 l 343 1099 l 57 1099 l 57 951 m 343 835 l 428 835 l 428 705 l 343 705 l 343 835 "},"ħ":{"ha":728,"x_min":0,"x_max":682,"o":"m 49 1057 l 0 1057 l 0 940 l 49 940 l 49 0 l 322 0 l 322 643 q 332 733 322 711 q 366 755 341 755 q 401 730 395 755 q 408 633 408 705 l 408 0 l 682 0 l 682 621 q 671 791 682 739 q 612 872 661 844 q 486 900 564 900 q 322 851 374 900 l 322 940 l 386 940 l 386 1057 l 322 1057 l 322 1099 l 49 1099 l 49 1057 "},"Ĩ":{"ha":400,"x_min":-85,"x_max":488,"o":"m 342 1098 l 57 1098 l 57 0 l 342 0 l 342 1098 m 488 1261 l 378 1339 q 304 1278 360 1278 q 232 1298 285 1278 l 190 1314 q 83 1335 132 1335 q -85 1204 -10 1335 l 22 1133 q 105 1200 55 1200 q 177 1181 129 1200 l 227 1161 q 331 1139 283 1139 q 411 1166 366 1139 q 488 1261 456 1193 "},"ĩ":{"ha":380,"x_min":-96,"x_max":477,"o":"m 331 900 l 49 900 l 49 0 l 331 0 l 331 900 m 477 1089 l 368 1167 q 293 1106 349 1106 q 221 1126 274 1106 l 179 1141 q 73 1163 121 1163 q -96 1031 -21 1163 l 12 960 q 94 1028 44 1028 q 166 1008 118 1028 l 216 989 q 320 966 272 966 q 400 994 355 966 q 477 1089 446 1021 "},"Ī":{"ha":400,"x_min":-69,"x_max":471,"o":"m 342 1098 l 57 1098 l 57 0 l 342 0 l 342 1098 m 471 1250 l -69 1250 l -69 1133 l 471 1133 l 471 1250 "},"ī":{"ha":380,"x_min":-79,"x_max":460,"o":"m 331 900 l 49 900 l 49 0 l 331 0 l 331 900 m 460 1078 l -79 1078 l -79 960 l 460 960 l 460 1078 "},"Ĭ":{"ha":400,"x_min":4,"x_max":389,"o":"m 342 1098 l 57 1098 l 57 0 l 342 0 l 342 1098 m 273 1337 q 196 1244 265 1244 q 119 1337 127 1244 l 4 1337 q 57 1189 8 1246 q 196 1133 106 1133 q 335 1189 285 1133 q 389 1337 385 1245 l 273 1337 "},"ĭ":{"ha":380,"x_min":-1,"x_max":383,"o":"m 331 900 l 49 900 l 49 0 l 331 0 l 331 900 m 268 1165 q 191 1072 260 1072 q 114 1165 122 1072 l -1 1165 q 52 1017 3 1074 q 191 960 101 960 q 329 1017 279 960 q 383 1165 379 1073 l 268 1165 "},"Į":{"ha":400,"x_min":57,"x_max":358,"o":"m 163 0 q 106 -110 106 -54 q 142 -186 106 -157 q 240 -215 178 -215 q 358 -184 293 -215 l 330 -117 q 253 -135 287 -135 q 204 -92 204 -135 q 262 0 204 -58 l 343 0 l 343 1099 l 57 1099 l 57 0 l 163 0 "},"į":{"ha":380,"x_min":49,"x_max":345,"o":"m 149 0 q 92 -110 92 -54 q 128 -186 92 -157 q 227 -215 165 -215 q 345 -184 279 -215 l 317 -117 q 239 -135 273 -135 q 191 -92 191 -135 q 249 0 191 -58 l 330 0 l 330 900 l 49 900 l 49 0 l 149 0 "},"Ĳ":{"ha":869,"x_min":57,"x_max":812,"o":"m 57 0 l 343 0 l 343 1099 l 57 1099 l 57 0 m 526 279 q 509 210 526 230 q 456 191 492 191 l 418 192 l 418 0 l 561 0 q 763 47 713 0 q 812 244 812 94 l 812 1099 l 526 1099 l 526 279 "},"ĳ":{"ha":768,"x_min":49,"x_max":720,"o":"m 49 957 l 330 957 l 330 1099 l 49 1099 l 49 957 m 437 957 l 720 957 l 720 1099 l 437 1099 l 437 957 m 49 0 l 330 0 l 330 900 l 49 900 l 49 0 m 437 106 q 435 41 437 56 q 424 22 433 25 q 376 18 414 18 l 376 -126 l 482 -126 q 666 -79 613 -126 q 720 103 720 -31 l 720 900 l 437 900 l 437 106 "},"Ĵ":{"ha":460,"x_min":-11,"x_max":518,"o":"m 406 1098 l 121 1098 l 121 326 q 118 241 121 263 q 98 205 115 220 q 50 190 80 190 q 12 192 38 190 l 12 0 l 155 0 q 297 15 250 0 q 372 67 345 29 q 403 152 399 105 q 406 364 406 199 l 406 1098 m 259 1221 l 334 1133 l 518 1133 l 355 1324 l 163 1324 l -11 1133 l 179 1133 l 259 1221 "},"ĵ":{"ha":389,"x_min":-75,"x_max":454,"o":"m 269 1018 l 454 1018 l 290 1210 l 100 1210 l -75 1018 l 115 1018 l 195 1107 l 269 1018 m 57 106 q 55 41 57 56 q 43 22 52 25 q -4 18 34 18 l -4 -126 l 102 -126 q 286 -79 233 -126 q 339 103 339 -31 l 339 900 l 57 900 l 57 106 "},"Ķ":{"ha":745,"x_min":57,"x_max":753,"o":"m 737 1098 l 469 1098 l 342 671 l 342 1098 l 57 1098 l 57 0 l 342 0 l 342 471 l 458 0 l 753 0 l 574 602 l 737 1098 m 311 -54 l 311 -228 l 357 -228 q 311 -289 351 -265 l 311 -368 q 496 -111 496 -330 l 496 -54 l 311 -54 "},"ķ":{"ha":664,"x_min":49,"x_max":672,"o":"m 639 900 l 408 900 l 323 637 l 323 1098 l 49 1098 l 49 0 l 323 0 l 323 392 l 408 0 l 672 0 l 528 541 l 639 900 m 269 -54 l 269 -228 l 315 -228 q 269 -289 309 -265 l 269 -368 q 454 -111 454 -330 l 454 -54 l 269 -54 "},"ĸ":{"ha":718,"x_min":49,"x_max":721,"o":"m 322 554 l 322 900 l 49 900 l 49 0 l 322 0 l 322 397 l 454 0 l 721 0 l 538 507 l 707 900 l 469 900 l 322 554 "},"Ĺ":{"ha":528,"x_min":57,"x_max":516,"o":"m 342 1098 l 57 1098 l 57 0 l 516 0 l 516 220 l 342 220 l 342 1098 m 469 1316 l 228 1316 l 109 1133 l 246 1133 l 469 1316 "},"ĺ":{"ha":380,"x_min":49,"x_max":425,"o":"m 331 1098 l 49 1098 l 49 0 l 331 0 l 331 1098 m 425 1316 l 183 1316 l 64 1133 l 201 1133 l 425 1316 "},"Ļ":{"ha":528,"x_min":57,"x_max":516,"o":"m 342 1098 l 57 1098 l 57 0 l 516 0 l 516 220 l 342 220 l 342 1098 m 215 -54 l 215 -228 l 260 -228 q 215 -289 254 -265 l 215 -368 q 399 -111 399 -330 l 399 -54 l 215 -54 "},"ļ":{"ha":380,"x_min":49,"x_max":331,"o":"m 331 1098 l 49 1098 l 49 0 l 331 0 l 331 1098 m 98 -54 l 98 -228 l 143 -228 q 98 -289 137 -265 l 98 -368 q 282 -111 282 -330 l 282 -54 l 98 -54 "},"Ľ":{"ha":600,"x_min":57,"x_max":589,"o":"m 342 1098 l 57 1098 l 57 0 l 516 0 l 516 220 l 342 220 l 342 1098 m 404 1099 l 404 925 l 450 925 q 404 864 444 888 l 404 785 q 589 1042 589 823 l 589 1099 l 404 1099 "},"ľ":{"ha":596,"x_min":49,"x_max":582,"o":"m 331 1098 l 49 1098 l 49 0 l 331 0 l 331 1098 m 397 1099 l 397 925 l 443 925 q 397 864 437 888 l 397 785 q 582 1042 582 823 l 582 1099 l 397 1099 "},"Ŀ":{"ha":591,"x_min":57,"x_max":566,"o":"m 342 1098 l 57 1098 l 57 0 l 516 0 l 516 220 l 342 220 l 342 1098 m 566 833 l 389 833 l 389 656 l 566 656 l 566 833 "},"ŀ":{"ha":591,"x_min":49,"x_max":566,"o":"m 331 1098 l 49 1098 l 49 0 l 331 0 l 331 1098 m 566 833 l 389 833 l 389 656 l 566 656 l 566 833 "},"Ń":{"ha":752,"x_min":57,"x_max":694,"o":"m 694 1098 l 456 1098 l 456 604 l 296 1098 l 57 1098 l 57 0 l 296 0 l 296 499 l 444 0 l 694 0 l 694 1098 m 594 1316 l 353 1316 l 233 1133 l 371 1133 l 594 1316 "},"ń":{"ha":726,"x_min":49,"x_max":681,"o":"m 328 900 l 49 900 l 49 0 l 323 0 l 323 608 q 330 733 323 710 q 367 757 338 757 q 401 736 395 757 q 407 623 407 716 l 407 0 l 681 0 l 681 631 q 668 799 681 749 q 610 883 655 850 q 495 916 566 916 q 396 891 439 916 q 323 817 353 867 l 328 900 m 561 1144 l 319 1144 l 200 960 l 338 960 l 561 1144 "},"Ņ":{"ha":752,"x_min":57,"x_max":694,"o":"m 694 1098 l 456 1098 l 456 604 l 296 1098 l 57 1098 l 57 0 l 296 0 l 296 499 l 444 0 l 694 0 l 694 1098 m 283 -54 l 283 -228 l 329 -228 q 283 -289 323 -265 l 283 -368 q 468 -111 468 -330 l 468 -54 l 283 -54 "},"ņ":{"ha":726,"x_min":49,"x_max":681,"o":"m 328 900 l 49 900 l 49 0 l 323 0 l 323 608 q 330 733 323 710 q 367 757 338 757 q 401 736 395 757 q 407 623 407 716 l 407 0 l 681 0 l 681 631 q 668 799 681 749 q 610 883 655 850 q 495 916 566 916 q 396 891 439 916 q 323 817 353 867 l 328 900 m 271 -54 l 271 -228 l 316 -228 q 271 -289 310 -265 l 271 -368 q 455 -111 455 -330 l 455 -54 l 271 -54 "},"Ň":{"ha":752,"x_min":57,"x_max":694,"o":"m 694 1098 l 456 1098 l 456 604 l 296 1098 l 57 1098 l 57 0 l 296 0 l 296 499 l 444 0 l 694 0 l 694 1098 m 366 1235 l 286 1324 l 96 1324 l 270 1133 l 461 1133 l 625 1324 l 441 1324 l 366 1235 "},"ň":{"ha":726,"x_min":49,"x_max":681,"o":"m 328 900 l 49 900 l 49 0 l 323 0 l 323 608 q 330 733 323 710 q 367 757 338 757 q 401 736 395 757 q 407 623 407 716 l 407 0 l 681 0 l 681 631 q 668 799 681 749 q 610 883 655 850 q 495 916 566 916 q 396 891 439 916 q 323 817 353 867 l 328 900 m 359 1063 l 279 1152 l 89 1152 l 263 960 l 454 960 l 618 1152 l 434 1152 l 359 1063 "},"ŉ":{"ha":909,"x_min":7,"x_max":861,"o":"m 508 896 l 229 896 l 229 -4 l 503 -4 l 503 604 q 511 729 503 706 q 547 753 518 753 q 581 732 575 753 q 587 619 587 712 l 587 -4 l 861 -4 l 861 627 q 848 795 861 745 q 791 879 836 846 q 675 912 746 912 q 576 887 619 912 q 503 813 533 863 l 508 896 m 7 1099 l 7 925 l 52 925 q 7 864 46 888 l 7 785 q 191 1042 191 823 l 191 1099 l 7 1099 "},"Ŋ":{"ha":768,"x_min":57,"x_max":715,"o":"m 464 0 q 580 26 527 0 q 667 106 633 52 q 708 233 701 161 q 715 456 715 304 l 715 643 q 691 944 715 882 q 622 1051 667 1006 q 473 1096 576 1096 q 397 1078 437 1096 q 343 1042 357 1061 l 343 1099 l 57 1099 l 57 0 l 343 0 l 343 889 q 355 920 343 904 q 385 936 367 936 q 422 910 415 936 q 429 815 429 884 l 429 232 q 422 162 429 178 q 396 144 416 145 l 396 0 l 464 0 "},"ŋ":{"ha":726,"x_min":49,"x_max":681,"o":"m 453 -171 q 681 62 681 -171 l 681 631 q 675 768 681 722 q 644 848 669 813 q 584 896 619 884 q 494 908 548 908 q 322 817 380 908 l 328 900 l 49 900 l 49 0 l 322 0 l 322 608 q 329 729 322 701 q 367 757 335 757 q 401 734 396 757 q 407 624 407 712 l 407 61 q 398 -21 407 -16 q 347 -26 389 -26 l 347 -171 l 453 -171 "},"Ō":{"ha":759,"x_min":49,"x_max":709,"o":"m 709 453 l 709 641 q 701 878 709 810 q 650 1004 693 946 q 537 1090 608 1061 q 379 1119 467 1119 q 216 1088 286 1119 q 105 1001 146 1058 q 57 875 64 944 q 49 641 49 806 l 49 453 q 57 216 49 283 q 108 90 65 148 q 221 4 151 33 q 379 -25 291 -25 q 542 5 472 -25 q 653 93 612 36 q 702 219 694 150 q 709 453 709 288 m 424 814 l 424 309 q 416 186 424 212 q 378 161 408 161 q 342 183 350 161 q 334 301 334 205 l 334 814 q 346 916 334 899 q 380 933 358 933 q 415 912 407 933 q 424 814 424 890 m 646 1250 l 106 1250 l 106 1133 l 646 1133 l 646 1250 "},"ō":{"ha":710,"x_min":41,"x_max":669,"o":"m 669 584 q 655 726 669 680 q 606 817 642 773 q 504 889 570 861 q 346 916 438 916 q 165 873 236 916 q 68 760 95 831 q 41 564 41 690 l 41 334 q 56 162 41 219 q 105 64 71 104 q 203 4 140 24 q 357 -16 267 -16 q 502 7 439 -16 q 604 80 564 31 q 656 185 644 129 q 669 363 669 242 l 669 584 m 395 652 l 395 237 q 387 161 395 178 q 355 143 379 143 q 323 162 331 143 q 315 245 315 182 l 315 652 q 323 739 315 721 q 355 757 331 757 q 387 739 380 757 q 395 652 395 721 m 623 1078 l 83 1078 l 83 960 l 623 960 l 623 1078 "},"Ŏ":{"ha":759,"x_min":49,"x_max":709,"o":"m 709 453 l 709 641 q 701 878 709 810 q 650 1004 693 946 q 537 1090 608 1061 q 379 1119 467 1119 q 216 1088 286 1119 q 105 1001 146 1058 q 57 875 64 944 q 49 641 49 806 l 49 453 q 57 216 49 283 q 108 90 65 148 q 221 4 151 33 q 379 -25 291 -25 q 542 5 472 -25 q 653 93 612 36 q 702 219 694 150 q 709 453 709 288 m 424 814 l 424 309 q 416 186 424 212 q 378 161 408 161 q 342 183 350 161 q 334 301 334 205 l 334 814 q 346 916 334 899 q 380 933 358 933 q 415 912 407 933 q 424 814 424 890 m 452 1337 q 375 1244 444 1244 q 298 1337 307 1244 l 183 1337 q 236 1189 187 1246 q 375 1133 286 1133 q 514 1189 464 1133 q 568 1337 564 1245 l 452 1337 "},"ŏ":{"ha":710,"x_min":41,"x_max":669,"o":"m 669 584 q 655 726 669 680 q 606 817 642 773 q 504 889 570 861 q 346 916 438 916 q 165 873 236 916 q 68 760 95 831 q 41 564 41 690 l 41 334 q 56 162 41 219 q 105 64 71 104 q 203 4 140 24 q 357 -16 267 -16 q 502 7 439 -16 q 604 80 564 31 q 656 185 644 129 q 669 363 669 242 l 669 584 m 395 652 l 395 237 q 387 161 395 178 q 355 143 379 143 q 323 162 331 143 q 315 245 315 182 l 315 652 q 323 739 315 721 q 355 757 331 757 q 387 739 380 757 q 395 652 395 721 m 425 1165 q 347 1072 416 1072 q 271 1165 279 1072 l 155 1165 q 209 1017 159 1074 q 347 960 258 960 q 486 1017 436 960 q 540 1165 536 1073 l 425 1165 "},"Ő":{"ha":759,"x_min":49,"x_max":709,"o":"m 709 453 l 709 641 q 701 878 709 810 q 650 1004 693 946 q 537 1090 608 1061 q 379 1119 467 1119 q 216 1088 286 1119 q 105 1001 146 1058 q 57 875 64 944 q 49 641 49 806 l 49 453 q 57 216 49 283 q 108 90 65 148 q 221 4 151 33 q 379 -25 291 -25 q 542 5 472 -25 q 653 93 612 36 q 702 219 694 150 q 709 453 709 288 m 424 814 l 424 309 q 416 186 424 212 q 378 161 408 161 q 342 183 350 161 q 334 301 334 205 l 334 814 q 346 916 334 899 q 380 933 358 933 q 415 912 407 933 q 424 814 424 890 m 420 1343 l 235 1343 l 155 1133 l 256 1133 l 420 1343 m 684 1343 l 500 1343 l 420 1133 l 521 1133 l 684 1343 "},"ő":{"ha":710,"x_min":41,"x_max":669,"o":"m 669 584 q 655 726 669 680 q 606 817 642 773 q 504 889 570 861 q 346 916 438 916 q 165 873 236 916 q 68 760 95 831 q 41 564 41 690 l 41 334 q 56 162 41 219 q 105 64 71 104 q 203 4 140 24 q 357 -16 267 -16 q 502 7 439 -16 q 604 80 564 31 q 656 185 644 129 q 669 363 669 242 l 669 584 m 395 652 l 395 237 q 387 161 395 178 q 355 143 379 143 q 323 162 331 143 q 315 245 315 182 l 315 652 q 323 739 315 721 q 355 757 331 757 q 387 739 380 757 q 395 652 395 721 m 392 1171 l 208 1171 l 127 960 l 229 960 l 392 1171 m 656 1171 l 472 1171 l 392 960 l 493 960 l 656 1171 "},"Ŕ":{"ha":748,"x_min":57,"x_max":694,"o":"m 57 1098 l 57 0 l 342 0 l 342 495 q 415 474 401 495 q 429 365 429 453 l 429 0 l 694 0 l 694 290 q 687 452 694 422 q 651 517 680 481 q 537 573 622 552 q 663 626 631 582 q 694 798 694 670 q 649 1003 694 939 q 533 1082 604 1067 q 259 1098 461 1098 l 57 1098 m 342 910 q 411 894 392 910 q 429 825 429 878 l 429 765 q 410 679 429 692 q 342 666 391 666 l 342 910 m 574 1406 l 333 1406 l 214 1222 l 351 1222 l 574 1406 "},"ŕ":{"ha":497,"x_min":49,"x_max":485,"o":"m 323 900 l 49 900 l 49 0 l 323 0 l 323 355 q 331 523 323 486 q 374 579 339 559 q 485 600 410 600 l 485 916 q 312 782 372 909 l 323 900 m 464 1202 l 222 1202 l 103 1018 l 241 1018 l 464 1202 "},"Ŗ":{"ha":748,"x_min":57,"x_max":694,"o":"m 57 1098 l 57 0 l 342 0 l 342 495 q 415 474 401 495 q 429 365 429 453 l 429 0 l 694 0 l 694 290 q 687 452 694 422 q 651 517 680 481 q 537 573 622 552 q 663 626 631 582 q 694 798 694 670 q 649 1003 694 939 q 533 1082 604 1067 q 259 1098 461 1098 l 57 1098 m 342 910 q 411 894 392 910 q 429 825 429 878 l 429 765 q 410 679 429 692 q 342 666 391 666 l 342 910 m 281 -54 l 281 -228 l 327 -228 q 281 -289 321 -265 l 281 -368 q 466 -111 466 -330 l 466 -54 l 281 -54 "},"ŗ":{"ha":497,"x_min":49,"x_max":485,"o":"m 323 900 l 49 900 l 49 0 l 323 0 l 323 355 q 331 523 323 486 q 374 579 339 559 q 485 600 410 600 l 485 916 q 312 782 372 909 l 323 900 m 94 -54 l 94 -228 l 140 -228 q 94 -289 134 -265 l 94 -368 q 279 -111 279 -330 l 279 -54 l 94 -54 "},"Ř":{"ha":748,"x_min":57,"x_max":694,"o":"m 57 1098 l 57 0 l 342 0 l 342 495 q 415 474 401 495 q 429 365 429 453 l 429 0 l 694 0 l 694 290 q 687 452 694 422 q 651 517 680 481 q 537 573 622 552 q 663 626 631 582 q 694 798 694 670 q 649 1003 694 939 q 533 1082 604 1067 q 259 1098 461 1098 l 57 1098 m 342 910 q 411 894 392 910 q 429 825 429 878 l 429 765 q 410 679 429 692 q 342 666 391 666 l 342 910 m 356 1235 l 276 1324 l 86 1324 l 260 1133 l 452 1133 l 615 1324 l 431 1324 l 356 1235 "},"ř":{"ha":497,"x_min":-20,"x_max":509,"o":"m 323 900 l 49 900 l 49 0 l 323 0 l 323 355 q 331 523 323 486 q 374 579 339 559 q 485 600 410 600 l 485 916 q 312 782 372 909 l 323 900 m 250 1063 l 170 1152 l -20 1152 l 155 960 l 346 960 l 509 1152 l 326 1152 l 250 1063 "},"Ś":{"ha":718,"x_min":33,"x_max":686,"o":"m 662 764 l 662 807 q 636 992 662 938 q 533 1083 611 1047 q 343 1119 454 1119 q 170 1086 241 1119 q 65 995 98 1053 q 33 810 33 937 q 56 667 33 723 q 113 578 79 610 q 254 476 148 547 q 388 376 361 406 q 414 250 414 347 q 400 183 414 205 q 358 161 387 161 q 318 178 330 161 q 307 258 307 196 l 307 391 l 42 391 l 42 319 q 67 129 42 196 q 173 18 92 62 q 369 -25 254 -25 q 552 13 473 -25 q 658 106 631 50 q 686 279 686 161 q 636 513 686 440 q 396 699 587 585 q 315 766 330 738 q 300 848 300 793 q 314 912 300 891 q 353 933 327 933 q 387 918 376 933 q 397 845 397 902 l 397 764 l 662 764 m 577 1316 l 336 1316 l 216 1133 l 354 1133 l 577 1316 "},"ś":{"ha":654,"x_min":28,"x_max":629,"o":"m 608 612 l 608 665 q 601 764 608 732 q 561 833 594 796 q 464 893 527 871 q 312 916 401 916 q 154 888 222 916 q 57 809 85 861 q 28 650 28 758 q 55 519 28 574 q 202 396 81 464 q 361 300 346 316 q 376 219 376 283 q 365 158 376 172 q 324 143 353 143 q 288 165 297 143 q 279 259 279 186 l 279 316 l 36 316 l 36 273 q 64 104 36 160 q 166 16 92 49 q 345 -16 240 -16 q 506 14 439 -16 q 601 100 572 44 q 629 266 629 156 q 592 416 629 364 q 435 526 555 467 q 317 593 346 570 q 282 635 288 616 q 277 696 277 654 q 288 742 277 726 q 323 757 300 757 q 358 740 351 757 q 366 661 366 724 l 366 612 l 608 612 m 550 1144 l 309 1144 l 189 960 l 327 960 l 550 1144 "},"Ŝ":{"ha":718,"x_min":33,"x_max":686,"o":"m 662 764 l 662 807 q 636 992 662 938 q 533 1083 611 1047 q 343 1119 454 1119 q 170 1086 241 1119 q 65 995 98 1053 q 33 810 33 937 q 56 667 33 723 q 113 578 79 610 q 254 476 148 547 q 388 376 361 406 q 414 250 414 347 q 400 183 414 205 q 358 161 387 161 q 318 178 330 161 q 307 258 307 196 l 307 391 l 42 391 l 42 319 q 67 129 42 196 q 173 18 92 62 q 369 -25 254 -25 q 552 13 473 -25 q 658 106 631 50 q 686 279 686 161 q 636 513 686 440 q 396 699 587 585 q 315 766 330 738 q 300 848 300 793 q 314 912 300 891 q 353 933 327 933 q 387 918 376 933 q 397 845 397 902 l 397 764 l 662 764 m 344 1221 l 419 1133 l 603 1133 l 439 1324 l 248 1324 l 74 1133 l 264 1133 l 344 1221 "},"ŝ":{"ha":654,"x_min":28,"x_max":629,"o":"m 608 612 l 608 665 q 601 764 608 732 q 561 833 594 796 q 464 893 527 871 q 312 916 401 916 q 154 888 222 916 q 57 809 85 861 q 28 650 28 758 q 55 519 28 574 q 202 396 81 464 q 361 300 346 316 q 376 219 376 283 q 365 158 376 172 q 324 143 353 143 q 288 165 297 143 q 279 259 279 186 l 279 316 l 36 316 l 36 273 q 64 104 36 160 q 166 16 92 49 q 345 -16 240 -16 q 506 14 439 -16 q 601 100 572 44 q 629 266 629 156 q 592 416 629 364 q 435 526 555 467 q 317 593 346 570 q 282 635 288 616 q 277 696 277 654 q 288 742 277 726 q 323 757 300 757 q 358 740 351 757 q 366 661 366 724 l 366 612 l 608 612 m 315 1049 l 390 960 l 574 960 l 410 1152 l 219 1152 l 45 960 l 235 960 l 315 1049 "},"Ţ":{"ha":640,"x_min":8,"x_max":632,"o":"m 632 1098 l 8 1098 l 8 878 l 177 878 l 177 0 l 463 0 l 463 878 l 632 878 l 632 1098 m 365 8 l 286 8 l 286 -129 q 303 -128 297 -128 q 346 -139 332 -128 q 359 -173 359 -151 q 350 -203 359 -193 q 319 -214 340 -214 q 286 -186 295 -214 l 185 -186 q 320 -293 214 -293 q 420 -255 378 -293 q 463 -165 463 -217 q 431 -100 463 -123 q 365 -76 400 -76 l 365 8 "},"ţ":{"ha":423,"x_min":4,"x_max":429,"o":"m 338 1020 l 63 1020 l 63 878 l 4 878 l 4 736 l 63 736 l 63 279 q 71 108 63 144 q 109 44 78 72 q 179 8 139 16 q 313 0 219 0 l 423 0 l 423 145 q 347 155 356 145 q 338 254 338 165 l 338 736 l 412 736 l 412 878 l 338 878 l 338 1020 m 331 3 l 252 3 l 252 -134 q 269 -134 263 -134 q 312 -145 298 -134 q 326 -178 326 -156 q 316 -209 326 -199 q 286 -219 306 -219 q 252 -191 261 -219 l 151 -191 q 286 -298 180 -298 q 387 -260 345 -298 q 429 -171 429 -222 q 397 -105 429 -129 q 331 -81 366 -81 l 331 3 "},"Ť":{"ha":640,"x_min":8,"x_max":632,"o":"m 632 1098 l 8 1098 l 8 878 l 177 878 l 177 0 l 463 0 l 463 878 l 632 878 l 632 1098 m 320 1235 l 240 1324 l 50 1324 l 224 1133 l 416 1133 l 579 1324 l 395 1324 l 320 1235 "},"ť":{"ha":640,"x_min":4,"x_max":640,"o":"m 338 1020 l 63 1020 l 63 878 l 4 878 l 4 736 l 63 736 l 63 279 q 71 108 63 144 q 109 44 78 72 q 179 8 139 16 q 313 0 219 0 l 423 0 l 423 145 q 347 155 356 145 q 338 254 338 165 l 338 736 l 412 736 l 412 878 l 338 878 l 338 1020 m 456 1098 l 456 924 l 501 924 q 456 863 495 887 l 456 784 q 640 1041 640 823 l 640 1098 l 456 1098 "},"Ŧ":{"ha":640,"x_min":8,"x_max":632,"o":"m 178 618 l 71 618 l 71 501 l 178 501 l 178 0 l 464 0 l 464 501 l 572 501 l 572 618 l 464 618 l 464 879 l 632 879 l 632 1099 l 8 1099 l 8 879 l 178 879 l 178 618 "},"ŧ":{"ha":422,"x_min":4,"x_max":424,"o":"m 64 618 l 4 618 l 4 501 l 64 501 l 64 279 q 70 118 64 163 q 109 43 76 73 q 184 7 141 14 q 313 0 227 0 l 424 0 l 424 144 q 358 149 372 144 q 341 172 345 153 q 338 254 338 191 l 338 501 l 410 501 l 410 618 l 338 618 l 338 736 l 411 736 l 411 878 l 338 878 l 338 1021 l 64 1021 l 64 878 l 4 878 l 4 736 l 64 736 l 64 618 "},"Ũ":{"ha":760,"x_min":53,"x_max":706,"o":"m 706 1109 l 420 1109 l 420 300 q 413 196 420 218 q 378 174 405 174 q 346 194 354 174 q 338 286 338 214 l 338 1109 l 53 1109 l 53 459 q 60 215 53 273 q 104 105 66 157 q 216 20 141 53 q 390 -12 292 -12 q 544 15 479 -12 q 650 96 610 43 q 698 200 690 149 q 706 375 706 250 l 706 1109 m 661 1261 l 552 1339 q 477 1278 534 1278 q 406 1298 458 1278 l 363 1314 q 257 1335 306 1335 q 89 1204 163 1335 l 196 1133 q 279 1200 229 1200 q 351 1181 302 1200 l 401 1161 q 505 1139 456 1139 q 585 1166 539 1139 q 661 1261 630 1193 "},"ũ":{"ha":726,"x_min":45,"x_max":676,"o":"m 676 907 l 402 907 l 402 302 q 396 171 402 191 q 360 151 391 151 q 325 170 332 151 q 319 295 319 190 l 319 907 l 45 907 l 45 300 q 50 145 45 184 q 74 71 54 106 q 134 13 93 35 q 236 -9 174 -9 q 332 14 290 -9 q 402 82 374 37 l 397 7 l 676 7 l 676 907 m 637 1089 l 528 1167 q 454 1106 510 1106 q 382 1126 435 1106 l 340 1141 q 233 1163 282 1163 q 65 1031 140 1163 l 172 960 q 255 1028 205 1028 q 327 1008 279 1028 l 377 989 q 481 966 433 966 q 561 994 515 966 q 637 1089 606 1021 "},"Ū":{"ha":760,"x_min":53,"x_max":706,"o":"m 706 1109 l 420 1109 l 420 300 q 413 196 420 218 q 378 174 405 174 q 346 194 354 174 q 338 286 338 214 l 338 1109 l 53 1109 l 53 459 q 60 215 53 273 q 104 105 66 157 q 216 20 141 53 q 390 -12 292 -12 q 544 15 479 -12 q 650 96 610 43 q 698 200 690 149 q 706 375 706 250 l 706 1109 m 648 1250 l 109 1250 l 109 1133 l 648 1133 l 648 1250 "},"ū":{"ha":726,"x_min":45,"x_max":676,"o":"m 676 900 l 402 900 l 402 294 q 396 163 402 184 q 360 143 391 143 q 325 163 332 143 q 319 288 319 182 l 319 900 l 45 900 l 45 293 q 50 138 45 177 q 74 63 54 99 q 134 5 93 27 q 236 -16 174 -16 q 332 6 290 -16 q 402 75 374 29 l 397 0 l 676 0 l 676 900 m 627 1078 l 87 1078 l 87 960 l 627 960 l 627 1078 "},"Ŭ":{"ha":760,"x_min":53,"x_max":706,"o":"m 706 1109 l 420 1109 l 420 300 q 413 196 420 218 q 378 174 405 174 q 346 194 354 174 q 338 286 338 214 l 338 1109 l 53 1109 l 53 459 q 60 215 53 273 q 104 105 66 157 q 216 20 141 53 q 390 -12 292 -12 q 544 15 479 -12 q 650 96 610 43 q 698 200 690 149 q 706 375 706 250 l 706 1109 m 454 1337 q 376 1244 446 1244 q 300 1337 308 1244 l 184 1337 q 238 1189 189 1246 q 376 1133 287 1133 q 515 1189 465 1133 q 569 1337 565 1245 l 454 1337 "},"ŭ":{"ha":726,"x_min":45,"x_max":676,"o":"m 676 900 l 402 900 l 402 294 q 396 163 402 184 q 360 143 391 143 q 325 163 332 143 q 319 288 319 182 l 319 900 l 45 900 l 45 293 q 50 138 45 177 q 74 63 54 99 q 134 5 93 27 q 236 -16 174 -16 q 332 6 290 -16 q 402 75 374 29 l 397 0 l 676 0 l 676 900 m 437 1165 q 360 1072 429 1072 q 283 1165 292 1072 l 168 1165 q 221 1017 172 1074 q 360 960 271 960 q 499 1017 449 960 q 553 1165 549 1073 l 437 1165 "},"Ů":{"ha":760,"x_min":53,"x_max":706,"o":"m 706 1109 l 420 1109 l 420 300 q 413 196 420 218 q 378 174 405 174 q 346 194 354 174 q 338 286 338 214 l 338 1109 l 53 1109 l 53 459 q 60 215 53 273 q 104 105 66 157 q 216 20 141 53 q 390 -12 292 -12 q 544 15 479 -12 q 650 96 610 43 q 698 200 690 149 q 706 375 706 250 l 706 1109 m 376 1418 q 275 1376 317 1418 q 233 1275 233 1334 q 275 1174 233 1216 q 376 1133 317 1133 q 477 1174 435 1133 q 519 1275 519 1216 q 476 1377 519 1336 q 376 1418 433 1418 m 375 1329 q 415 1312 398 1329 q 431 1272 431 1296 q 415 1233 431 1249 q 375 1217 398 1217 q 336 1233 353 1217 q 319 1272 319 1249 q 336 1312 319 1296 q 375 1329 353 1329 "},"ů":{"ha":726,"x_min":45,"x_max":676,"o":"m 676 900 l 402 900 l 402 294 q 396 163 402 184 q 360 143 391 143 q 325 163 332 143 q 319 288 319 182 l 319 900 l 45 900 l 45 293 q 50 138 45 177 q 74 63 54 99 q 134 5 93 27 q 236 -16 174 -16 q 332 6 290 -16 q 402 75 374 29 l 397 0 l 676 0 l 676 900 m 359 1246 q 258 1204 300 1246 q 216 1103 216 1162 q 258 1002 216 1044 q 359 960 300 960 q 460 1002 418 960 q 502 1103 502 1044 q 459 1205 502 1164 q 359 1246 416 1246 m 358 1156 q 398 1140 381 1156 q 414 1100 414 1124 q 398 1061 414 1077 q 358 1044 381 1044 q 319 1061 336 1044 q 302 1100 302 1077 q 319 1140 302 1124 q 358 1156 336 1156 "},"Ű":{"ha":760,"x_min":53,"x_max":706,"o":"m 706 1109 l 420 1109 l 420 300 q 413 196 420 218 q 378 174 405 174 q 346 194 354 174 q 338 286 338 214 l 338 1109 l 53 1109 l 53 459 q 60 215 53 273 q 104 105 66 157 q 216 20 141 53 q 390 -12 292 -12 q 544 15 479 -12 q 650 96 610 43 q 698 200 690 149 q 706 375 706 250 l 706 1109 m 405 1343 l 220 1343 l 140 1133 l 241 1133 l 405 1343 m 669 1343 l 485 1343 l 405 1133 l 506 1133 l 669 1343 "},"ű":{"ha":726,"x_min":45,"x_max":676,"o":"m 676 900 l 402 900 l 402 294 q 396 163 402 184 q 360 143 391 143 q 325 163 332 143 q 319 288 319 182 l 319 900 l 45 900 l 45 293 q 50 138 45 177 q 74 63 54 99 q 134 5 93 27 q 236 -16 174 -16 q 332 6 290 -16 q 402 75 374 29 l 397 0 l 676 0 l 676 900 m 387 1171 l 202 1171 l 122 960 l 223 960 l 387 1171 m 650 1171 l 467 1171 l 387 960 l 488 960 l 650 1171 "},"Ų":{"ha":760,"x_min":53,"x_max":707,"o":"m 335 -1 q 278 -110 278 -55 q 314 -186 278 -157 q 412 -215 351 -215 q 530 -184 465 -215 l 503 -117 q 425 -135 459 -135 q 376 -92 376 -135 q 432 -1 376 -58 q 554 18 504 2 q 642 76 604 35 q 693 172 680 117 q 707 314 707 227 l 707 1099 l 421 1099 l 421 265 q 410 180 421 197 q 379 163 399 163 q 349 177 359 163 q 339 250 339 191 l 339 1099 l 53 1099 l 53 364 q 60 209 53 264 q 95 107 66 155 q 185 33 123 60 q 335 -1 247 5 "},"ų":{"ha":725,"x_min":45,"x_max":739,"o":"m 543 0 q 486 -110 486 -54 q 523 -186 486 -157 q 621 -215 559 -215 q 739 -184 673 -215 l 711 -117 q 633 -135 667 -135 q 585 -92 585 -135 q 643 0 585 -58 l 676 0 l 676 900 l 403 900 l 403 220 q 393 158 403 172 q 359 143 382 143 q 318 204 318 143 l 318 900 l 45 900 l 45 293 q 49 138 45 181 q 78 58 54 96 q 134 9 103 20 q 218 -1 165 -1 q 334 15 296 -1 q 401 75 371 32 l 397 0 l 543 0 "},"Ŵ":{"ha":1131,"x_min":0,"x_max":1131,"o":"m 1131 1098 l 854 1098 q 774 319 798 717 l 743 736 q 712 1098 718 1050 l 415 1098 q 336 345 352 632 l 307 715 l 277 1098 l 0 1098 l 127 0 l 482 0 q 562 575 545 437 q 648 0 599 253 l 1004 0 l 1131 1098 m 566 1221 l 641 1133 l 825 1133 l 661 1324 l 470 1324 l 296 1133 l 486 1133 l 566 1221 "},"ŵ":{"ha":930,"x_min":-4,"x_max":934,"o":"m 934 900 l 698 900 q 635 385 648 610 l 580 900 l 353 900 q 292 385 296 434 q 232 900 235 865 l -4 900 l 112 0 l 410 0 l 440 195 q 471 434 460 316 q 527 0 503 165 l 825 0 l 934 900 m 467 1049 l 543 960 l 726 960 l 563 1152 l 372 1152 l 197 960 l 387 960 l 467 1049 "},"Ŷ":{"ha":657,"x_min":-8,"x_max":665,"o":"m 665 1098 l 403 1098 q 323 666 347 842 q 254 1098 316 777 l -8 1098 l 193 397 l 193 0 l 457 0 l 457 397 l 665 1098 m 330 1221 l 405 1133 l 589 1133 l 425 1324 l 234 1324 l 60 1133 l 250 1133 l 330 1221 "},"ŷ":{"ha":623,"x_min":-8,"x_max":623,"o":"m 623 900 l 374 900 l 330 293 l 241 900 l -8 900 l 142 147 q 159 53 159 64 q 140 24 159 31 q 58 18 122 18 l 58 -126 l 224 -126 q 390 -109 338 -126 q 471 -55 442 -92 q 513 38 500 -18 q 544 249 526 94 l 623 900 m 307 1049 l 382 960 l 566 960 l 403 1152 l 212 1152 l 37 960 l 227 960 l 307 1049 "},"Ź":{"ha":551,"x_min":8,"x_max":534,"o":"m 534 1098 l 34 1098 l 34 878 l 228 878 l 8 159 l 8 0 l 534 0 l 534 220 l 321 220 l 534 878 l 534 1098 m 487 1316 l 245 1316 l 126 1133 l 264 1133 l 487 1316 "},"ź":{"ha":488,"x_min":8,"x_max":475,"o":"m 475 900 l 29 900 l 29 720 l 215 720 l 8 189 l 8 0 l 475 0 l 475 180 l 273 180 l 475 701 l 475 900 m 464 1144 l 222 1144 l 103 960 l 241 960 l 464 1144 "},"Ż":{"ha":551,"x_min":8,"x_max":534,"o":"m 534 1098 l 34 1098 l 34 878 l 228 878 l 8 159 l 8 0 l 534 0 l 534 220 l 321 220 l 534 878 l 534 1098 m 370 1309 l 193 1309 l 193 1133 l 370 1133 l 370 1309 "},"ż":{"ha":488,"x_min":8,"x_max":475,"o":"m 475 900 l 29 900 l 29 720 l 215 720 l 8 189 l 8 0 l 475 0 l 475 180 l 273 180 l 475 701 l 475 900 m 334 1137 l 157 1137 l 157 960 l 334 960 l 334 1137 "},"ſ":{"ha":400,"x_min":49,"x_max":396,"o":"m 379 961 l 396 961 l 396 1121 l 379 1121 q 211 1098 281 1121 q 103 1025 140 1074 q 57 915 65 976 q 49 733 49 854 l 49 0 l 322 0 l 322 847 q 379 961 322 961 "},"Ǻ":{"ha":705,"x_min":-8,"x_max":713,"o":"m 550 1098 l 137 1098 l -8 0 l 288 0 l 304 197 l 407 197 l 421 0 l 713 0 l 550 1098 m 399 392 l 301 392 q 355 852 312 538 q 399 392 377 578 m 353 1418 q 252 1376 294 1418 q 210 1275 210 1334 q 252 1174 210 1216 q 353 1133 294 1133 q 454 1174 412 1133 q 496 1275 496 1216 q 453 1377 496 1336 q 353 1418 410 1418 m 352 1329 q 392 1312 375 1329 q 408 1272 408 1296 q 392 1233 408 1249 q 352 1217 375 1217 q 313 1233 330 1217 q 296 1272 296 1249 q 313 1312 296 1296 q 352 1329 330 1329 m 577 1622 l 336 1622 l 216 1438 l 354 1438 l 577 1622 "},"ǻ":{"ha":700,"x_min":37,"x_max":654,"o":"m 294 551 l 294 646 q 300 739 294 721 q 335 757 307 757 q 370 735 359 757 q 380 644 380 714 q 371 569 380 587 q 227 498 361 551 q 68 412 100 449 q 37 275 37 376 l 37 201 q 97 24 37 64 q 229 -16 157 -16 q 323 8 283 -16 q 388 80 363 32 l 388 0 l 654 0 l 654 452 q 640 746 654 675 q 555 867 626 818 q 346 916 485 916 q 157 873 230 916 q 61 773 85 829 q 37 612 37 716 l 37 551 l 294 551 m 380 428 l 380 243 q 373 159 380 175 q 339 143 365 143 q 303 163 312 143 q 294 254 294 184 q 304 347 294 315 q 380 428 315 380 m 343 1246 q 242 1204 284 1246 q 200 1103 200 1162 q 242 1002 200 1044 q 343 960 283 960 q 444 1002 401 960 q 486 1103 486 1044 q 443 1205 486 1164 q 343 1246 400 1246 m 342 1156 q 381 1140 365 1156 q 398 1100 398 1124 q 381 1061 398 1077 q 342 1044 365 1044 q 303 1061 319 1044 q 286 1100 286 1077 q 303 1140 286 1124 q 342 1156 319 1156 m 559 1461 l 318 1461 l 199 1277 l 336 1277 l 559 1461 "},"Ǽ":{"ha":991,"x_min":-8,"x_max":966,"o":"m 952 1098 l 281 1098 l -8 0 l 264 0 l 311 197 l 475 197 l 475 0 l 966 0 l 966 220 l 760 220 l 760 461 l 941 461 l 941 670 l 760 670 l 760 878 l 952 878 l 952 1098 m 475 892 l 475 392 l 353 392 l 475 892 m 786 1316 l 545 1316 l 425 1133 l 563 1133 l 786 1316 "},"ǽ":{"ha":1046,"x_min":37,"x_max":1005,"o":"m 1005 434 l 1005 550 q 975 757 1005 687 q 870 871 944 827 q 692 916 795 916 q 600 904 641 916 q 527 867 558 892 q 437 904 484 892 q 340 916 391 916 q 192 890 250 916 q 97 822 134 865 q 48 736 59 779 q 38 618 38 693 l 38 551 l 295 551 l 295 637 q 301 737 295 718 q 330 757 308 757 q 360 733 352 757 q 368 649 368 709 q 361 566 368 585 q 334 534 353 547 q 258 502 314 521 q 108 437 151 465 q 51 375 64 410 q 37 245 37 340 q 52 92 37 138 q 116 14 67 45 q 239 -16 164 -16 q 353 9 302 -16 q 441 87 404 35 q 547 9 480 35 q 708 -16 613 -16 q 881 29 810 -16 q 978 135 951 74 q 1005 285 1005 196 l 1005 376 l 746 376 l 746 248 q 735 163 746 184 q 694 143 724 143 q 656 163 665 143 q 648 252 648 183 l 648 434 l 1005 434 m 731 581 l 648 581 l 648 662 q 657 739 648 720 q 690 757 667 757 q 720 741 708 757 q 731 662 731 725 l 731 581 m 374 422 l 374 277 l 373 197 q 363 157 373 170 q 334 143 354 143 q 296 165 307 143 q 286 239 286 186 q 303 354 286 323 q 374 422 321 385 m 739 1144 l 498 1144 l 378 960 l 516 960 l 739 1144 "},"Ǿ":{"ha":759,"x_min":-37,"x_max":795,"o":"m 696 908 l 795 1039 l 733 1086 l 661 991 q 548 1088 618 1056 q 379 1120 477 1120 q 216 1090 286 1120 q 105 1002 146 1059 q 57 877 64 945 q 49 642 49 808 l 49 454 q 62 189 49 237 l -37 58 l 25 11 l 98 106 q 210 9 140 41 q 379 -24 280 -24 q 542 7 472 -24 q 653 94 612 37 q 702 220 694 151 q 709 454 709 289 l 709 642 q 696 908 709 857 m 424 669 l 334 551 l 334 815 q 343 912 334 889 q 380 935 353 935 q 415 913 407 935 q 424 815 424 892 l 424 669 m 334 422 l 424 541 l 424 311 q 416 188 424 214 q 378 162 408 162 q 342 184 350 162 q 334 302 334 207 l 334 422 m 589 1316 l 347 1316 l 228 1133 l 366 1133 l 589 1316 "},"ǿ":{"ha":710,"x_min":41,"x_max":669,"o":"m 618 801 l 654 856 l 601 890 l 573 848 q 474 899 531 882 q 346 916 417 916 q 165 873 236 916 q 68 760 95 831 q 41 564 41 690 l 41 334 q 52 176 41 224 q 86 91 63 129 l 56 44 l 109 9 l 130 41 q 223 -2 166 13 q 357 -16 280 -16 q 502 7 439 -16 q 604 80 564 31 q 656 185 644 129 q 669 363 669 242 l 669 584 q 657 723 669 680 q 618 801 645 765 m 395 566 l 315 444 l 315 652 q 323 739 315 721 q 355 757 331 757 q 387 739 380 757 q 395 652 395 721 l 395 566 m 315 326 l 395 449 l 395 237 q 387 161 395 178 q 355 143 379 143 q 323 162 331 143 q 315 245 315 182 l 315 326 m 572 1144 l 330 1144 l 211 960 l 349 960 l 572 1144 "},"΄":{"ha":463,"x_min":134,"x_max":355,"o":"m 170 1099 l 134 916 l 271 916 l 355 1099 l 170 1099 "},"΅":{"ha":463,"x_min":-4,"x_max":468,"o":"m 174 1440 l 138 1257 l 275 1257 l 359 1440 l 174 1440 m -4 1194 l -4 1018 l 170 1018 l 170 1194 l -4 1194 m 290 1194 l 290 1018 l 468 1018 l 468 1194 l 290 1194 "},"Ά":{"ha":705,"x_min":-111,"x_max":713,"o":"m 550 1098 l 137 1098 l -8 0 l 288 0 l 304 197 l 407 197 l 421 0 l 713 0 l 550 1098 m 399 392 l 301 392 q 355 852 312 538 q 399 392 377 578 m -75 1099 l -111 916 l 26 916 l 111 1099 l -75 1099 "},"·":{"ha":305,"x_min":49,"x_max":256,"o":"m 256 659 l 49 659 l 49 435 l 256 435 l 256 659 "},"Έ":{"ha":746,"x_min":-11,"x_max":722,"o":"m 227 1098 l 227 0 l 722 0 l 722 220 l 512 220 l 512 461 l 690 461 l 690 670 l 512 670 l 512 878 l 703 878 l 703 1098 l 227 1098 m 25 1099 l -11 916 l 126 916 l 211 1099 l 25 1099 "},"Ή":{"ha":940,"x_min":-11,"x_max":883,"o":"m 883 1098 l 597 1098 l 597 705 l 512 705 l 512 1098 l 227 1098 l 227 0 l 512 0 l 512 461 l 597 461 l 597 0 l 883 0 l 883 1098 m 25 1099 l -11 916 l 126 916 l 211 1099 l 25 1099 "},"Ί":{"ha":570,"x_min":-11,"x_max":512,"o":"m 512 1098 l 227 1098 l 227 0 l 512 0 l 512 1098 m 25 1099 l -11 916 l 126 916 l 211 1099 l 25 1099 "},"Ό":{"ha":889,"x_min":-11,"x_max":831,"o":"m 831 456 l 831 644 q 823 881 831 813 q 772 1006 815 949 q 660 1093 730 1064 q 501 1122 589 1122 q 338 1091 408 1122 q 228 1004 269 1061 q 179 878 186 947 q 171 644 171 809 l 171 456 q 179 218 171 286 q 230 93 187 151 q 343 6 273 35 q 501 -22 413 -22 q 664 8 594 -22 q 775 96 734 39 q 824 221 816 153 q 831 456 831 290 m 546 817 l 546 312 q 538 189 546 215 q 500 163 530 163 q 464 186 472 163 q 456 304 456 208 l 456 817 q 468 919 456 901 q 503 936 480 936 q 537 915 529 936 q 546 817 546 893 m 25 1099 l -11 916 l 126 916 l 211 1099 l 25 1099 "},"Ύ":{"ha":889,"x_min":-11,"x_max":896,"o":"m 896 1098 l 633 1098 q 554 666 578 842 q 485 1098 547 777 l 222 1098 l 423 397 l 423 0 l 688 0 l 688 397 l 896 1098 m 25 1099 l -11 916 l 126 916 l 211 1099 l 25 1099 "},"Ώ":{"ha":909,"x_min":-11,"x_max":868,"o":"m 502 167 q 474 307 474 194 l 474 827 q 485 928 474 909 q 523 947 496 947 q 557 927 547 947 q 567 827 567 907 l 567 307 q 539 167 567 194 l 539 0 l 868 0 l 868 165 l 821 165 q 720 158 783 165 q 816 274 779 197 q 853 453 853 351 l 853 713 q 845 909 853 859 q 797 1009 838 958 q 686 1083 755 1060 q 518 1107 616 1107 q 345 1083 412 1107 q 240 1005 278 1059 q 195 903 201 951 q 188 713 188 855 l 188 453 q 225 274 188 351 q 321 158 262 197 q 214 165 245 165 l 172 165 l 172 0 l 502 0 l 502 167 m 25 1099 l -11 916 l 126 916 l 211 1099 l 25 1099 "},"ΐ":{"ha":422,"x_min":-49,"x_max":423,"o":"m 49 257 q 77 80 49 133 q 167 13 106 26 q 368 0 228 0 l 412 0 l 412 142 q 339 169 357 142 q 322 243 322 195 l 322 900 l 49 900 l 49 257 m 129 1383 l 93 1199 l 231 1199 l 315 1383 l 129 1383 m -49 1137 l -49 960 l 125 960 l 125 1137 l -49 1137 m 245 1137 l 245 960 l 423 960 l 423 1137 l 245 1137 "},"Α":{"ha":705,"x_min":-8,"x_max":713,"o":"m 550 1098 l 137 1098 l -8 0 l 288 0 l 304 197 l 407 197 l 421 0 l 713 0 l 550 1098 m 399 392 l 301 392 q 355 852 312 538 q 399 392 377 578 "},"Β":{"ha":767,"x_min":57,"x_max":722,"o":"m 57 1098 l 57 0 l 387 0 q 615 20 559 0 q 696 93 671 39 q 722 258 722 146 l 722 359 q 686 518 722 467 q 552 593 651 570 q 671 651 641 613 q 701 785 701 689 q 659 992 701 928 q 546 1077 616 1056 q 342 1098 477 1098 l 57 1098 m 342 910 q 402 904 387 909 q 427 878 417 899 q 436 806 436 857 q 425 687 436 708 q 371 667 413 667 q 342 666 361 667 l 342 910 m 342 495 q 421 478 406 493 q 436 393 436 463 l 436 290 q 419 207 436 224 q 342 188 403 190 l 342 495 "},"Γ":{"ha":528,"x_min":57,"x_max":515,"o":"m 57 0 l 343 0 l 343 880 l 515 880 l 515 1099 l 57 1099 l 57 0 "},"Δ":{"ha":705,"x_min":-8,"x_max":714,"o":"m 138 1099 l -8 0 l 714 0 l 550 1099 l 138 1099 m 301 196 q 325 509 301 210 q 355 852 348 808 q 381 513 363 809 q 399 196 399 217 l 301 196 "},"Ε":{"ha":577,"x_min":57,"x_max":552,"o":"m 57 1098 l 57 0 l 552 0 l 552 220 l 342 220 l 342 461 l 521 461 l 521 670 l 342 670 l 342 878 l 533 878 l 533 1098 l 57 1098 "},"Ζ":{"ha":551,"x_min":8,"x_max":534,"o":"m 534 1098 l 34 1098 l 34 878 l 228 878 l 8 159 l 8 0 l 534 0 l 534 220 l 321 220 l 534 878 l 534 1098 "},"Η":{"ha":771,"x_min":57,"x_max":713,"o":"m 713 1098 l 428 1098 l 428 705 l 342 705 l 342 1098 l 57 1098 l 57 0 l 342 0 l 342 461 l 428 461 l 428 0 l 713 0 l 713 1098 "},"Θ":{"ha":758,"x_min":49,"x_max":710,"o":"m 710 450 l 710 654 q 699 903 710 829 q 645 1022 688 976 q 536 1088 602 1069 q 379 1107 471 1107 q 222 1087 288 1107 q 113 1021 156 1067 q 59 902 70 975 q 49 654 49 830 l 49 450 q 53 269 49 337 q 71 155 57 201 q 126 68 84 109 q 232 10 169 28 q 379 -8 295 -8 q 535 13 469 -8 q 645 81 602 33 q 699 201 688 129 q 710 450 710 273 m 424 633 l 335 633 l 335 827 q 345 927 335 907 q 379 947 355 947 q 417 922 410 947 q 424 827 424 896 l 424 633 m 335 473 l 424 473 l 424 265 q 413 176 424 195 q 378 157 401 157 q 343 180 351 157 q 335 245 335 203 l 335 473 "},"Ι":{"ha":400,"x_min":57,"x_max":343,"o":"m 57 0 l 343 0 l 343 1099 l 57 1099 l 57 0 "},"Κ":{"ha":745,"x_min":57,"x_max":753,"o":"m 737 1098 l 469 1098 l 342 671 l 342 1098 l 57 1098 l 57 0 l 342 0 l 342 471 l 458 0 l 753 0 l 574 602 l 737 1098 "},"Λ":{"ha":728,"x_min":-7,"x_max":736,"o":"m 736 0 l 571 1099 l 138 1099 l -7 0 l 294 0 q 361 768 334 384 q 435 0 390 384 l 736 0 "},"Μ":{"ha":996,"x_min":57,"x_max":938,"o":"m 938 1098 l 566 1098 l 500 585 l 461 865 q 427 1098 443 999 l 57 1098 l 57 0 l 307 0 l 307 724 l 412 0 l 589 0 l 688 741 l 688 0 l 938 0 l 938 1098 "},"Ν":{"ha":752,"x_min":57,"x_max":694,"o":"m 694 1098 l 456 1098 l 456 604 l 296 1098 l 57 1098 l 57 0 l 296 0 l 296 499 l 444 0 l 694 0 l 694 1098 "},"Ξ":{"ha":640,"x_min":22,"x_max":618,"o":"m 22 879 l 618 879 l 618 1099 l 22 1099 l 22 879 m 78 452 l 562 452 l 562 671 l 78 671 l 78 452 m 22 0 l 618 0 l 618 220 l 22 220 l 22 0 "},"Ο":{"ha":759,"x_min":49,"x_max":709,"o":"m 709 455 l 709 643 q 701 880 709 812 q 650 1006 693 948 q 537 1092 608 1063 q 379 1121 467 1121 q 216 1090 286 1121 q 105 1003 146 1060 q 57 877 64 946 q 49 643 49 808 l 49 455 q 57 218 49 286 q 108 92 65 150 q 221 6 151 35 q 379 -23 291 -23 q 542 7 472 -23 q 653 95 612 38 q 702 221 694 152 q 709 455 709 290 m 424 816 l 424 311 q 416 189 424 214 q 378 163 408 163 q 342 185 350 163 q 334 303 334 208 l 334 816 q 346 918 334 901 q 380 935 358 935 q 415 914 407 935 q 424 816 424 892 "},"Π":{"ha":771,"x_min":57,"x_max":714,"o":"m 428 879 l 428 0 l 714 0 l 714 1099 l 57 1099 l 57 0 l 343 0 l 343 879 l 428 879 "},"Ρ":{"ha":697,"x_min":57,"x_max":672,"o":"m 343 0 l 343 441 l 419 441 q 606 486 541 441 q 672 696 672 531 l 672 790 q 663 940 672 892 q 613 1030 654 988 q 512 1085 572 1072 q 345 1099 451 1099 l 57 1099 l 57 0 l 343 0 m 433 730 q 418 649 433 668 q 364 631 403 631 l 343 631 l 343 909 q 416 892 399 909 q 433 819 433 875 l 433 730 "},"Σ":{"ha":547,"x_min":-16,"x_max":521,"o":"m 302 220 l 419 587 l 306 879 l 517 879 l 517 1099 l -16 1099 l 175 589 l -12 0 l 521 0 l 521 220 l 302 220 "},"Τ":{"ha":640,"x_min":8,"x_max":632,"o":"m 632 1098 l 8 1098 l 8 878 l 177 878 l 177 0 l 463 0 l 463 878 l 632 878 l 632 1098 "},"Υ":{"ha":657,"x_min":-8,"x_max":665,"o":"m 665 1098 l 403 1098 q 323 666 347 842 q 254 1098 316 777 l -8 1098 l 193 397 l 193 0 l 457 0 l 457 397 l 665 1098 "},"Φ":{"ha":1107,"x_min":21,"x_max":1086,"o":"m 1084 538 l 1084 557 q 1074 712 1084 665 q 1014 831 1060 778 q 743 911 943 911 q 693 913 728 911 l 693 1099 l 407 1099 l 407 913 q 363 911 378 911 q 92 831 163 911 q 31 712 45 778 q 21 557 21 665 l 21 538 q 31 382 21 430 q 92 264 45 317 q 363 182 163 182 l 407 182 l 407 0 l 693 0 l 693 182 l 743 182 q 1014 264 942 182 q 1074 382 1060 317 q 1084 538 1084 430 m 799 476 q 777 387 799 420 q 722 353 755 353 l 693 353 l 693 742 l 722 742 q 777 708 755 742 q 799 618 799 674 l 799 476 m 407 353 l 383 353 q 329 387 351 353 q 307 476 307 420 l 307 618 q 329 708 307 674 q 383 742 351 742 l 407 742 l 407 353 m 1086 538 "},"Χ":{"ha":670,"x_min":0,"x_max":686,"o":"m 635 1098 l 396 1098 l 335 799 q 306 947 323 866 q 276 1098 283 1053 l 0 1098 l 103 612 l 0 0 l 278 0 l 305 179 q 335 399 324 296 q 422 0 374 164 l 686 0 l 536 612 l 635 1098 "},"Ψ":{"ha":1090,"x_min":3,"x_max":1089,"o":"m 403 1099 l 403 566 q 337 592 361 567 q 313 656 313 616 l 313 940 q 267 1099 313 1059 l 3 1099 q 40 922 40 1048 l 40 648 q 113 461 40 526 q 311 396 185 396 l 403 396 l 403 0 l 689 0 l 689 396 l 781 396 q 979 461 907 396 q 1051 648 1051 526 l 1051 922 q 1089 1099 1051 1048 l 825 1099 q 779 940 779 1059 l 779 656 q 755 592 779 616 q 689 566 730 567 l 689 1099 l 403 1099 "},"Ω":{"ha":779,"x_min":41,"x_max":737,"o":"m 371 167 q 343 307 343 194 l 343 827 q 354 928 343 909 q 392 947 365 947 q 426 927 416 947 q 436 827 436 907 l 436 307 q 408 167 436 194 l 408 0 l 737 0 l 737 165 l 690 165 q 589 158 652 165 q 685 274 648 197 q 722 453 722 351 l 722 713 q 714 909 722 859 q 666 1009 707 958 q 555 1083 625 1060 q 387 1107 486 1107 q 214 1083 281 1107 q 109 1005 147 1059 q 64 903 71 951 q 57 713 57 855 l 57 453 q 94 274 57 351 q 191 158 131 197 q 83 165 115 165 l 41 165 l 41 0 l 371 0 l 371 167 "},"Ϊ":{"ha":400,"x_min":-37,"x_max":436,"o":"m 342 1098 l 57 1098 l 57 0 l 342 0 l 342 1098 m 140 1309 l -37 1309 l -37 1133 l 140 1133 l 140 1309 m 436 1309 l 259 1309 l 259 1133 l 436 1133 l 436 1309 "},"Ϋ":{"ha":657,"x_min":-8,"x_max":665,"o":"m 665 1098 l 403 1098 q 323 666 347 842 q 254 1098 316 777 l -8 1098 l 193 397 l 193 0 l 457 0 l 457 397 l 665 1098 m 270 1309 l 93 1309 l 93 1133 l 270 1133 l 270 1309 m 566 1309 l 389 1309 l 389 1133 l 566 1133 l 566 1309 "},"ά":{"ha":728,"x_min":40,"x_max":747,"o":"m 40 232 q 52 90 40 138 q 110 17 64 42 q 225 -8 155 -8 q 332 18 278 -8 q 418 89 386 43 q 471 0 430 48 l 747 0 q 672 350 672 125 l 672 669 q 713 900 672 806 l 454 900 q 415 821 425 863 q 228 908 342 908 q 138 900 171 908 q 79 859 106 892 q 46 787 52 826 q 40 671 40 748 l 40 232 m 314 711 q 355 768 314 768 q 388 753 377 768 q 399 685 399 739 l 399 250 q 392 160 399 184 q 353 136 385 136 q 320 157 327 136 q 314 227 314 178 l 314 711 m 309 1143 l 273 960 l 410 960 l 495 1143 l 309 1143 "},"έ":{"ha":717,"x_min":35,"x_max":689,"o":"m 689 216 l 689 322 l 427 322 l 427 250 q 416 160 427 184 q 364 136 405 136 q 322 162 335 136 q 309 258 309 189 q 340 367 309 328 q 422 411 371 406 l 422 549 q 340 585 371 552 q 309 676 309 618 q 323 744 309 724 q 372 764 338 764 q 416 746 401 764 q 431 684 431 729 l 431 603 l 673 603 l 673 705 q 592 857 673 805 q 357 908 511 908 q 123 854 204 908 q 41 697 41 801 l 41 643 q 91 529 41 578 q 211 472 140 480 q 83 404 132 454 q 35 282 35 354 l 35 227 q 347 -8 35 -8 q 610 43 532 -8 q 689 216 689 94 m 309 1143 l 273 960 l 410 960 l 495 1143 l 309 1143 "},"ή":{"ha":726,"x_min":9,"x_max":681,"o":"m 289 900 l 9 900 q 49 777 49 841 l 49 0 l 322 0 l 322 612 q 329 733 322 705 q 367 761 335 761 q 401 739 396 761 q 407 628 407 716 l 407 -126 l 681 -126 l 681 631 q 675 768 681 722 q 644 848 669 813 q 584 896 619 884 q 494 908 548 908 q 322 821 378 908 q 289 900 318 864 m 309 1143 l 273 960 l 410 960 l 495 1143 l 309 1143 "},"ί":{"ha":422,"x_min":49,"x_max":412,"o":"m 49 257 q 77 80 49 133 q 167 13 106 26 q 368 0 228 0 l 412 0 l 412 142 q 339 169 357 142 q 322 243 322 195 l 322 900 l 49 900 l 49 257 m 132 1143 l 96 960 l 233 960 l 317 1143 l 132 1143 "},"ΰ":{"ha":725,"x_min":49,"x_max":681,"o":"m 681 900 l 407 900 l 407 214 q 397 152 407 167 q 364 138 387 138 q 322 199 322 138 l 322 900 l 49 900 l 49 288 q 115 62 49 133 q 364 -8 182 -8 q 559 21 494 -8 q 652 113 623 50 q 681 281 681 175 l 681 900 m 309 1383 l 273 1199 l 411 1199 l 495 1383 l 309 1383 m 132 1137 l 132 960 l 305 960 l 305 1137 l 132 1137 m 426 1137 l 426 960 l 604 960 l 604 1137 l 426 1137 "},"α":{"ha":728,"x_min":40,"x_max":747,"o":"m 40 232 q 52 90 40 138 q 110 17 64 42 q 225 -8 155 -8 q 332 18 278 -8 q 418 89 386 43 q 471 0 430 48 l 747 0 q 672 350 672 125 l 672 669 q 713 900 672 806 l 454 900 q 415 821 425 863 q 228 908 342 908 q 138 900 171 908 q 79 859 106 892 q 46 787 52 826 q 40 671 40 748 l 40 232 m 314 711 q 355 768 314 768 q 388 753 377 768 q 399 685 399 739 l 399 250 q 392 160 399 184 q 353 136 385 136 q 320 157 327 136 q 314 227 314 178 l 314 711 "},"β":{"ha":730,"x_min":49,"x_max":690,"o":"m 322 72 q 494 -4 385 -4 q 638 62 587 -4 q 690 231 690 127 l 690 427 q 640 534 690 490 q 505 593 589 577 q 626 651 576 601 q 675 765 675 701 l 675 875 q 592 1041 675 984 q 359 1099 510 1099 q 131 1030 212 1099 q 49 838 49 961 l 49 -126 l 322 -126 l 322 72 m 322 186 l 322 879 q 361 954 322 954 q 396 941 384 954 q 408 886 408 927 l 408 762 q 399 691 408 721 q 349 660 389 662 l 349 541 q 400 508 391 534 q 408 443 408 483 l 408 211 q 398 157 408 170 q 370 143 389 143 q 338 160 355 143 q 322 186 322 177 "},"γ":{"ha":694,"x_min":-8,"x_max":701,"o":"m 701 900 l 457 900 l 349 463 l 292 675 q 238 825 264 779 q 165 890 212 871 q 28 908 119 908 q -8 905 12 908 l -8 757 q 30 739 14 757 q 65 650 45 720 l 218 142 l 218 -126 l 492 -126 l 492 138 l 701 900 "},"δ":{"ha":708,"x_min":40,"x_max":668,"o":"m 244 778 q 144 731 188 762 q 76 656 101 700 q 46 568 52 612 q 40 453 40 524 l 40 326 q 46 193 40 244 q 74 101 53 142 q 135 33 96 60 q 214 -1 175 5 q 312 -8 252 -8 q 493 9 431 -8 q 599 70 555 26 q 655 174 643 115 q 668 357 668 234 l 668 478 q 615 715 668 619 q 375 957 562 812 l 619 957 l 619 1099 l 61 1099 l 61 954 l 244 778 m 395 541 l 395 184 q 383 150 395 163 q 354 136 372 136 q 314 214 314 136 l 314 541 q 324 630 314 614 q 354 646 334 646 q 385 629 376 646 q 395 541 395 613 "},"ε":{"ha":717,"x_min":35,"x_max":689,"o":"m 689 216 l 689 322 l 427 322 l 427 250 q 416 160 427 184 q 364 136 405 136 q 322 162 335 136 q 309 258 309 189 q 340 367 309 328 q 422 411 371 406 l 422 549 q 340 585 371 552 q 309 676 309 618 q 323 744 309 724 q 372 764 338 764 q 416 746 401 764 q 431 684 431 729 l 431 603 l 673 603 l 673 705 q 592 857 673 805 q 357 908 511 908 q 123 854 204 908 q 41 697 41 801 l 41 643 q 91 529 41 578 q 211 472 140 480 q 83 404 132 454 q 35 282 35 354 l 35 227 q 347 -8 35 -8 q 610 43 532 -8 q 689 216 689 94 "},"ζ":{"ha":533,"x_min":36,"x_max":525,"o":"m 36 578 l 36 414 q 47 288 36 329 q 83 224 58 246 q 151 195 108 203 l 292 168 q 342 143 328 161 q 357 93 357 125 q 344 44 357 60 q 288 28 332 28 l 180 28 l 180 -126 l 314 -126 q 478 -66 431 -126 q 525 115 525 -7 q 493 260 525 205 q 380 336 461 315 q 332 353 342 346 q 316 378 321 360 q 310 425 310 395 l 310 595 q 353 778 310 699 q 518 961 397 857 l 518 1099 l 41 1099 l 41 957 l 285 957 q 86 750 137 833 q 36 578 36 667 "},"η":{"ha":726,"x_min":9,"x_max":681,"o":"m 289 900 l 9 900 q 49 777 49 841 l 49 0 l 322 0 l 322 612 q 329 733 322 705 q 367 761 335 761 q 401 739 396 761 q 407 628 407 716 l 407 -126 l 681 -126 l 681 631 q 675 768 681 722 q 644 848 669 813 q 584 896 619 884 q 494 908 548 908 q 322 821 378 908 q 289 900 318 864 "},"θ":{"ha":710,"x_min":52,"x_max":679,"o":"m 52 326 q 58 193 52 244 q 85 101 64 142 q 146 33 107 60 q 225 -1 186 5 q 323 -8 264 -8 q 504 9 441 -8 q 610 70 567 26 q 666 174 654 115 q 679 357 679 234 l 679 785 q 670 917 679 869 q 622 1011 662 964 q 514 1083 581 1059 q 357 1107 447 1107 q 210 1083 272 1107 q 109 1010 147 1059 q 61 903 71 961 q 52 765 52 845 l 52 326 m 406 625 l 325 625 l 325 852 q 331 941 325 917 q 366 965 338 965 q 399 942 393 965 q 406 852 406 918 l 406 625 m 325 476 l 406 476 l 406 184 q 394 146 406 163 q 366 129 382 129 q 325 214 325 129 l 325 476 "},"ι":{"ha":422,"x_min":49,"x_max":412,"o":"m 49 257 q 77 80 49 133 q 167 13 106 26 q 368 0 228 0 l 412 0 l 412 142 q 339 169 357 142 q 322 243 322 195 l 322 900 l 49 900 l 49 257 "},"κ":{"ha":725,"x_min":49,"x_max":730,"o":"m 730 0 l 538 504 l 627 696 q 660 741 640 726 q 717 757 680 757 l 717 899 q 631 904 669 904 q 542 893 578 904 q 474 850 505 883 q 423 777 443 817 q 322 561 404 738 l 322 900 l 49 900 l 49 0 l 322 0 l 322 359 l 436 0 l 730 0 "},"λ":{"ha":675,"x_min":-1,"x_max":675,"o":"m -1 0 l 248 0 l 338 681 l 375 147 q 518 -8 386 -8 q 675 1 595 -8 l 675 147 q 639 146 649 146 q 618 156 627 146 q 606 210 610 165 l 551 725 q 512 967 534 896 q 431 1068 491 1038 q 232 1099 370 1099 l 65 1099 l 65 957 l 102 957 q 158 914 158 957 q 149 827 158 880 l -1 0 "},"μ":{"ha":732,"x_min":49,"x_max":681,"o":"m 49 900 l 49 -115 l 322 -115 l 322 9 q 406 75 368 24 l 401 0 l 681 0 l 681 900 l 407 900 l 407 220 q 397 158 407 172 q 364 143 387 143 q 322 204 322 143 l 322 900 l 49 900 "},"ν":{"ha":607,"x_min":-8,"x_max":615,"o":"m 615 900 l 370 900 q 343 596 355 753 q 313 243 322 315 l 237 900 l -8 900 l 130 0 l 487 0 l 615 900 "},"ξ":{"ha":530,"x_min":33,"x_max":522,"o":"m 168 578 q 65 508 96 553 q 33 386 33 463 q 144 196 33 216 l 290 168 q 339 145 323 161 q 354 94 354 128 q 340 42 354 57 q 285 28 327 28 l 178 28 l 178 -126 l 311 -126 q 475 -66 429 -126 q 522 115 522 -7 q 490 260 522 205 q 378 336 458 315 q 330 352 340 346 q 313 374 319 359 q 307 412 307 389 q 428 518 307 496 l 428 653 q 334 680 373 653 q 296 760 296 707 q 357 863 296 810 q 521 961 418 917 l 521 1099 l 39 1099 l 39 957 l 225 957 q 172 924 205 944 q 106 877 138 905 q 58 817 74 850 q 41 745 41 784 q 168 578 41 635 "},"ο":{"ha":710,"x_min":41,"x_max":669,"o":"m 669 584 q 655 726 669 680 q 606 817 642 773 q 504 889 570 861 q 346 916 438 916 q 165 873 236 916 q 68 760 95 831 q 41 564 41 690 l 41 334 q 56 162 41 219 q 105 64 71 104 q 203 4 140 24 q 357 -16 267 -16 q 502 7 439 -16 q 604 80 564 31 q 656 185 644 129 q 669 363 669 242 l 669 584 m 395 652 l 395 237 q 387 161 395 178 q 355 143 379 143 q 323 162 331 143 q 315 245 315 182 l 315 652 q 323 739 315 721 q 355 757 331 757 q 387 739 380 757 q 395 652 395 721 "},"π":{"ha":755,"x_min":4,"x_max":751,"o":"m 751 900 l 4 900 l 4 745 l 62 745 l 62 0 l 336 0 l 336 745 l 421 745 l 421 0 l 694 0 l 694 745 l 751 745 l 751 900 "},"ρ":{"ha":718,"x_min":49,"x_max":676,"o":"m 322 5 q 464 0 399 0 q 630 74 585 0 q 676 311 676 149 l 676 586 q 668 718 676 671 q 619 813 659 766 q 511 884 578 860 q 354 908 444 908 q 207 884 269 908 q 106 811 144 860 q 58 704 68 762 q 49 567 49 646 l 49 -129 l 322 -129 l 322 5 m 322 654 q 328 738 322 715 q 363 760 334 760 q 397 738 391 760 q 403 654 403 717 l 403 193 q 391 158 403 172 q 363 144 380 144 q 322 146 345 144 l 322 654 "},"ς":{"ha":538,"x_min":36,"x_max":525,"o":"m 310 425 l 310 619 q 332 731 310 699 q 400 764 354 764 q 493 760 436 764 l 493 899 q 285 908 353 908 q 102 827 168 908 q 36 600 36 747 l 36 414 q 47 293 36 336 q 82 228 58 251 q 144 198 107 205 l 292 168 q 344 145 332 160 q 357 97 357 131 q 344 41 357 54 q 288 28 331 28 l 180 28 l 180 -126 l 314 -126 q 478 -66 431 -126 q 525 115 525 -7 q 493 260 525 205 q 380 336 461 315 q 332 353 342 346 q 316 378 321 360 q 310 425 310 395 "},"σ":{"ha":722,"x_min":40,"x_max":728,"o":"m 728 900 l 346 900 q 201 876 264 900 q 100 803 139 852 q 50 697 60 754 q 40 558 40 640 l 40 326 q 46 193 40 244 q 74 101 53 142 q 135 33 96 60 q 214 -1 175 5 q 312 -8 252 -8 q 493 9 431 -8 q 599 70 555 26 q 655 174 643 115 q 668 357 668 234 l 668 568 q 648 746 668 706 l 728 746 l 728 900 m 395 184 q 383 150 395 163 q 354 136 372 136 q 314 214 314 136 l 314 636 q 320 720 314 698 q 354 742 326 742 q 389 721 382 742 q 395 636 395 699 l 395 184 "},"τ":{"ha":510,"x_min":4,"x_max":505,"o":"m 505 900 l 4 900 l 4 745 l 118 745 l 118 257 q 146 80 118 133 q 236 13 175 26 q 437 0 298 0 l 482 0 l 482 142 q 409 169 427 142 q 392 243 392 195 l 392 745 l 505 745 l 505 900 "},"υ":{"ha":725,"x_min":49,"x_max":681,"o":"m 681 900 l 407 900 l 407 214 q 397 152 407 167 q 364 138 387 138 q 322 199 322 138 l 322 900 l 49 900 l 49 288 q 115 62 49 133 q 364 -8 182 -8 q 559 21 494 -8 q 652 113 623 50 q 681 281 681 175 l 681 900 "},"φ":{"ha":1067,"x_min":41,"x_max":1026,"o":"m 41 635 l 41 306 q 65 158 41 233 q 165 41 90 83 q 347 0 241 0 l 399 0 l 399 -129 l 672 -129 l 672 0 l 722 0 q 905 42 828 0 q 1004 159 981 85 q 1026 311 1026 233 l 1026 586 q 1018 718 1026 671 q 969 813 1009 766 q 861 884 928 860 q 704 908 794 908 q 557 884 619 908 q 456 811 494 860 q 408 704 418 762 q 399 567 399 646 l 399 144 l 371 144 q 315 205 315 144 l 315 657 q 336 732 315 703 q 383 761 357 761 l 383 905 q 132 837 222 905 q 41 635 41 768 m 753 205 q 738 162 753 180 q 699 144 724 144 l 672 144 l 672 654 q 682 741 672 722 q 713 760 692 760 q 743 743 732 760 q 753 654 753 726 l 753 205 "},"χ":{"ha":690,"x_min":14,"x_max":681,"o":"m 100 675 l 164 414 l 14 -129 l 248 -129 l 334 281 l 385 17 q 432 -96 399 -59 q 524 -134 466 -134 q 681 -123 601 -134 l 681 12 q 638 20 648 14 q 620 38 629 25 q 608 62 612 50 q 576 186 604 73 l 522 400 l 659 900 l 415 900 l 339 543 l 300 760 q 255 869 288 832 q 154 905 222 905 q 14 896 77 905 l 14 757 q 36 758 28 758 q 77 741 66 758 q 100 675 88 723 "},"ψ":{"ha":1028,"x_min":-1,"x_max":1029,"o":"m 325 171 l 378 171 l 378 -129 l 650 -129 l 650 171 l 703 171 q 878 215 808 171 q 970 332 948 258 q 991 482 991 406 l 991 722 q 1029 900 991 848 l 779 900 q 733 741 733 859 l 733 396 q 713 339 733 363 q 665 315 694 315 l 650 315 l 650 1099 l 378 1099 l 378 315 l 363 315 q 314 339 334 315 q 294 396 294 362 l 294 741 q 249 900 294 859 l -1 900 q 36 722 36 848 l 36 482 q 110 246 36 321 q 325 171 184 171 "},"ω":{"ha":1088,"x_min":49,"x_max":1039,"o":"m 765 647 l 765 646 l 765 205 q 728 138 765 138 q 695 151 709 138 q 681 182 681 163 l 681 637 l 407 637 l 407 183 q 364 138 407 138 q 322 204 322 138 l 322 646 q 412 750 322 742 l 443 753 l 443 900 q 390 903 410 903 q 159 860 239 903 q 49 650 49 800 l 49 306 q 68 138 49 184 q 339 -7 129 -8 q 470 27 410 -7 q 543 114 529 61 q 618 26 562 60 q 742 -8 675 -8 q 906 16 846 -8 q 1017 126 983 47 q 1039 307 1039 180 l 1039 652 q 928 862 1039 802 q 697 904 849 904 q 644 901 678 904 l 644 754 l 675 751 q 765 647 765 743 "},"ϊ":{"ha":422,"x_min":-26,"x_max":447,"o":"m 49 257 q 77 80 49 133 q 167 13 106 26 q 368 0 228 0 l 412 0 l 412 142 q 339 169 357 142 q 322 243 322 195 l 322 900 l 49 900 l 49 257 m 151 1137 l -26 1137 l -26 960 l 151 960 l 151 1137 m 447 1137 l 270 1137 l 270 960 l 447 960 l 447 1137 "},"ϋ":{"ha":725,"x_min":49,"x_max":681,"o":"m 681 900 l 407 900 l 407 214 q 397 152 407 167 q 364 138 387 138 q 322 199 322 138 l 322 900 l 49 900 l 49 288 q 115 62 49 133 q 364 -8 182 -8 q 559 21 494 -8 q 652 113 623 50 q 681 281 681 175 l 681 900 m 302 1137 l 125 1137 l 125 960 l 302 960 l 302 1137 m 598 1137 l 421 1137 l 421 960 l 598 960 l 598 1137 "},"ό":{"ha":710,"x_min":41,"x_max":669,"o":"m 669 584 q 655 726 669 680 q 606 817 642 773 q 504 889 570 861 q 346 916 438 916 q 165 873 236 916 q 68 760 95 831 q 41 564 41 690 l 41 334 q 56 162 41 219 q 105 64 71 104 q 203 4 140 24 q 357 -16 267 -16 q 502 7 439 -16 q 604 80 564 31 q 656 185 644 129 q 669 363 669 242 l 669 584 m 395 652 l 395 237 q 387 161 395 178 q 355 143 379 143 q 323 162 331 143 q 315 245 315 182 l 315 652 q 323 739 315 721 q 355 757 331 757 q 387 739 380 757 q 395 652 395 721 m 297 1143 l 261 960 l 398 960 l 483 1143 l 297 1143 "},"ύ":{"ha":725,"x_min":49,"x_max":681,"o":"m 681 900 l 407 900 l 407 214 q 397 152 407 167 q 364 138 387 138 q 322 199 322 138 l 322 900 l 49 900 l 49 288 q 115 62 49 133 q 364 -8 182 -8 q 559 21 494 -8 q 652 113 623 50 q 681 281 681 175 l 681 900 m 309 1143 l 273 960 l 410 960 l 495 1143 l 309 1143 "},"ώ":{"ha":1088,"x_min":49,"x_max":1039,"o":"m 765 647 l 765 646 l 765 205 q 728 138 765 138 q 695 151 709 138 q 681 182 681 163 l 681 637 l 407 637 l 407 183 q 364 138 407 138 q 322 204 322 138 l 322 646 q 412 750 322 742 l 443 753 l 443 900 q 390 903 410 903 q 159 860 239 903 q 49 650 49 800 l 49 306 q 68 138 49 184 q 339 -7 129 -8 q 470 27 410 -7 q 543 114 529 61 q 618 26 562 60 q 742 -8 675 -8 q 906 16 846 -8 q 1017 126 983 47 q 1039 307 1039 180 l 1039 652 q 928 862 1039 802 q 697 904 849 904 q 644 901 678 904 l 644 754 l 675 751 q 765 647 765 743 m 489 1143 l 453 960 l 590 960 l 675 1143 l 489 1143 "},"Ё":{"ha":577,"x_min":57,"x_max":552,"o":"m 57 1098 l 57 0 l 552 0 l 552 220 l 342 220 l 342 461 l 521 461 l 521 670 l 342 670 l 342 878 l 533 878 l 533 1098 l 57 1098 m 251 1309 l 74 1309 l 74 1133 l 251 1133 l 251 1309 m 547 1309 l 370 1309 l 370 1133 l 547 1133 l 547 1309 "},"Ђ":{"ha":918,"x_min":7,"x_max":861,"o":"m 861 244 l 861 524 q 841 660 861 612 q 775 732 821 707 q 675 758 729 758 q 549 736 606 758 q 463 671 491 713 l 463 907 l 631 907 l 631 1099 l 7 1099 l 7 907 l 176 907 l 176 0 l 463 0 l 463 497 q 526 607 463 607 q 564 586 553 607 q 575 473 575 564 l 575 275 q 563 211 575 232 q 514 189 550 189 l 514 0 l 610 0 q 811 47 761 0 q 861 244 861 94 "},"Ѓ":{"ha":572,"x_min":57,"x_max":553,"o":"m 553 879 l 553 1099 l 57 1099 l 57 0 l 343 0 l 343 879 l 553 879 m 534 1316 l 293 1316 l 174 1133 l 311 1133 l 534 1316 "},"Є":{"ha":770,"x_min":57,"x_max":715,"o":"m 715 310 l 715 396 l 441 396 l 441 228 q 395 161 441 161 q 351 192 359 161 q 343 313 343 222 l 343 494 l 507 494 l 507 654 l 343 654 l 343 844 q 355 921 343 903 q 392 939 368 939 q 441 873 441 939 l 441 747 l 715 747 l 715 840 q 642 1045 715 983 q 378 1107 568 1107 q 57 836 57 1107 l 57 298 q 133 65 57 138 q 371 -8 210 -8 q 633 68 550 -8 q 715 310 715 144 "},"Ѕ":{"ha":718,"x_min":33,"x_max":686,"o":"m 662 766 l 662 809 q 636 995 662 940 q 533 1085 611 1049 q 343 1121 454 1121 q 170 1088 241 1121 q 65 997 98 1055 q 33 812 33 939 q 56 669 33 725 q 113 581 79 612 q 254 478 148 549 q 388 378 361 408 q 414 252 414 349 q 400 185 414 208 q 358 163 387 163 q 318 180 330 163 q 307 260 307 198 l 307 393 l 42 393 l 42 321 q 67 131 42 198 q 173 20 92 64 q 369 -23 254 -23 q 552 15 473 -23 q 658 108 631 52 q 686 281 686 163 q 636 515 686 442 q 396 701 587 587 q 315 768 330 740 q 300 850 300 795 q 314 914 300 893 q 353 935 327 935 q 387 920 376 935 q 397 847 397 904 l 397 766 l 662 766 "},"І":{"ha":400,"x_min":57,"x_max":342,"o":"m 342 1098 l 57 1098 l 57 0 l 342 0 l 342 1098 "},"Ї":{"ha":400,"x_min":-39,"x_max":435,"o":"m 342 1098 l 57 1098 l 57 0 l 342 0 l 342 1098 m 138 1309 l -39 1309 l -39 1133 l 138 1133 l 138 1309 m 435 1309 l 258 1309 l 258 1133 l 435 1133 l 435 1309 "},"Ј":{"ha":460,"x_min":12,"x_max":406,"o":"m 406 1098 l 121 1098 l 121 326 q 118 241 121 263 q 98 205 115 220 q 50 190 80 190 q 12 192 38 190 l 12 0 l 155 0 q 297 15 250 0 q 372 67 345 29 q 403 152 399 105 q 406 364 406 199 l 406 1098 "},"Љ":{"ha":1166,"x_min":7,"x_max":1133,"o":"m 1133 257 l 1133 471 q 1100 638 1133 585 q 998 707 1066 691 q 799 722 930 722 l 754 722 l 754 1099 l 98 1099 l 98 290 q 79 202 98 215 q 7 189 59 189 l 7 0 l 52 0 q 257 14 193 0 q 353 81 321 27 q 385 257 385 134 l 385 879 l 468 879 l 468 0 l 799 0 q 1005 14 940 0 q 1101 81 1069 27 q 1133 257 1133 134 m 847 290 q 828 203 847 217 q 754 189 808 189 l 754 550 q 833 533 819 548 q 847 449 847 518 l 847 290 "},"Њ":{"ha":1128,"x_min":57,"x_max":1092,"o":"m 1092 257 l 1092 471 q 1058 638 1092 585 q 957 707 1024 691 q 757 722 889 722 l 713 722 l 713 1099 l 427 1099 l 427 705 l 343 705 l 343 1099 l 57 1099 l 57 0 l 343 0 l 343 461 l 427 461 l 427 0 l 757 0 q 963 14 899 0 q 1060 81 1028 27 q 1092 257 1092 134 m 806 290 q 786 203 806 217 q 713 189 767 189 l 713 550 q 792 533 778 548 q 806 449 806 518 l 806 290 "},"Ћ":{"ha":918,"x_min":7,"x_max":861,"o":"m 463 667 l 463 907 l 631 907 l 631 1099 l 7 1099 l 7 907 l 176 907 l 176 0 l 463 0 l 463 497 q 526 607 463 607 q 564 586 553 607 q 575 473 575 564 l 575 0 l 861 0 l 861 481 q 850 644 861 591 q 797 727 840 696 q 675 758 754 758 q 550 734 609 758 q 463 667 492 711 "},"Ќ":{"ha":745,"x_min":57,"x_max":743,"o":"m 57 1099 l 57 0 l 343 0 l 345 465 q 409 440 384 465 q 433 374 433 415 l 433 160 q 479 0 433 41 l 743 0 q 705 178 705 53 l 707 353 q 514 550 708 526 q 707 745 708 574 l 705 933 q 743 1099 705 1059 l 479 1099 q 433 939 436 1057 l 428 724 q 345 635 425 637 l 343 1099 l 57 1099 m 340 1213 l 304 1030 l 441 1030 l 526 1213 l 340 1213 "},"Ў":{"ha":623,"x_min":-8,"x_max":623,"o":"m 623 1099 l 374 1099 l 330 415 l 240 1099 l -8 1099 l 142 272 q 158 179 158 180 q 145 151 158 160 q 75 142 132 142 l 58 142 l 58 0 l 225 0 q 424 30 363 0 q 505 129 484 60 q 545 371 526 199 l 623 1099 m 394 1337 q 317 1244 386 1244 q 240 1337 248 1244 l 125 1337 q 178 1189 129 1246 q 317 1133 227 1133 q 455 1189 406 1133 q 509 1337 505 1245 l 394 1337 "},"Џ":{"ha":771,"x_min":57,"x_max":714,"o":"m 714 0 l 714 1099 l 428 1099 l 428 220 l 343 220 l 343 1099 l 57 1099 l 57 0 l 289 0 l 289 -189 l 486 -189 l 486 0 l 714 0 "},"А":{"ha":705,"x_min":-8,"x_max":713,"o":"m 550 1098 l 137 1098 l -8 0 l 288 0 l 304 197 l 407 197 l 421 0 l 713 0 l 550 1098 m 399 392 l 301 392 q 355 852 312 538 q 399 392 377 578 "},"Б":{"ha":766,"x_min":57,"x_max":722,"o":"m 722 257 l 722 471 q 689 638 722 585 q 587 707 655 691 q 387 722 519 722 l 343 722 l 343 908 l 616 908 l 616 1099 l 57 1099 l 57 0 l 387 0 q 594 14 529 0 q 690 81 659 27 q 722 257 722 134 m 436 290 q 417 203 436 217 q 343 189 397 189 l 343 550 q 422 533 408 548 q 436 449 436 518 l 436 290 "},"В":{"ha":767,"x_min":57,"x_max":722,"o":"m 57 1098 l 57 0 l 387 0 q 615 20 559 0 q 696 93 671 39 q 722 258 722 146 l 722 359 q 686 518 722 467 q 552 593 651 570 q 671 651 641 613 q 701 785 701 689 q 659 992 701 928 q 546 1077 616 1056 q 342 1098 477 1098 l 57 1098 m 342 910 q 402 904 387 909 q 427 878 417 899 q 436 806 436 857 q 425 687 436 708 q 371 667 413 667 q 342 666 361 667 l 342 910 m 342 495 q 421 478 406 493 q 436 393 436 463 l 436 290 q 419 207 436 224 q 342 188 403 190 l 342 495 "},"Г":{"ha":572,"x_min":57,"x_max":553,"o":"m 553 879 l 553 1099 l 57 1099 l 57 0 l 343 0 l 343 879 l 553 879 "},"Д":{"ha":905,"x_min":18,"x_max":873,"o":"m 873 -189 l 873 231 l 815 231 l 815 1099 l 182 1099 l 182 1065 q 152 584 182 804 q 77 229 123 364 l 18 229 l 18 -189 l 215 -189 l 215 0 l 676 0 l 676 -189 l 873 -189 m 529 231 l 376 231 q 444 873 444 558 l 444 882 l 529 882 l 529 231 "},"Е":{"ha":577,"x_min":57,"x_max":552,"o":"m 57 1098 l 57 0 l 552 0 l 552 220 l 342 220 l 342 461 l 521 461 l 521 670 l 342 670 l 342 878 l 533 878 l 533 1098 l 57 1098 "},"Ж":{"ha":1028,"x_min":16,"x_max":1017,"o":"m 372 472 l 372 0 l 659 0 l 659 472 q 750 395 750 470 l 750 106 q 760 31 750 56 q 781 0 770 5 l 1017 0 q 986 131 986 44 l 986 378 q 942 498 986 456 q 791 557 898 539 l 791 558 q 985 737 985 568 l 985 970 q 1015 1099 985 1056 l 779 1099 q 761 1075 773 1099 q 749 994 749 1051 l 749 721 q 659 643 749 646 l 659 1099 l 372 1099 l 372 643 q 283 721 283 646 l 283 994 q 273 1069 283 1044 q 253 1099 263 1095 l 17 1099 q 47 970 47 1056 l 47 737 q 240 558 47 568 l 240 557 q 90 498 134 539 q 46 378 46 456 l 46 131 q 16 0 46 44 l 252 0 q 270 24 257 0 q 282 106 282 48 l 282 395 q 372 472 282 470 "},"З":{"ha":736,"x_min":41,"x_max":687,"o":"m 564 622 q 652 697 627 656 q 677 830 677 738 q 607 1043 677 966 q 341 1120 537 1120 q 113 1064 184 1120 q 41 852 41 1009 l 41 758 l 315 758 l 315 848 q 325 931 315 911 q 364 950 336 950 q 401 932 389 950 q 413 856 413 913 l 413 795 q 403 716 413 741 q 370 684 393 691 q 249 676 347 676 l 249 517 q 357 506 329 515 q 399 468 385 497 q 413 376 413 439 l 413 300 q 403 172 413 197 q 361 148 393 148 q 323 167 332 148 q 315 258 315 186 l 315 436 l 41 436 l 41 349 q 64 129 41 193 q 162 22 87 66 q 366 -22 236 -22 q 554 16 481 -22 q 657 126 627 54 q 687 329 687 198 q 656 553 687 505 q 564 622 626 601 "},"И":{"ha":751,"x_min":57,"x_max":694,"o":"m 694 0 l 694 1099 l 456 1099 l 296 603 l 296 1099 l 57 1099 l 57 0 l 307 0 l 456 500 l 456 0 l 694 0 "},"Й":{"ha":751,"x_min":57,"x_max":694,"o":"m 694 0 l 694 1099 l 456 1099 l 296 603 l 296 1099 l 57 1099 l 57 0 l 307 0 l 456 500 l 456 0 l 694 0 m 451 1337 q 374 1244 443 1244 q 297 1337 305 1244 l 182 1337 q 235 1189 186 1246 q 374 1133 284 1133 q 512 1189 463 1133 q 566 1337 562 1245 l 451 1337 "},"К":{"ha":745,"x_min":57,"x_max":743,"o":"m 57 1099 l 57 0 l 343 0 l 345 465 q 409 440 384 465 q 433 374 433 415 l 433 160 q 479 0 433 41 l 743 0 q 705 178 705 53 l 707 353 q 514 550 708 526 q 707 745 708 574 l 705 933 q 743 1099 705 1059 l 479 1099 q 433 939 436 1057 l 428 724 q 345 635 425 637 l 343 1099 l 57 1099 "},"Л":{"ha":811,"x_min":7,"x_max":754,"o":"m 754 0 l 754 1099 l 98 1099 l 98 290 q 79 202 98 215 q 7 189 59 189 l 7 0 l 52 0 q 257 14 193 0 q 353 81 321 27 q 385 257 385 134 l 385 879 l 468 879 l 468 0 l 754 0 "},"М":{"ha":996,"x_min":57,"x_max":938,"o":"m 938 1098 l 566 1098 l 500 585 l 461 865 q 427 1098 443 999 l 57 1098 l 57 0 l 307 0 l 307 724 l 412 0 l 589 0 l 688 741 l 688 0 l 938 0 l 938 1098 "},"Н":{"ha":771,"x_min":57,"x_max":713,"o":"m 713 1098 l 428 1098 l 428 705 l 342 705 l 342 1098 l 57 1098 l 57 0 l 342 0 l 342 461 l 428 461 l 428 0 l 713 0 l 713 1098 "},"О":{"ha":759,"x_min":49,"x_max":709,"o":"m 709 455 l 709 643 q 701 880 709 812 q 650 1006 693 948 q 537 1092 608 1063 q 379 1121 467 1121 q 216 1090 286 1121 q 105 1003 146 1060 q 57 877 64 946 q 49 643 49 808 l 49 455 q 57 218 49 286 q 108 92 65 150 q 221 6 151 35 q 379 -23 291 -23 q 542 7 472 -23 q 653 95 612 38 q 702 221 694 152 q 709 455 709 290 m 424 816 l 424 311 q 416 189 424 214 q 378 163 408 163 q 342 185 350 163 q 334 303 334 208 l 334 816 q 346 918 334 901 q 380 935 358 935 q 415 914 407 935 q 424 816 424 892 "},"П":{"ha":771,"x_min":57,"x_max":714,"o":"m 714 0 l 714 1099 l 57 1099 l 57 0 l 343 0 l 343 879 l 428 879 l 428 0 l 714 0 "},"Р":{"ha":697,"x_min":57,"x_max":672,"o":"m 57 1098 l 57 0 l 342 0 l 342 442 l 419 442 q 571 468 513 442 q 650 542 629 494 q 672 695 672 590 l 672 791 q 661 943 672 894 q 618 1027 650 992 q 524 1080 587 1061 q 345 1098 461 1098 l 57 1098 m 342 910 q 416 893 398 910 q 433 820 433 876 l 433 730 q 418 649 433 669 q 363 630 403 630 q 342 631 355 630 l 342 910 "},"С":{"ha":769,"x_min":49,"x_max":724,"o":"m 724 619 l 724 724 q 698 950 724 878 q 590 1072 672 1023 q 382 1121 508 1121 q 217 1089 289 1121 q 105 1003 146 1058 q 57 889 65 948 q 49 711 49 829 l 49 390 q 75 148 49 229 q 183 22 102 68 q 390 -23 264 -23 q 593 31 511 -23 q 700 155 675 84 q 724 397 724 227 l 724 439 l 438 439 l 438 302 q 428 187 438 212 q 387 163 418 163 q 344 187 353 163 q 334 292 334 212 l 334 802 q 344 910 334 885 q 389 935 353 935 q 429 915 420 935 q 438 810 438 894 l 438 619 l 724 619 "},"Т":{"ha":640,"x_min":8,"x_max":632,"o":"m 632 1098 l 8 1098 l 8 878 l 177 878 l 177 0 l 463 0 l 463 878 l 632 878 l 632 1098 "},"У":{"ha":623,"x_min":-8,"x_max":623,"o":"m 623 1099 l 374 1099 l 330 415 l 240 1099 l -8 1099 l 142 272 q 158 179 158 180 q 145 151 158 160 q 75 142 132 142 l 58 142 l 58 0 l 225 0 q 424 30 363 0 q 505 129 484 60 q 545 371 526 199 l 623 1099 "},"Ф":{"ha":1107,"x_min":21,"x_max":1086,"o":"m 1084 538 l 1084 557 q 1074 712 1084 665 q 1014 831 1060 778 q 743 911 943 911 q 693 913 728 911 l 693 1099 l 407 1099 l 407 913 q 363 911 378 911 q 92 831 163 911 q 31 712 45 778 q 21 557 21 665 l 21 538 q 31 382 21 430 q 92 264 45 317 q 363 182 163 182 l 407 182 l 407 0 l 693 0 l 693 182 l 743 182 q 1014 264 942 182 q 1074 382 1060 317 q 1084 538 1084 430 m 799 476 q 777 387 799 420 q 722 353 755 353 l 693 353 l 693 742 l 722 742 q 777 708 755 742 q 799 618 799 674 l 799 476 m 407 353 l 383 353 q 329 387 351 353 q 307 476 307 420 l 307 618 q 329 708 307 674 q 383 742 351 742 l 407 742 l 407 353 m 1086 538 "},"Х":{"ha":670,"x_min":0,"x_max":686,"o":"m 635 1098 l 396 1098 l 335 799 q 306 947 323 866 q 276 1098 283 1053 l 0 1098 l 103 612 l 0 0 l 278 0 l 305 179 q 335 399 324 296 q 422 0 374 164 l 686 0 l 536 612 l 635 1098 "},"Ц":{"ha":791,"x_min":57,"x_max":772,"o":"m 772 -189 l 772 220 l 714 220 l 714 1099 l 428 1099 l 428 220 l 343 220 l 343 1099 l 57 1099 l 57 0 l 575 0 l 575 -189 l 772 -189 "},"Ч":{"ha":790,"x_min":49,"x_max":733,"o":"m 447 421 l 447 0 l 733 0 l 733 1099 l 447 1099 l 447 602 q 383 492 447 492 q 346 516 357 492 q 335 604 335 540 l 335 1099 l 49 1099 l 49 574 q 95 397 49 454 q 244 340 142 340 q 357 362 301 340 q 447 421 412 385 "},"Ш":{"ha":1143,"x_min":57,"x_max":1086,"o":"m 1086 0 l 1086 1099 l 799 1099 l 799 220 l 714 220 l 714 1099 l 428 1099 l 428 220 l 343 220 l 343 1099 l 57 1099 l 57 0 l 1086 0 "},"Щ":{"ha":1166,"x_min":57,"x_max":1140,"o":"m 1140 -189 l 1140 220 l 1082 220 l 1082 1099 l 796 1099 l 796 220 l 711 220 l 711 1099 l 425 1099 l 425 220 l 343 220 l 343 1099 l 57 1099 l 57 0 l 943 0 l 943 -189 l 1140 -189 "},"Ъ":{"ha":863,"x_min":17,"x_max":819,"o":"m 819 257 l 819 471 q 786 638 819 585 q 685 707 752 691 q 485 722 617 722 l 440 722 l 440 1099 l 17 1099 l 17 926 l 154 926 l 154 0 l 485 0 q 691 14 626 0 q 787 81 755 27 q 819 257 819 134 m 533 290 q 514 203 533 217 q 440 189 494 189 l 440 550 q 519 533 505 548 q 533 449 533 518 l 533 290 "},"Ы":{"ha":1153,"x_min":57,"x_max":1105,"o":"m 722 257 l 722 471 q 689 638 722 585 q 587 707 655 691 q 387 722 519 722 l 343 722 l 343 1099 l 57 1099 l 57 0 l 387 0 q 594 14 529 0 q 690 81 659 27 q 722 257 722 134 m 436 290 q 417 203 436 217 q 343 189 397 189 l 343 550 q 422 533 408 548 q 436 449 436 518 l 436 290 m 1105 0 l 1105 1099 l 819 1099 l 819 0 l 1105 0 "},"Ь":{"ha":766,"x_min":57,"x_max":722,"o":"m 722 257 l 722 471 q 689 638 722 585 q 587 707 655 691 q 387 722 519 722 l 343 722 l 343 1099 l 57 1099 l 57 0 l 387 0 q 594 14 529 0 q 690 81 659 27 q 722 257 722 134 m 436 290 q 417 203 436 217 q 343 189 397 189 l 343 550 q 422 533 408 548 q 436 449 436 518 l 436 290 "},"Э":{"ha":736,"x_min":40,"x_max":681,"o":"m 681 298 l 681 833 q 598 1036 681 967 q 355 1105 516 1105 q 111 1048 181 1105 q 40 838 40 991 l 40 745 l 314 745 l 314 871 q 364 936 314 936 q 400 915 393 936 q 407 842 407 895 l 407 654 l 249 654 l 249 494 l 407 494 l 407 313 q 401 187 407 213 q 361 161 395 161 q 314 228 314 161 l 314 396 l 40 396 l 40 310 q 115 64 40 136 q 363 -8 191 -8 q 603 66 525 -8 q 681 298 681 140 "},"Ю":{"ha":1131,"x_min":57,"x_max":1082,"o":"m 421 461 l 421 456 q 425 274 421 342 q 443 160 429 206 q 499 74 456 114 q 604 16 541 34 q 751 -3 667 -3 q 908 18 842 -3 q 1017 87 974 39 q 1071 206 1060 134 q 1082 456 1082 278 l 1082 643 q 1070 892 1082 819 q 1017 1011 1059 965 q 908 1077 974 1057 q 751 1096 843 1096 q 600 1078 664 1096 q 492 1018 536 1060 q 436 912 449 975 q 421 705 422 848 l 343 705 l 343 1099 l 57 1099 l 57 0 l 343 0 l 343 461 l 421 461 m 796 271 q 785 181 796 200 q 750 163 774 163 q 715 186 723 163 q 707 252 707 209 l 707 815 q 717 916 707 896 q 751 936 727 936 q 789 910 782 936 q 796 815 796 884 l 796 271 "},"Я":{"ha":747,"x_min":56,"x_max":693,"o":"m 693 0 l 693 1099 l 490 1099 q 280 1093 347 1099 q 161 1060 213 1087 q 83 971 110 1033 q 56 799 56 909 q 85 630 56 677 q 212 574 114 583 q 107 526 140 555 q 65 454 74 498 q 56 328 56 411 l 56 0 l 321 0 l 321 397 q 337 476 321 458 q 407 494 353 494 l 407 0 l 693 0 m 407 667 q 336 685 351 667 q 321 765 321 704 l 321 825 q 339 893 321 878 q 393 909 357 909 l 407 909 l 407 667 "},"а":{"ha":700,"x_min":37,"x_max":654,"o":"m 294 551 l 294 646 q 300 739 294 721 q 335 757 307 757 q 370 735 359 757 q 380 644 380 714 q 371 569 380 587 q 227 498 361 551 q 68 412 100 449 q 37 275 37 376 l 37 201 q 97 24 37 64 q 229 -16 157 -16 q 323 8 283 -16 q 388 80 363 32 l 388 0 l 654 0 l 654 452 q 640 746 654 675 q 555 867 626 818 q 346 916 485 916 q 157 873 230 916 q 61 773 85 829 q 37 612 37 716 l 37 551 l 294 551 m 380 428 l 380 243 q 373 159 380 175 q 339 143 365 143 q 303 163 312 143 q 294 254 294 184 q 304 347 294 315 q 380 428 315 380 "},"б":{"ha":725,"x_min":49,"x_max":676,"o":"m 403 184 q 363 136 403 136 q 322 214 322 136 l 322 644 q 326 718 322 703 q 363 750 333 750 q 399 719 392 750 q 403 644 403 705 l 403 184 m 468 900 q 319 821 385 900 q 323 908 319 892 q 392 961 336 961 q 489 956 421 961 q 593 950 556 950 q 646 960 612 950 l 646 1101 q 585 1093 621 1093 q 462 1100 555 1093 q 318 1107 368 1107 q 123 1037 198 1107 q 49 854 49 966 l 49 326 q 64 149 49 205 q 149 29 85 73 q 245 -5 189 2 q 361 -8 273 -8 q 656 149 596 -8 q 676 357 676 204 l 676 576 q 672 742 676 667 q 468 900 663 900 "},"в":{"ha":714,"x_min":49,"x_max":684,"o":"m 684 237 l 684 290 q 636 419 684 368 q 505 484 588 470 q 664 657 664 505 q 601 845 664 790 q 372 900 538 900 l 49 900 l 49 0 l 363 0 q 624 50 564 0 q 684 237 684 100 m 321 566 l 321 711 q 395 696 380 711 q 411 643 411 682 q 397 581 411 597 q 321 566 383 566 m 411 279 q 393 205 411 221 q 321 189 376 189 l 321 397 q 395 383 380 397 q 411 310 411 368 l 411 279 "},"г":{"ha":479,"x_min":49,"x_max":479,"o":"m 49 0 l 322 0 l 322 745 l 479 745 l 479 900 l 49 900 l 49 0 "},"д":{"ha":865,"x_min":18,"x_max":846,"o":"m 846 -174 l 846 216 l 787 216 l 787 900 l 196 900 l 196 867 q 162 466 196 635 q 77 215 129 296 l 18 215 l 18 -174 l 201 -174 l 201 0 l 663 0 l 663 -174 l 846 -174 m 515 216 l 363 216 q 444 688 444 437 l 444 697 l 515 697 l 515 216 "},"е":{"ha":710,"x_min":41,"x_max":669,"o":"m 669 434 l 669 553 q 639 756 669 684 q 534 872 609 829 q 344 916 459 916 q 177 880 250 916 q 73 775 104 844 q 41 589 41 707 l 41 327 q 55 174 41 227 q 106 78 69 121 q 210 9 143 34 q 363 -16 276 -16 q 512 9 452 -16 q 610 85 571 35 q 659 181 648 136 q 669 309 669 226 l 669 376 l 410 376 l 410 257 q 399 166 410 190 q 357 143 389 143 q 323 161 332 143 q 315 239 315 178 l 315 434 l 669 434 m 395 581 l 315 581 l 315 646 q 321 740 315 722 q 357 757 328 757 q 387 736 380 757 q 395 646 395 716 l 395 581 "},"ж":{"ha":1038,"x_min":8,"x_max":1029,"o":"m 1029 0 q 999 131 999 44 l 999 289 q 859 446 999 401 q 770 468 793 464 q 861 492 820 473 q 951 542 930 524 q 997 648 997 582 l 997 770 q 1028 900 997 856 l 764 900 q 733 794 733 886 l 733 642 q 647 550 733 550 l 647 900 l 376 900 l 376 550 q 304 642 304 550 l 304 794 q 273 900 304 859 l 9 900 q 40 770 40 856 l 40 648 q 87 542 40 582 q 176 492 108 524 q 268 468 244 469 q 179 446 218 458 q 39 289 39 401 l 39 131 q 8 0 39 44 l 272 0 q 302 106 302 14 l 302 296 q 376 387 302 387 l 376 0 l 647 0 l 647 387 q 734 296 734 387 l 734 106 q 765 0 734 41 l 1029 0 "},"з":{"ha":701,"x_min":40,"x_max":660,"o":"m 534 482 q 624 543 600 503 q 648 664 648 583 q 573 842 648 785 q 342 900 498 900 q 110 840 179 900 q 40 637 40 780 l 40 597 l 300 597 l 300 671 q 350 730 300 730 q 386 715 374 730 q 399 642 399 699 l 399 623 q 388 567 399 583 q 359 547 376 550 q 283 545 341 545 l 262 545 l 262 416 q 372 401 346 416 q 399 347 399 387 l 399 290 q 386 189 399 208 q 347 170 372 170 q 300 237 300 170 l 300 364 l 40 364 l 40 298 q 106 64 40 129 q 336 0 172 0 q 487 19 419 0 q 594 81 555 38 q 646 166 633 124 q 660 300 660 208 q 629 422 660 383 q 534 482 599 462 "},"и":{"ha":777,"x_min":49,"x_max":728,"o":"m 728 0 l 728 900 l 475 900 l 288 418 l 288 900 l 49 900 l 49 0 l 298 0 l 489 486 l 489 0 l 728 0 "},"й":{"ha":777,"x_min":49,"x_max":728,"o":"m 728 0 l 728 900 l 475 900 l 288 418 l 288 900 l 49 900 l 49 0 l 298 0 l 489 486 l 489 0 l 728 0 m 464 1165 q 387 1072 456 1072 q 310 1165 318 1072 l 195 1165 q 248 1017 199 1074 q 387 960 297 960 q 525 1017 475 960 q 579 1165 575 1073 l 464 1165 "},"к":{"ha":710,"x_min":49,"x_max":701,"o":"m 319 900 l 49 900 l 49 0 l 319 0 l 319 387 q 407 296 407 387 l 407 106 q 437 0 407 41 l 701 0 q 671 131 671 44 l 671 289 q 530 446 671 401 q 441 468 465 464 q 533 489 492 469 q 616 535 596 519 q 669 644 669 578 l 669 770 q 700 900 669 856 l 436 900 q 406 794 406 886 l 406 642 q 319 550 406 550 l 319 900 "},"л":{"ha":779,"x_min":4,"x_max":737,"o":"m 465 0 l 737 0 l 737 900 l 96 900 l 96 249 q 76 160 96 173 q 4 147 56 148 l 4 0 l 49 0 q 250 13 189 0 q 340 80 311 26 q 368 257 368 133 l 368 711 l 465 711 l 465 0 "},"м":{"ha":949,"x_min":49,"x_max":900,"o":"m 900 0 l 900 900 l 555 900 l 476 403 l 389 900 l 49 900 l 49 0 l 283 0 l 283 621 l 401 0 l 551 0 l 665 621 l 665 0 l 900 0 "},"н":{"ha":741,"x_min":49,"x_max":692,"o":"m 692 0 l 692 900 l 419 900 l 419 576 l 321 576 l 321 900 l 49 900 l 49 0 l 321 0 l 321 332 l 419 332 l 419 0 l 692 0 "},"о":{"ha":710,"x_min":41,"x_max":669,"o":"m 669 584 q 655 726 669 680 q 606 817 642 773 q 504 889 570 861 q 346 916 438 916 q 165 873 236 916 q 68 760 95 831 q 41 564 41 690 l 41 334 q 56 162 41 219 q 105 64 71 104 q 203 4 140 24 q 357 -16 267 -16 q 502 7 439 -16 q 604 80 564 31 q 656 185 644 129 q 669 363 669 242 l 669 584 m 395 652 l 395 237 q 387 161 395 178 q 355 143 379 143 q 323 162 331 143 q 315 245 315 182 l 315 652 q 323 739 315 721 q 355 757 331 757 q 387 739 380 757 q 395 652 395 721 "},"п":{"ha":739,"x_min":49,"x_max":690,"o":"m 49 0 l 321 0 l 321 711 l 418 711 l 418 0 l 690 0 l 690 900 l 49 900 l 49 0 "},"р":{"ha":721,"x_min":49,"x_max":680,"o":"m 328 900 l 49 900 l 49 -128 l 323 -128 l 323 78 q 402 7 359 31 q 496 -16 446 -16 q 605 15 560 -16 q 665 97 650 45 q 680 272 680 149 l 680 651 q 668 803 680 758 q 610 882 656 848 q 500 916 564 916 q 404 892 448 916 q 323 821 359 869 l 328 900 m 406 638 l 406 252 q 399 162 406 180 q 366 143 393 143 q 331 163 339 143 q 323 265 323 184 l 323 638 q 331 736 323 716 q 366 757 338 757 q 399 739 393 757 q 406 638 406 722 "},"с":{"ha":687,"x_min":41,"x_max":654,"o":"m 654 560 q 629 756 654 687 q 528 871 604 825 q 345 916 452 916 q 162 870 237 916 q 64 766 87 825 q 41 593 41 708 l 41 338 q 69 135 41 206 q 165 23 97 63 q 349 -16 233 -16 q 501 13 439 -16 q 601 98 563 41 q 647 209 640 155 q 654 370 654 262 l 410 370 l 410 263 q 400 168 410 193 q 363 143 391 143 q 327 167 339 143 q 315 239 315 191 l 315 664 q 323 740 315 723 q 355 757 331 757 q 387 738 378 757 q 396 664 396 718 l 396 560 l 654 560 "},"т":{"ha":597,"x_min":4,"x_max":591,"o":"m 591 900 l 4 900 l 4 711 l 161 711 l 161 0 l 435 0 l 435 711 l 591 711 l 591 900 "},"у":{"ha":623,"x_min":-8,"x_max":623,"o":"m 623 900 l 374 900 l 330 293 l 241 900 l -8 900 l 142 147 q 159 53 159 64 q 140 24 159 31 q 58 18 122 18 l 58 -126 l 224 -126 q 390 -109 338 -126 q 471 -55 442 -92 q 513 38 500 -18 q 544 249 526 94 l 623 900 "},"ф":{"ha":1068,"x_min":40,"x_max":1026,"o":"m 1026 272 l 1026 652 q 1016 796 1026 746 q 963 874 1006 846 q 847 903 920 903 q 669 821 735 903 l 669 1040 l 397 1040 l 397 819 q 228 901 336 901 q 104 867 144 901 q 52 776 63 833 q 40 625 40 720 l 40 245 q 51 101 40 151 q 104 23 61 52 q 220 -5 146 -5 q 397 77 332 -5 l 397 -129 l 669 -129 l 669 78 q 839 -4 730 -4 q 963 30 922 -4 q 1015 121 1004 64 q 1026 272 1026 178 m 753 211 q 743 157 753 170 q 714 143 733 143 q 669 212 669 143 l 669 681 q 680 740 669 724 q 713 757 690 757 q 743 745 734 757 q 752 719 751 733 q 753 639 753 705 l 753 211 m 397 216 q 387 157 397 174 q 354 140 377 140 q 324 152 333 140 q 315 178 315 164 q 314 258 314 193 l 314 686 q 324 741 314 727 q 353 754 334 754 q 397 685 397 754 l 397 216 "},"х":{"ha":602,"x_min":0,"x_max":614,"o":"m 591 900 l 348 900 q 288 587 328 817 q 229 900 284 625 l 0 900 l 118 470 l 0 0 l 229 0 q 288 306 261 146 q 348 0 309 178 l 614 0 l 482 470 l 591 900 "},"ц":{"ha":768,"x_min":49,"x_max":749,"o":"m 49 0 l 566 0 l 566 -174 l 749 -174 l 749 189 l 690 189 l 690 900 l 418 900 l 418 189 l 321 189 l 321 900 l 49 900 l 49 0 "},"ч":{"ha":715,"x_min":40,"x_max":673,"o":"m 673 0 l 673 900 l 400 900 l 400 456 q 391 366 400 388 q 357 343 381 343 q 321 368 328 343 q 314 465 314 393 l 314 900 l 40 900 l 40 478 q 51 307 40 360 q 110 227 62 254 q 236 199 158 199 q 400 248 349 199 l 400 0 l 673 0 "},"ш":{"ha":1112,"x_min":49,"x_max":1064,"o":"m 693 189 l 693 900 l 419 900 l 419 189 l 322 189 l 322 900 l 49 900 l 49 0 l 1064 0 l 1064 900 l 790 900 l 790 189 l 693 189 "},"щ":{"ha":1141,"x_min":49,"x_max":1122,"o":"m 49 0 l 939 0 l 939 -174 l 1122 -174 l 1122 189 l 1064 189 l 1064 900 l 790 900 l 790 189 l 693 189 l 693 900 l 419 900 l 419 189 l 322 189 l 322 900 l 49 900 l 49 0 "},"ъ":{"ha":823,"x_min":7,"x_max":782,"o":"m 782 257 l 782 349 q 751 516 782 463 q 656 585 721 569 q 461 600 592 600 l 416 600 l 416 900 l 7 900 l 7 711 l 144 711 l 144 0 l 461 0 q 663 13 602 0 q 753 80 724 26 q 782 257 782 134 m 510 290 q 490 203 510 217 q 416 189 471 189 l 416 428 q 496 411 481 426 q 510 326 510 396 l 510 290 "},"ы":{"ha":1089,"x_min":49,"x_max":1042,"o":"m 686 257 l 686 349 q 656 516 686 463 q 561 585 625 569 q 366 600 496 600 l 321 600 l 321 900 l 49 900 l 49 0 l 366 0 q 567 13 505 0 q 657 80 629 26 q 686 257 686 134 m 414 290 q 394 203 414 217 q 321 189 375 189 l 321 428 q 400 411 386 426 q 414 326 414 396 l 414 290 m 1042 0 l 1042 900 l 770 900 l 770 0 l 1042 0 "},"ь":{"ha":725,"x_min":49,"x_max":686,"o":"m 686 257 l 686 349 q 656 516 686 463 q 561 585 625 569 q 366 600 496 600 l 321 600 l 321 900 l 49 900 l 49 0 l 366 0 q 567 13 505 0 q 657 80 629 26 q 686 257 686 134 m 414 290 q 394 203 414 217 q 321 189 375 189 l 321 428 q 400 411 386 426 q 414 326 414 396 l 414 290 "},"э":{"ha":694,"x_min":39,"x_max":653,"o":"m 269 533 l 269 411 l 393 411 l 393 237 q 382 157 393 173 q 350 142 371 142 q 310 162 322 142 q 297 236 297 183 l 297 347 l 39 347 l 39 309 q 48 179 39 230 q 99 82 58 129 q 197 16 139 35 q 345 -3 255 -3 q 496 19 435 -3 q 595 87 557 41 q 643 186 633 134 q 653 325 653 239 l 653 587 q 581 831 653 764 q 364 899 509 899 q 184 871 251 899 q 78 780 117 844 q 40 628 40 716 l 40 587 l 313 587 l 313 644 q 319 731 313 708 q 351 754 326 754 q 383 741 373 754 q 393 689 393 728 l 393 533 l 269 533 "},"ю":{"ha":1075,"x_min":49,"x_max":1034,"o":"m 406 363 l 406 334 q 412 200 406 251 q 439 108 418 149 q 500 39 461 66 q 579 5 540 12 q 677 -1 618 -1 q 859 16 796 -1 q 965 77 921 33 q 1021 181 1008 122 q 1034 364 1034 241 l 1034 583 q 1025 715 1034 668 q 976 810 1017 763 q 868 881 935 857 q 711 905 801 905 q 564 881 626 905 q 463 808 501 857 q 415 702 425 760 q 406 564 406 644 l 406 551 l 323 551 l 323 900 l 49 900 l 49 0 l 322 0 l 322 363 l 406 363 m 760 192 q 748 157 760 171 q 720 143 737 143 q 679 221 679 143 l 679 652 q 685 735 679 713 q 720 757 692 757 q 753 735 747 757 q 760 652 760 714 l 760 192 "},"я":{"ha":710,"x_min":45,"x_max":661,"o":"m 661 0 l 661 900 l 458 900 q 122 841 200 900 q 45 648 45 783 q 74 480 45 527 q 201 424 103 433 q 94 383 125 404 q 54 327 62 363 q 45 211 45 292 l 45 0 l 296 0 l 296 248 q 316 332 296 309 q 389 354 336 354 l 389 0 l 661 0 m 389 510 q 316 530 336 510 q 296 615 296 550 l 296 627 q 313 708 296 690 q 361 725 331 725 l 389 725 l 389 510 "},"ё":{"ha":710,"x_min":41,"x_max":669,"o":"m 669 434 l 669 553 q 639 756 669 684 q 534 872 609 829 q 344 916 459 916 q 177 880 250 916 q 73 775 104 844 q 41 589 41 707 l 41 327 q 55 174 41 227 q 106 78 69 121 q 210 9 143 34 q 363 -16 276 -16 q 512 9 452 -16 q 610 85 571 35 q 659 181 648 136 q 669 309 669 226 l 669 376 l 410 376 l 410 257 q 399 166 410 190 q 357 143 389 143 q 323 161 332 143 q 315 239 315 178 l 315 434 l 669 434 m 395 581 l 315 581 l 315 646 q 321 740 315 722 q 357 757 328 757 q 387 736 380 757 q 395 646 395 716 l 395 581 m 294 1137 l 117 1137 l 117 960 l 294 960 l 294 1137 m 590 1137 l 413 1137 l 413 960 l 590 960 l 590 1137 "},"ђ":{"ha":743,"x_min":5,"x_max":701,"o":"m 68 875 l 68 0 l 342 0 l 342 536 q 351 626 342 604 q 385 648 360 648 q 421 624 414 648 q 428 526 428 599 l 428 85 q 417 11 428 39 q 374 -17 407 -17 l 374 -205 l 390 -205 q 636 -143 571 -205 q 701 52 701 -81 l 701 514 q 691 685 701 631 q 632 765 680 738 q 505 793 584 793 q 342 745 396 793 l 342 875 l 489 875 l 489 1017 l 342 1017 l 342 1100 l 68 1100 l 68 1017 l 5 1017 l 5 875 l 68 875 "},"ѓ":{"ha":479,"x_min":49,"x_max":479,"o":"m 49 8 l 322 8 l 322 753 l 479 753 l 479 908 l 49 908 l 49 8 m 472 1146 l 231 1146 l 111 962 l 249 962 l 472 1146 "},"є":{"ha":694,"x_min":41,"x_max":656,"o":"m 656 302 l 656 342 l 397 342 l 397 231 q 385 157 397 178 q 345 136 372 136 q 312 152 323 136 q 301 232 301 167 l 301 406 l 425 406 l 425 533 l 301 533 l 301 699 q 311 751 301 738 q 343 764 321 764 q 375 741 369 764 q 382 654 382 718 l 382 597 l 654 597 l 654 637 q 582 834 654 760 q 330 908 509 908 q 190 888 247 908 q 98 823 133 867 q 53 725 64 779 q 41 597 41 670 l 41 319 q 51 182 41 235 q 98 83 61 130 q 197 14 135 36 q 350 -8 259 -8 q 495 10 438 -8 q 594 74 553 28 q 645 172 635 121 q 656 302 656 223 "},"ѕ":{"ha":654,"x_min":28,"x_max":629,"o":"m 608 612 l 608 665 q 601 764 608 732 q 561 833 594 796 q 464 893 527 871 q 312 916 401 916 q 154 888 222 916 q 57 809 85 861 q 28 650 28 758 q 55 519 28 574 q 202 396 81 464 q 361 300 346 316 q 376 219 376 283 q 365 158 376 172 q 324 143 353 143 q 288 165 297 143 q 279 259 279 186 l 279 316 l 36 316 l 36 273 q 64 104 36 160 q 166 16 92 49 q 345 -16 240 -16 q 506 14 439 -16 q 601 100 572 44 q 629 266 629 156 q 592 416 629 364 q 435 526 555 467 q 317 593 346 570 q 282 635 288 616 q 277 696 277 654 q 288 742 277 726 q 323 757 300 757 q 358 740 351 757 q 366 661 366 724 l 366 612 l 608 612 "},"і":{"ha":380,"x_min":49,"x_max":331,"o":"m 331 1098 l 49 1098 l 49 955 l 331 955 l 331 1098 m 331 900 l 49 900 l 49 0 l 331 0 l 331 900 "},"ї":{"ha":380,"x_min":-45,"x_max":429,"o":"m 331 900 l 49 900 l 49 0 l 331 0 l 331 900 m 132 1137 l -45 1137 l -45 961 l 132 961 l 132 1137 m 429 1137 l 252 1137 l 252 961 l 429 961 l 429 1137 "},"ј":{"ha":389,"x_min":-4,"x_max":339,"o":"m 339 1098 l 57 1098 l 57 955 l 339 955 l 339 1098 m 339 900 l 57 900 l 57 164 q 51 28 57 39 q -4 18 45 18 l -4 -126 l 102 -126 q 233 -110 189 -126 q 303 -60 277 -94 q 334 18 329 -26 q 339 188 339 62 l 339 900 "},"љ":{"ha":1145,"x_min":4,"x_max":1103,"o":"m 368 711 l 465 711 l 465 0 l 782 0 q 984 13 922 0 q 1074 80 1045 26 q 1103 257 1103 134 l 1103 349 q 1072 516 1103 463 q 977 585 1042 569 q 782 600 913 600 l 737 600 l 737 900 l 96 900 l 96 290 q 76 202 96 215 q 4 189 56 189 l 4 0 l 49 0 q 250 13 189 0 q 340 80 311 26 q 368 257 368 133 l 368 711 m 831 290 q 811 203 831 217 q 737 189 791 189 l 737 428 q 817 411 802 426 q 831 326 831 396 l 831 290 "},"њ":{"ha":1089,"x_min":40,"x_max":1047,"o":"m 682 900 l 410 900 l 410 576 l 313 576 l 313 900 l 40 900 l 40 0 l 313 0 l 313 336 l 410 336 l 410 0 l 726 0 q 928 13 867 0 q 1018 80 989 26 q 1047 257 1047 134 l 1047 349 q 1017 516 1047 463 q 922 585 986 569 q 726 600 857 600 l 682 600 l 682 900 m 775 290 q 756 203 775 217 q 682 189 736 189 l 682 428 q 761 411 747 426 q 775 326 775 396 l 775 290 "},"ћ":{"ha":743,"x_min":5,"x_max":701,"o":"m 428 0 l 701 0 l 701 514 q 691 685 701 631 q 632 765 680 738 q 505 793 584 793 q 342 745 393 793 l 342 875 l 489 875 l 489 1017 l 342 1017 l 342 1100 l 68 1100 l 68 1017 l 5 1017 l 5 875 l 68 875 l 68 0 l 342 0 l 342 536 q 351 626 342 604 q 385 648 360 648 q 421 624 414 648 q 428 526 428 599 l 428 0 "},"ќ":{"ha":710,"x_min":49,"x_max":701,"o":"m 319 900 l 49 900 l 49 0 l 319 0 l 319 387 q 407 296 407 387 l 407 106 q 437 0 407 41 l 701 0 q 671 131 671 44 l 671 289 q 530 446 671 401 q 441 468 465 464 q 533 489 492 469 q 616 535 596 519 q 669 644 669 578 l 669 770 q 700 900 669 856 l 436 900 q 406 794 406 886 l 406 642 q 319 550 406 550 l 319 900 m 591 1144 l 350 1144 l 231 960 l 368 960 l 591 1144 "},"ў":{"ha":623,"x_min":-8,"x_max":623,"o":"m 623 900 l 374 900 l 330 293 l 241 900 l -8 900 l 142 147 q 159 53 159 64 q 140 24 159 31 q 58 18 122 18 l 58 -126 l 224 -126 q 390 -109 338 -126 q 471 -55 442 -92 q 513 38 500 -18 q 544 249 526 94 l 623 900 m 394 1165 q 317 1072 386 1072 q 240 1165 248 1072 l 125 1165 q 178 1017 129 1074 q 317 960 227 960 q 455 1017 406 960 q 509 1165 505 1073 l 394 1165 "},"џ":{"ha":724,"x_min":40,"x_max":682,"o":"m 269 0 l 269 -174 l 453 -174 l 453 0 l 682 0 l 682 900 l 410 900 l 410 189 l 313 189 l 313 900 l 40 900 l 40 0 l 269 0 "},"Ґ":{"ha":597,"x_min":57,"x_max":579,"o":"m 382 1182 l 382 1099 l 57 1099 l 57 0 l 343 0 l 343 879 l 579 879 l 579 1182 l 382 1182 "},"ґ":{"ha":561,"x_min":49,"x_max":558,"o":"m 375 900 l 49 900 l 49 0 l 322 0 l 322 711 l 558 711 l 558 1029 l 375 1029 l 375 900 "},"Ẁ":{"ha":1131,"x_min":0,"x_max":1131,"o":"m 1131 1098 l 854 1098 q 774 319 798 717 l 743 736 q 712 1098 718 1050 l 415 1098 q 336 345 352 632 l 307 715 l 277 1098 l 0 1098 l 127 0 l 482 0 q 562 575 545 437 q 648 0 599 253 l 1004 0 l 1131 1098 m 330 1316 l 553 1133 l 691 1133 l 572 1316 l 330 1316 "},"ẁ":{"ha":930,"x_min":-4,"x_max":934,"o":"m 934 900 l 698 900 q 635 385 648 610 l 580 900 l 353 900 q 292 385 296 434 q 232 900 235 865 l -4 900 l 112 0 l 410 0 l 440 195 q 471 434 460 316 q 527 0 503 165 l 825 0 l 934 900 m 253 1144 l 476 960 l 614 960 l 494 1144 l 253 1144 "},"Ẃ":{"ha":1131,"x_min":0,"x_max":1131,"o":"m 1131 1098 l 854 1098 q 774 319 798 717 l 743 736 q 712 1098 718 1050 l 415 1098 q 336 345 352 632 l 307 715 l 277 1098 l 0 1098 l 127 0 l 482 0 q 562 575 545 437 q 648 0 599 253 l 1004 0 l 1131 1098 m 764 1316 l 522 1316 l 403 1133 l 541 1133 l 764 1316 "},"ẃ":{"ha":930,"x_min":-4,"x_max":934,"o":"m 934 900 l 698 900 q 635 385 648 610 l 580 900 l 353 900 q 292 385 296 434 q 232 900 235 865 l -4 900 l 112 0 l 410 0 l 440 195 q 471 434 460 316 q 527 0 503 165 l 825 0 l 934 900 m 663 1144 l 422 1144 l 302 960 l 440 960 l 663 1144 "},"Ẅ":{"ha":1131,"x_min":0,"x_max":1131,"o":"m 1131 1098 l 854 1098 q 774 319 798 717 l 743 736 q 712 1098 718 1050 l 415 1098 q 336 345 352 632 l 307 715 l 277 1098 l 0 1098 l 127 0 l 482 0 q 562 575 545 437 q 648 0 599 253 l 1004 0 l 1131 1098 m 506 1309 l 329 1309 l 329 1133 l 506 1133 l 506 1309 m 802 1309 l 625 1309 l 625 1133 l 802 1133 l 802 1309 "},"ẅ":{"ha":930,"x_min":-4,"x_max":934,"o":"m 934 900 l 698 900 q 635 385 648 610 l 580 900 l 353 900 q 292 385 296 434 q 232 900 235 865 l -4 900 l 112 0 l 410 0 l 440 195 q 471 434 460 316 q 527 0 503 165 l 825 0 l 934 900 m 404 1137 l 227 1137 l 227 960 l 404 960 l 404 1137 m 700 1137 l 523 1137 l 523 960 l 700 960 l 700 1137 "},"Ỳ":{"ha":657,"x_min":-8,"x_max":665,"o":"m 665 1098 l 403 1098 q 323 666 347 842 q 254 1098 316 777 l -8 1098 l 193 397 l 193 0 l 457 0 l 457 397 l 665 1098 m 114 1316 l 337 1133 l 475 1133 l 355 1316 l 114 1316 "},"ỳ":{"ha":623,"x_min":-8,"x_max":623,"o":"m 623 900 l 374 900 l 330 293 l 241 900 l -8 900 l 142 147 q 159 53 159 64 q 140 24 159 31 q 58 18 122 18 l 58 -126 l 224 -126 q 390 -109 338 -126 q 471 -55 442 -92 q 513 38 500 -18 q 544 249 526 94 l 623 900 m 97 1144 l 320 960 l 458 960 l 338 1144 l 97 1144 "},"―":{"ha":1389,"x_min":-8,"x_max":1397,"o":"m -8 534 l -8 366 l 1397 366 l 1397 534 l -8 534 "},"‗":{"ha":766,"x_min":-8,"x_max":775,"o":"m -8 -174 l 775 -174 l 775 -104 l -8 -104 l -8 -174 m -8 -313 l 775 -313 l 775 -243 l -8 -243 l -8 -313 "},"‛":{"ha":233,"x_min":25,"x_max":209,"o":"m 25 1098 l 25 1000 q 43 873 25 923 q 209 743 81 770 l 209 822 q 163 883 168 844 l 209 883 l 209 1098 l 25 1098 "},"′":{"ha":257,"x_min":54,"x_max":261,"o":"m 201 745 l 261 1099 l 54 1099 l 61 745 l 201 745 "},"″":{"ha":539,"x_min":54,"x_max":539,"o":"m 201 745 l 261 1099 l 54 1099 l 61 745 l 201 745 m 479 745 l 539 1099 l 332 1099 l 339 745 l 479 745 "},"‼":{"ha":755,"x_min":49,"x_max":701,"o":"m 49 1099 l 93 271 l 306 271 l 350 1099 l 49 1099 m 400 1099 l 444 271 l 657 271 l 701 1099 l 400 1099 m 71 220 l 71 0 l 328 0 l 328 220 l 71 220 m 422 220 l 422 0 l 679 0 l 679 220 l 422 220 "},"‾":{"ha":814,"x_min":-28,"x_max":844,"o":"m -28 1267 l -28 1217 l 844 1217 l 844 1267 l -28 1267 "},"ⁿ":{"ha":463,"x_min":25,"x_max":432,"o":"m 207 1099 l 25 1099 l 25 570 l 203 570 l 203 926 q 209 994 203 974 q 232 1014 216 1014 q 249 1002 244 1014 q 254 935 254 989 l 254 570 l 432 570 l 432 940 q 425 1039 432 1008 q 391 1088 418 1070 q 323 1105 365 1105 q 203 1048 241 1105 l 207 1099 "},"₣":{"ha":553,"x_min":1,"x_max":541,"o":"m 343 196 l 437 196 l 437 313 l 343 313 l 343 461 l 519 461 l 519 669 l 343 669 l 343 879 l 541 879 l 541 1099 l 57 1099 l 57 313 l 1 313 l 1 196 l 57 196 l 57 0 l 343 0 l 343 196 "},"₤":{"ha":743,"x_min":46,"x_max":710,"o":"m 264 160 q 390 363 374 231 l 498 363 l 498 476 l 396 476 q 393 541 396 500 l 496 541 l 496 656 l 378 656 q 352 750 378 675 q 315 899 315 856 q 334 952 315 930 q 378 975 352 975 q 432 904 432 975 l 432 745 l 677 745 q 685 835 685 806 q 600 1042 685 964 q 367 1120 515 1120 q 142 1042 224 1120 q 60 832 60 965 q 68 759 60 789 q 91 703 77 729 q 117 656 106 677 l 46 656 l 46 541 l 153 541 q 161 479 161 500 l 49 479 l 49 363 l 149 363 q 49 139 123 184 l 49 -21 q 215 25 113 25 q 375 1 274 25 q 507 -21 463 -21 q 636 9 586 -21 q 698 83 686 40 q 710 221 710 127 l 710 309 l 481 309 l 481 264 q 466 179 481 199 q 421 158 452 158 q 385 163 410 158 q 330 168 349 168 q 264 160 318 168 "}}}
